<?xml version="1.0" standalone="no"?>
<!DOCTYPE svg PUBLIC "-//W3C//DTD SVG 1.1//EN" "http://www.w3.org/Graphics/SVG/1.1/DTD/svg11.dtd" >
<svg>
<metadata>
Created by FontForge 20090914 at Fri Jun 24 23:01:09 2022
 By www-data
Generated from MetaFont bitmap by mftrace 1.0.33, http://www.cs.uu.nl/~hanwen/mftrace/ 
</metadata>
<defs>
<font id="jsMath-cmti10" horiz-adv-x="511" >
  <font-face 
    font-family="jsMath-cmti10"
    font-weight="500"
    font-style="italic"
    font-stretch="normal"
    units-per-em="1000"
    panose-1="2 0 6 3 0 0 0 0 0 0"
    ascent="800"
    descent="-200"
    x-height="441"
    cap-height="682.996"
    bbox="-31.001 -250.001 1125 750.6"
    underline-thickness="50"
    underline-position="-75"
    slope="-14"
    unicode-range="U+0020-U+00FF"
  />
<missing-glyph horiz-adv-x="0" 
 />
    <glyph glyph-name=".notdef" horiz-adv-x="0" 
 />
    <glyph glyph-name="space" unicode=" " horiz-adv-x="-2" 
 />
    <glyph glyph-name="exclam" unicode="!" horiz-adv-x="307" 
d="M316 715c16.667 2.66699 30.333 1.00098 41 -4.99902c12.667 -6 21 -15.667 25 -29c1.33301 -4 2 -9.66699 2 -17l-1 -10l-74 -221c-50 -147.333 -75 -221.333 -75 -222c-5.33301 -3.33301 -14 -5 -26 -5c-17.333 0 -26.666 2 -27.999 6c-0.666992 2 11 76.333 35 223
c24 145.333 36.667 220.666 38 225.999c7.33301 24.667 25.666 42 54.999 52zM168.999 129.001c10 3.33301 21 3.00195 33 -0.998047c12 -4.66699 20 -10.334 24 -17.001c6 -8 9.66699 -17.667 11 -29c0 -10.667 -1.66699 -20.334 -5 -29.001
c-8 -20 -22.667 -35.333 -44 -46c-26.667 -12.667 -49.334 -10.667 -68.001 6c-5.33301 4 -9.33301 9 -12 15c-3.33301 8 -5 17 -5 27c0.666992 9.33301 2 16 4 20c8.66699 22 23.667 38 45 48c6.66699 4 12.334 6 17.001 6z" />
    <glyph glyph-name="quotedbl" unicode="&#x22;" horiz-adv-x="514" 
d="M282 693c9.33301 1.33301 17.6641 0.999023 24.9971 -1.00098c30.667 -7.33301 45.334 -33.333 44.001 -78c-1.33301 -32 -11.666 -67.333 -30.999 -106c-22 -46 -55 -88 -99 -126c-11.333 -9.33301 -19.333 -13.333 -24 -12l-20 27c-0.666992 2.66699 2.33301 7 9 13
c51.333 40.667 86.333 89.334 105 146.001l5 13l-8 -3c-25.333 -7.33301 -46 -3.33301 -62 12c-16.667 18 -18.667 40.667 -6 68s33.334 43 62.001 47zM488.998 692.999c9.33301 1.33301 17.6641 0.999023 24.9971 -1.00098c30.667 -7.33301 45.334 -33.333 44.001 -78
c-1.33301 -32 -11.666 -67.333 -30.999 -106c-22 -46 -55 -88 -99 -126c-11.333 -9.33301 -19.333 -13.333 -24 -12l-20 27c-0.666992 2.66699 2.33301 7 9 13c51.333 40.667 86.333 89.334 105 146.001l5 13l-8 -3c-25.333 -7.33301 -46 -3.33301 -62 12
c-16.667 18 -18.667 40.667 -6 68s33.334 43 62.001 47z" />
    <glyph glyph-name="numbersign" unicode="#" horiz-adv-x="818" 
d="M570 692c2.66699 1.33301 5.33203 2.00098 7.99902 2.00098c6 0 10.667 -2.33301 14 -7c4.66699 -3.33301 6.33398 -9 5.00098 -17c0 -2 -22 -47 -66 -135l-74 -150l-9 -18h83h83l78 159l81 162c8.66699 8.66699 18 9 28 1c2.66699 -2.66699 4.66699 -6 6 -10
c0.666992 -3.33301 0.666992 -6.33301 0 -9c0 -2 -25 -53 -75 -153l-74 -149l78 -1h78l4 -3c10 -6 12.667 -14.333 8 -25c-1.33301 -4 -4.33301 -7 -9 -9l-5 -3h-88h-87l-38 -77c-25.333 -50.667 -38 -76.334 -38 -77.001h101c70 0 107 -1.66699 111 -5
c8.66699 -8.66699 8.66699 -18.667 0 -30c-4 -3.33301 -19.667 -5 -47 -5h-75h-111l-79 -159l-81 -162c-8.66699 -8.66699 -18 -9 -28 -1c-2.66699 2.66699 -4.66699 6 -6 10c-0.666992 3.33301 -0.666992 6.33301 0 9c0 2 22 47 66 135l74 150l9 18h-83h-82l-79 -159
l-81 -162c-8.66699 -8.66699 -18 -9 -28 -1c-2.66699 2.66699 -4.66699 6 -6 10c-0.666992 3.33301 -0.666992 6.33301 0 9c0 2 25 53 75 153l74 150h-78l-77 1l-5 2c-10 6 -12.667 14.333 -8 25c1.33301 4 4.33301 7 9 9l5 3h88h87l38 77
c25.333 50.667 38 76.334 38 77.001h-101c-68 0 -103 0.666992 -105 2c-11.333 4 -15 12 -11 24c2 5.33301 5.66699 9.33301 11 12c2 1.33301 40.667 2 116 2h112l78 159l81 162c2 1.33301 4.33301 2.66602 7 3.99902zM591.998 327.001h-83h-82l-38 -77
c-25.333 -50.667 -38 -76.334 -38 -77.001h83h82l38 77c25.333 50.667 38 76.334 38 77.001z" />
    <glyph glyph-name="dollar" unicode="$" horiz-adv-x="769" 
d="M567 718l21.002 0.998047h1c13.333 -1.33301 21.666 -2.33301 24.999 -3c13.333 -4 24 -8.66699 32 -14c36.667 -24 54.667 -65.333 54 -124c-0.666992 -12.667 -2 -25.334 -4 -38.001c-3.33301 -24 -10.666 -41.667 -21.999 -53c-12 -12.667 -27 -19 -45 -19
c-20 0 -33.667 7.66699 -41 23c-4 8.66699 -4.66699 19.334 -2 32.001c4 10.667 8.66699 19.667 14 27c9.33301 11.333 22 18.666 38 21.999l6 1v12c0 21.333 -3.66699 39 -11 53c-8 16.667 -20 27.334 -36 32.001c-10 2.66699 -22.333 2.66699 -37 0
c-40 -11.333 -69 -41.666 -87 -90.999c-6.66699 -20 -17.334 -60 -32.001 -120c-13.333 -54 -20.333 -81.333 -21 -82c0 -1.33301 14 -2 42 -2h41l3 -3c2.66699 -2.66699 2 -12.334 -2 -29.001c-3.33301 -13.333 -6 -20.666 -8 -21.999l-2 -2h-44h-44l-1 -4l-19 -78l-22 -83
c-2.66699 -8.66699 -8.33398 -21.667 -17.001 -39c-4 -6.66699 -6 -10.334 -6 -11.001l64 -34c26.667 -11.333 51.334 -17 74.001 -17c10 0 17 0.666992 21 2c24.667 8.66699 44.334 30.334 59.001 65.001c1.33301 3.33301 2.66602 7 3.99902 11
c3.33301 10 6.66602 15.333 9.99902 16c2 0.666992 8.66699 1 20 1c16.667 0 26 -2 28 -6c0.666992 -2.66699 0 -7 -2 -13c-6 -22 -15.333 -41.333 -28 -58c-30 -42 -68.667 -68.333 -116 -79c-16.667 -3.33301 -36 -3.66602 -58 -0.999023
c-28 5.33301 -62.333 19.333 -103 42c-14 8 -21.667 12 -23 12l-8 -6c-29.333 -24 -62.333 -39.667 -99 -47c-21.333 -4 -39 -4 -53 0c-24 6 -38 19 -42 39c-4 20.667 4.66699 42.667 26 66l5 5c24 20 53 32 87 36c20.667 2.66699 40.334 1.33398 59.001 -3.99902l3 -1l3 8
l44 177c0 0.666992 -9.66699 1 -29 1h-29l-3 3c-2.66699 2.66699 -2 12.334 2 29.001c3.33301 13.333 6 20.666 8 21.999c1.33301 1.33301 12.666 2 33.999 2h32l18 76l23 88c20.667 63.333 58 112.666 112 147.999c13.333 8.66699 27.333 15.667 42 21
c20 6 33.667 9.33301 41 10zM209.002 73.998c-22.667 3.33301 -39 -0.666992 -49 -12c-4 -4.66699 -6.66699 -10.334 -8 -17.001c0 -3.33301 1 -5.66602 3 -6.99902c1.33301 -1.33301 5 -2 11 -2c24 2 44.667 11.333 62 28l6 5l-7 2c-6 2 -12 3 -18 3z" />
    <glyph glyph-name="percent" unicode="%" horiz-adv-x="818" 
d="M382 749c12 2.66699 23.999 2 35.999 -2c14 -5.33301 27.333 -16.333 40 -33c29.333 -38 68.666 -61 117.999 -69c16 -2.66699 36.333 -2.66699 61 0c50 6.66699 94.667 26 134 58c10.667 8 21 17.667 31 29c8.66699 10 14.334 15.333 17.001 16
c8.66699 4 16 2.33301 22 -5c4 -2.66699 6 -7.33398 6 -14.001c0 -2 0.333008 -3.66699 1 -5c0.666992 -2.66699 0.333984 -5.33398 -0.999023 -8.00098c-4 -6.66699 -14.333 -17.667 -31 -33c-6.66699 -5.33301 -115.334 -129.666 -326.001 -372.999
c-206 -240 -311.333 -361.333 -316 -364c-6 -3.33301 -12 -3 -18 1c-4 1.33301 -6.66699 4 -8 8c-3.33301 6 -3.66602 12 -0.999023 18c4 6 96.333 113.333 277 322c182.667 212 274.334 318.333 275.001 319l-7 -2c-13.333 -4.66699 -29.333 -8.33398 -48 -11.001
c-22.667 -3.33301 -48.334 -3.66602 -77.001 -0.999023c-28.667 4.66699 -57.667 14.667 -87 30c-0.666992 0 -1 -4 -1 -12c0 -37.333 -8.66699 -77.666 -26 -120.999c-8.66699 -22.667 -19.334 -43.334 -32.001 -62.001c-29.333 -45.333 -62 -73.666 -98 -84.999
c-4.66699 -1.33301 -12 -2 -22 -2c-10.667 0 -18 0.666992 -22 2c-38 10.667 -62 42.667 -72 96c-3.33301 18 -3.66602 36.667 -0.999023 56c6 70 31.333 131 76 183c20 22.667 41.333 39.667 64 51c11.333 6.66699 23.333 11 36 13zM399.999 700
c-16.667 8.66699 -34.999 0.333008 -54.999 -25c-2 -2 -3.66699 -4 -5 -6c-12 -16.667 -26 -56 -42 -118c-17.333 -70.667 -23.333 -115 -18 -133c5.33301 -15.333 13.666 -23.333 24.999 -24c18.667 -0.666992 40 16.333 64 51c28 42.667 45.667 93.334 53 152.001
c2.66699 16 3 33.667 1 53c-0.666992 1.33301 -1 2.66602 -1 3.99902c-4 26 -11.333 41.333 -22 46zM685 344.999c23.333 5.33301 44 1.33398 62 -11.999c25.333 -19.333 39 -54.333 41 -105c0 -7.33301 -0.333008 -15 -1 -23c-5.33301 -71.333 -28.333 -134.333 -69 -189
l-6 -8c-10 -13.333 -23 -26.333 -39 -39c-22.667 -18 -45.667 -26.333 -69 -25c-22 2 -40.333 10.667 -55 26c-10.667 10.667 -19.667 25.667 -27 45c-13.333 41.333 -12 89.666 4 144.999c6 20 13.667 39.333 23 58c14.667 30 33 56 55 78l23 22c20.667 14 40 23 58 27z
M705 299c-8.66699 2 -17.335 0.666992 -26.002 -4c-10.667 -5.33301 -22 -16.666 -34 -33.999c-11.333 -16.667 -24.666 -56.667 -39.999 -120c-16.667 -67.333 -22 -110 -16 -128c0.666992 -1.33301 1.33398 -3 2.00098 -5c4.66699 -8.66699 10.334 -14 17.001 -16
c19.333 -5.33301 41.333 10 66 46c19.333 27.333 33.666 59 42.999 95c16 52.667 19.333 97.667 10 135c-4 17.333 -11.333 27.666 -22 30.999z" />
    <glyph glyph-name="ampersand" unicode="&#x26;" horiz-adv-x="767" 
d="M406 715c28.667 4 54.9951 -1.66992 78.9951 -17.0029c12.667 -9.33301 21.667 -19.333 27 -30c18 -29.333 22.333 -63.333 13 -102c-2.66699 -14.667 -8.66699 -26.667 -18 -36c-12 -13.333 -27.333 -20 -46 -20c-8.66699 0 -16.667 2 -24 6
c-20.667 10.667 -25.667 29.334 -15 56.001c0.666992 2.66699 1.66699 5.33398 3 8.00098c8.66699 17.333 22.334 28.333 41.001 33c2.66699 0.666992 4.66699 1.66699 6 3c1.33301 2.66699 -1 10.667 -7 24c-5.33301 10.667 -13 18.334 -23 23.001
c-10 6 -22.333 7.66699 -37 5c-26.667 -7.33301 -48.667 -27.666 -66 -60.999c-1.33301 -2 -2.33301 -4 -3 -6c-7.33301 -16 -17.666 -48 -30.999 -96l-12 -53l10 5c32 15.333 59 20.666 81 15.999c21.333 -5.33301 35.666 -19.666 42.999 -42.999
c4 -12.667 4.66699 -27 2 -43c-5.33301 -28 -17.666 -51.667 -36.999 -71c-14.667 -15.333 -30.334 -25 -47.001 -29c-24 -6.66699 -50.333 -1 -79 17l-6 4c-2 -2 -6 -15.333 -12 -40c-14.667 -54.667 -21.667 -94.334 -21 -119.001c2 -34.667 13.667 -62.334 35 -83.001
c28.667 -27.333 71.334 -41 128.001 -41c141.333 0 231.666 64.333 270.999 193l6 21c7.33301 25.333 11.333 50.333 12 75c0.666992 42.667 -8.33301 78.667 -27 108l-6 9l-17 -11c-22.667 -15.333 -39.667 -28.666 -51 -39.999c-18 -18 -28 -35 -30 -51
c-0.666992 -6 -0.666992 -9 0 -9c0.666992 -0.666992 3.33398 1.33301 8.00098 6c9.33301 9.33301 19.666 15.333 30.999 18c24 5.33301 41.333 -1.66699 52 -21c3.33301 -10 4 -20.667 2 -32c-5.33301 -18 -16 -31.667 -32 -41c-8 -4.66699 -17.333 -7.33398 -28 -8.00098
c-28 -1.33301 -51.333 7.33398 -70 26.001c-4.66699 4.66699 -8.66699 10.334 -12 17.001c-5.33301 10.667 -8 22.667 -8 36c0.666992 13.333 5 28.333 13 45c8 15.333 19.333 30.666 34 45.999c12.667 12.667 35.334 30.667 68.001 54l36 25c24 18 44.667 40 62 66l21 35
l-1 1c-4.66699 0 -11 3.66699 -19 11c-12.667 14.667 -13.334 33 -2.00098 55c10.667 21.333 27.667 33 51 35c10.667 0 19.667 -2 27 -6c18 -8.66699 24 -25.334 18 -50.001c-11.333 -40.667 -28.666 -78 -51.999 -112c-11.333 -14.667 -23.666 -29 -36.999 -43l-15 -16
l3 -4c9.33301 -12 18 -28.333 26 -49c5.33301 -16 9 -31 11 -45c2.66699 -17.333 2.66699 -38.666 0 -63.999v-5c-10 -94 -44 -169.333 -102 -226c-62.667 -64 -146.667 -96 -252 -96c-71.333 0 -130.666 17.667 -177.999 53c-15.333 11.333 -28 24 -38 38
c-20 26 -32 55.333 -36 88c-2.66699 20.667 -2 41 2 61c12.667 58.667 37.334 111 74.001 157l8 10l-3 11c-4 18.667 -4.66699 40 -2 64c6.66699 58.667 27 112 61 160c41.333 55.333 87 87 137 95zM374.995 423.997c-0.666992 0.666992 -4.00195 1.66602 -10.002 2.99902
c-11.333 0 -23.666 -4.33301 -36.999 -13c-12.667 -7.33301 -24 -18.333 -34 -33l-5 -7l1 -5l4 -9c8 -16.667 20.667 -26 38 -28c14 -0.666992 23.333 4.33301 28 15c8.66699 20.667 14.334 43.334 17.001 68.001c0 4.66699 -0.666992 7.66699 -2 9z" />
    <glyph glyph-name="quotesingle" unicode="'" horiz-adv-x="307" 
d="M313 693c9.33301 1.33301 17.6641 0.999023 24.9971 -1.00098c30.667 -7.33301 45.334 -33.333 44.001 -78c-1.33301 -32 -11.666 -67.333 -30.999 -106c-25.333 -52 -61 -96 -107 -132c-6.66699 -6 -12 -8 -16 -6l-20 27c-0.666992 2.66699 2.33301 7 9 13
c51.333 40.667 86.333 89.334 105 146.001l5 13l-8 -3c-25.333 -7.33301 -46 -3.33301 -62 12c-16.667 18 -18.667 40.667 -6 68s33.334 43 62.001 47z" />
    <glyph glyph-name="parenleft" unicode="(" horiz-adv-x="409" 
d="M471 746l5.99902 4.00195h17h17l3 -3c2 -2 3 -4.33301 3 -7c0 -2 -3.33301 -6 -10 -12l-47 -47c-89.333 -99.333 -156.666 -231.333 -201.999 -396c-22.667 -80.667 -37.334 -156.334 -44.001 -227.001c-3.33301 -39.333 -3.66602 -73.333 -0.999023 -102
c4.66699 -71.333 22.334 -133 53.001 -185c4.66699 -8 6.33398 -13.333 5.00098 -16c-2.66699 -3.33301 -10.667 -5 -24 -5h-16l-5 4c-10.667 11.333 -23.667 30.666 -39 57.999c-22.667 42 -37.334 89.667 -44.001 143c-12 87.333 -3.33301 188.666 26 303.999
c42.667 161.333 110 293 202 395c30.667 34.667 62.667 64.334 96 89.001c1.33301 1.33301 2.66602 2.33301 3.99902 3z" />
    <glyph glyph-name="parenright" unicode=")" horiz-adv-x="409" 
d="M267 749c1.33301 0.666992 7.66895 0.999023 19.002 0.999023h17l5 -4c10.667 -11.333 23.667 -30.666 39 -57.999c22 -41.333 36.667 -88.666 44 -141.999c12 -88.667 3.33301 -190 -26 -304c-42.667 -162 -110 -294 -202 -396
c-30.667 -34.667 -62.667 -64.334 -96 -89.001c-1.33301 -1.33301 -2.66602 -2.33301 -3.99902 -3l-6 -4h-17h-17l-3 3c-2 2 -3 4.33301 -3 7c0 2 3.33301 6 10 12c20 18.667 35.667 34.667 47 48c89.333 98.667 156.666 230.667 201.999 396
c22 79.333 36.667 154.666 44 225.999c3.33301 38.667 3.66602 73 0.999023 103c-4.66699 70.667 -22.334 132 -53.001 184c-4 6.66699 -6 10.334 -6 11.001c0 4 1.66699 7 5 9z" />
    <glyph glyph-name="asterisk" unicode="*" 
d="M432 749c11.333 1.33301 19.668 0.666016 25.001 -2.00098c9.33301 -4 14.666 -11.333 15.999 -22c0 -4.66699 -7.33301 -29 -22 -73c-15.333 -43.333 -23 -66 -23 -68l55 36c39.333 26.667 62 40 68 40h5c14 -1.33301 23 -8.33301 27 -21
c4.66699 -16.667 -1 -31 -17 -43c-8 -5.33301 -29.667 -16 -65 -32c-40.667 -18 -61.667 -27.667 -63 -29c-1.33301 0 14.334 -10 47.001 -30c34 -20 52 -32 54 -36c0 -0.666992 0.333008 -2 1 -4c4 -14.667 -2 -29 -18 -43c-3.33301 -3.33301 -7.33301 -6 -12 -8
c-5.33301 -2.66699 -11.333 -4 -18 -4s-11 0.333008 -13 1c-2.66699 1.33301 -16 14 -40 38l-36 36l-11 -67c-6.66699 -43.333 -11.334 -67.666 -14.001 -72.999c-6.66699 -12.667 -18 -21 -34 -25s-27.667 0.333008 -35 13c-3.33301 5.33301 -4.33301 11 -3 17
c0 -1.33301 7.33301 22 22 70l22 64c0 0.666992 -18.333 -11.333 -55 -36c-36.667 -23.333 -56.667 -35.666 -60 -36.999c-17.333 -5.33301 -30 0 -38 16c-4 7.33301 -4 16 0 26c3.33301 8 8.33301 14.667 15 20c0.666992 0.666992 23 11.667 67 33l63 28l-49 30
c-33.333 20 -51 32 -53 36c-0.666992 0.666992 -1.33398 2.66699 -2.00098 6c-3.33301 15.333 3.33398 29.666 20.001 42.999c5.33301 4 11 7 17 9c7.33301 2.66699 15.333 2.66699 24 0c2.66699 -1.33301 16 -14 40 -38c24 -24.667 36 -36 36 -34
c1.33301 1.33301 5 23 11 65c7.33301 41.333 11 63.666 11 66.999c4 13.333 14 23 30 29c1.33301 0.666992 3 1.33398 5 2.00098z" />
    <glyph glyph-name="plus" unicode="+" horiz-adv-x="767" 
d="M509 554c6 3.33301 11.668 3.66895 17.001 1.00195c8 -3.33301 12 -9 12 -17l-66 -266c0 -1.33301 44 -2 132 -2c88.667 0 134.334 -0.666992 137.001 -2c5.33301 -3.33301 9 -7.66602 11 -12.999c0.666992 -3.33301 0.666992 -6.66602 0 -9.99902
c-2 -5.33301 -5.66699 -9.66602 -11 -12.999c-2.66699 -1.33301 -50 -2 -142 -2h-137l-1 -4c0 1.33301 -11.333 -44 -34 -136c-19.333 -78.667 -31 -124.334 -35 -137.001c-4.66699 -8 -12.334 -11 -23.001 -9c-9.33301 3.33301 -14 9.66602 -14 18.999
c0 4 11 49.333 33 136l33 131h-133c-88.667 0 -134 0.666992 -136 2c-6 3.33301 -10 7.66602 -12 12.999c-0.666992 3.33301 -0.666992 6.66602 0 9.99902c2 5.33301 6 9.66602 12 12.999c2 1.33301 49 2 141 2h138l34 137c22.667 90.667 35 137.667 37 141
c1.33301 3.33301 3.66602 5.33301 6.99902 6z" />
    <glyph glyph-name="comma" unicode="," horiz-adv-x="307" 
d="M168 129c21.333 5.33301 38.999 1 52.999 -13c7.33301 -6.66699 12 -16 14 -28c9.33301 -35.333 1.33301 -80.666 -24 -135.999c-23.333 -52 -58.333 -97.667 -105 -137c-8.66699 -8 -15 -10.667 -19 -8c-2 1.33301 -5.33301 5.33301 -10 12
c-7.33301 10.667 -10.333 17 -9 19c0.666992 1.33301 4.66699 5.66602 12 12.999c47.333 41.333 80 88.333 98 141l5 13l-6 -2c-11.333 -4 -23 -4.66699 -35 -2c-10 2 -18 5.66699 -24 11c-12 11.333 -17 26.666 -15 45.999c4.66699 30.667 20.334 52.334 47.001 65.001
c6 2.66699 12 4.66699 18 6z" />
    <glyph glyph-name="hyphen" unicode="-" horiz-adv-x="358" 
d="M102 254c2 1.33301 41.333 2 118 2h115l4 -3c2 -3.33301 3 -6 3 -8l-17 -65l-4 -4c-1.33301 -0.666992 -40 -1 -116 -1c-78 0 -118 1.66699 -120 5c-1.33301 1.33301 -2 3.33301 -2 6l15 63c0.666992 1.33301 2 3 4 5z" />
    <glyph glyph-name="period" unicode="." horiz-adv-x="307" 
d="M170 130c15.333 2.66699 29.001 0.666992 41.001 -6c21.333 -12 29.666 -31 24.999 -57c-3.33301 -14.667 -10.666 -28 -21.999 -40c-22.667 -24 -47.334 -32.333 -74.001 -25c-8 2.66699 -15.333 7 -22 13c-18 16.667 -21 38.667 -9 66c8.66699 18 22 31.667 40 41
c8 4 15 6.66699 21 8z" />
    <glyph glyph-name="slash" unicode="/" 
d="M588 748c10.667 4.66699 19.334 2 26.001 -8c0.666992 -1.33301 1.33398 -3 2.00098 -5c0.666992 -3.33301 0.666992 -6.33301 0 -9l-561 -968c-4 -5.33301 -9 -8 -15 -8c-6.66699 0 -11.667 2.33301 -15 7c-4.66699 3.33301 -6.33398 9 -5.00098 17l561 968
c1.33301 2 3.66602 4 6.99902 6z" />
    <glyph glyph-name="zero" unicode="0" 
d="M406 665c2 1.33301 9.00293 1.33398 21.0029 0.000976562c16 0 31 -2.33301 45 -7c34.667 -11.333 59.667 -33 75 -65c8.66699 -18 14.667 -42.333 18 -73c3.33301 -26 2.66602 -52.333 -2.00098 -79c-6.66699 -62.667 -22.667 -132 -48 -208
c-23.333 -70 -54 -126.667 -92 -170c-42 -50 -93 -78 -153 -84c-52.667 -6 -94.667 8 -126 42c-7.33301 8 -13.333 16.667 -18 26c-13.333 26 -20.333 58 -21 96c-0.666992 45.333 8 105 26 179c25.333 99.333 57.333 176.333 96 231c23.333 32 48.666 57 75.999 75
c33.333 21.333 67.666 33.666 102.999 36.999zM431.003 616.001c-10.667 3.33301 -23.001 3.66699 -37.001 1c-34 -6.66699 -62 -25.334 -84 -56.001c-3.33301 -5.33301 -6.33301 -10.666 -9 -15.999c-14 -28.667 -36 -102.334 -66 -221.001
c-14.667 -60.667 -25.667 -108.667 -33 -144c-6.66699 -32 -10 -57 -10 -75c0 -12.667 0.666992 -21.667 2 -27c6 -17.333 15 -30.666 27 -39.999c25.333 -19.333 56 -18.666 92 2.00098c28.667 16.667 49.667 41 63 73c14.667 33.333 36.667 109.666 66 228.999
c31.333 124 44.333 198 39 222c-4.66699 17.333 -13 30.333 -25 39c-7.33301 6.66699 -15.666 11 -24.999 13z" />
    <glyph glyph-name="one" unicode="1" 
d="M449 665l8.99805 1.00293h1c7.33301 0 12 -2.33301 14 -7c0.666992 -2.66699 -23.333 -102.334 -72 -299.001c-50 -197.333 -75 -296.333 -75 -297c-0.666992 -2 4 -3.66699 14 -5c10 -0.666992 26.333 -1.33398 49 -2.00098c26 0 40 -2.33301 42 -7
c1.33301 -2 0.333008 -9.66699 -3 -23c-4 -14 -6.66699 -21.667 -8 -23l-3 -3h-16c-73.333 3.33301 -159 3.66602 -257 0.999023c-22.667 -0.666992 -35.334 1.33301 -38.001 6c-0.666992 2 0.333008 9.66699 3 23c4 13.333 6.66699 21 8 23l4 3h38
c40.667 0.666992 64.334 3.33398 71.001 8.00098c2.66699 1.33301 22.334 76.666 59.001 225.999l56 224l-13 -7c-29.333 -14.667 -58.333 -23 -87 -25c-12.667 -1.33301 -20.667 0.666992 -24 6l-1 3l4 18c4 16 7.66699 25 11 27c0.666992 0 6.33398 0.666992 17.001 2
c24.667 2 50.334 9.33301 77.001 22c43.333 22 80.666 54 111.999 96c2 2.66699 4.66699 5.66699 8 9z" />
    <glyph glyph-name="two" unicode="2" 
d="M372 665l26.002 0.999023h1c22.667 -0.666992 44 -5.66699 64 -15c29.333 -14.667 51.666 -37 66.999 -67c13.333 -26 20 -55.667 20 -89c0 -17.333 -1.66699 -34 -5 -50c-6.66699 -33.333 -21.667 -64.666 -45 -93.999c-7.33301 -10 -23 -26 -47 -48
c-29.333 -23.333 -68 -49.666 -116 -78.999c-16 -8.66699 -30.333 -17.334 -43 -26.001c-38.667 -22.667 -73.667 -53 -105 -91c0.666992 -5.33301 2 -8.33301 4 -9c12.667 0 40 -4 82 -12c56 -10.667 92.667 -14.667 110 -12c30 4.66699 54.667 24 74 58
c4.66699 8.66699 8.66699 17.334 12 26.001c2.66699 8.66699 5.66699 13.334 9 14.001c2 0.666992 9 1 21 1h22l3 -3c2 -2 3 -4.33301 3 -7c-1.33301 -7.33301 -6 -21.333 -14 -42c-28 -70.667 -67.333 -115.667 -118 -135c-6 -2 -11.667 -3.66699 -17 -5s-14 -2 -26 -2
s-21 0.666992 -27 2c-18.667 4.66699 -41 15.667 -67 33c-34 22 -61 34.333 -81 37c-13.333 2 -24 -2.33301 -32 -13c-4.66699 -6.66699 -10.334 -20.667 -17.001 -42c-3.33301 -10.667 -6.66602 -16.334 -9.99902 -17.001c-2.66699 -0.666992 -10 -1 -22 -1h-21l-3 3
c-2.66699 3.33301 -2.33398 10.333 0.999023 21c24 84 74.667 155 152 213c14 10.667 28.333 20.334 43 29.001c76 45.333 127.667 96 155 152c8 16.667 16 43.667 24 81c4.66699 22.667 7 43 7 61c0 18.667 -2.66699 33.667 -8 45
c-8.66699 17.333 -22.667 28.666 -42 33.999c-10 2.66699 -23 2.66699 -39 0c-14 -3.33301 -24.667 -7 -32 -11c-29.333 -14 -55 -38.333 -77 -73c-9.33301 -13.333 -19.666 -33 -30.999 -59c-20.667 -50.667 -24.334 -80.667 -11.001 -90c4 -2.66699 11 -2 21 2
c22 7.33301 40 29 54 65c0.666992 2 1.33398 3.66699 2.00098 5c10 26 11 46.667 3 62c-4 6.66699 -5 11.667 -3 15c7.33301 7.33301 17 15 29 23c4 2.66699 7.66699 1.66699 11 -3c4 -4.66699 7.66699 -12.334 11 -23.001c8 -22.667 6 -50.334 -6 -83.001
c-20.667 -54 -50.667 -88.667 -90 -104c-3.33301 -1.33301 -7 -2.66602 -11 -3.99902c-12.667 -3.33301 -24.667 -4 -36 -2c-26 6 -41.333 23.667 -46 53c-2 13.333 -1.33301 27 2 41c7.33301 34.667 21.666 69.334 42.999 104.001c38 65.333 87 106.666 147 123.999
c8.66699 2.66699 17 4.66699 25 6z" />
    <glyph glyph-name="three" unicode="3" 
d="M395 664c8 1.33301 15.6729 2.00098 23.0059 2.00098c38 0 69.667 -10.333 95 -31c13.333 -10.667 25 -25.334 35 -44.001c8.66699 -19.333 13 -40 13 -62c0 -28.667 -7.66699 -58.334 -23 -89.001c-23.333 -46 -58.333 -81.667 -105 -107l-9 -5l3 -2
c8.66699 -5.33301 17 -13.666 25 -24.999c8 -12 14.333 -24.333 19 -37c0.666992 -1.33301 2.66699 -7.66602 6 -18.999c4 -19.333 4.66699 -40 2 -62c-7.33301 -48.667 -30.333 -91.667 -69 -129c-46.667 -45.333 -101.334 -70.333 -164.001 -75
c-6 -0.666992 -12 -1 -18 -1c-22 0 -43.333 4.66699 -64 14c-14 7.33301 -25.667 15.666 -35 24.999c-15.333 16.667 -26 37.667 -32 63c-2.66699 14.667 -2.66699 32.334 0 53.001c3.33301 18.667 10.333 33.334 21 44.001c18 18 38 24 60 18c12 -4 20.333 -11 25 -21
c7.33301 -14 6 -30 -4 -48c-8 -16.667 -21 -27.334 -39 -32.001l-7 -3l2 -7c7.33301 -27.333 24 -45.333 50 -54c20 -7.33301 43.333 -6.66602 70 2.00098c34 10 59.333 32.333 76 67c6 13.333 12.667 34.333 20 63c16 61.333 19.333 101 10 119
c-2 3.33301 -4.33301 6.66602 -7 9.99902c-5.33301 5.33301 -12.333 9.66602 -21 12.999c-4 1.33301 -17.333 2.33301 -40 3l-34 1l-2 2c-0.666992 0.666992 -1.66699 2 -3 4c0 6.66699 3.33301 21 10 43c1.33301 4 7 6 17 6h21c27.333 0 47 2 59 6
c23.333 8 42.666 22.667 57.999 44c10 15.333 19.333 41 28 77c7.33301 28 11 50 11 66c0 19.333 -5 34.333 -15 45c-8.66699 7.33301 -18 12.333 -28 15c-12 3.33301 -27.667 3.66602 -47 0.999023c-24 -5.33301 -46.333 -15 -67 -29
c-16.667 -11.333 -30.667 -25.333 -42 -42c-15.333 -22.667 -23 -45 -23 -67c0 -14 4.33301 -20.667 13 -20c13.333 1.33301 24 9 32 23c1.33301 4 2 8.66699 2 14c0 8 -2.66699 15.667 -8 23c-3.33301 6.66699 -4 11.334 -2 14.001c7.33301 7.33301 17 15 29 23
c3.33301 2 7.33301 0.666992 12 -4c7.33301 -8.66699 12.333 -19 15 -31c3.33301 -11.333 3.66602 -23 0.999023 -35c-7.33301 -30 -25.333 -52 -54 -66c-10.667 -4.66699 -21.334 -7.33398 -32.001 -8.00098c-32.667 -1.33301 -53 14 -61 46c-1.33301 4 -2 11.667 -2 23
c0 10.667 0.666992 19.334 2 26.001c7.33301 25.333 18.666 48 33.999 68c12.667 16.667 27 30.667 43 42c35.333 27.333 73.666 43 114.999 47z" />
    <glyph glyph-name="four" unicode="4" 
d="M431 664c6.66699 1.33301 11.665 1.99219 14.998 1.99219c15.333 -0.666992 26 -7 32 -19c4 -8 3.66699 -21 -1 -39c-0.666992 -3.33301 -2 -8 -4 -14c-19.333 -74 -46.666 -145.667 -81.999 -215c-11.333 -24 -26 -51.333 -44 -82c-44 -74 -95 -140 -153 -198l-18 -19h9
c24.667 0 57.667 -8 99 -24c10.667 -4.66699 16 -6.33398 16 -5.00098c1.33301 1.33301 8 27.333 20 78c14 56 23 86.667 27 92l5 5c13.333 12 28 17 44 15c9.33301 -1.33301 16.333 -4.33301 21 -9c8.66699 -7.33301 12.334 -17 11.001 -29
c-1.33301 -2.66699 -8.66602 -32.667 -21.999 -90l-22 -85h8c13.333 0 26 1.66699 38 5c9.33301 2 15 2.66699 17 2c2 -1.33301 6.66699 -6.66602 14 -15.999c10 -13.333 13 -21.666 9 -24.999c-2.66699 -2 -8.33398 -4.33301 -17.001 -7
c-28.667 -10 -53.334 -15 -74.001 -15h-9l-16 -65c-10 -39.333 -16.667 -63.333 -20 -72c-10 -19.333 -26 -29 -48 -29c-16.667 0.666992 -28 7.33398 -34 20.001c-3.33301 7.33301 -2.33301 22 3 44c2 8.66699 6.33301 25.667 13 51l18 72
c0 0.666992 -6.66699 3.33398 -20 8.00098c-31.333 12.667 -56.333 20 -75 22c-20 2.66699 -42.667 2.33398 -68 -0.999023c-11.333 -2 -21 -6 -29 -12c-8.66699 -6.66699 -14.334 -10 -17.001 -10c-3.33301 0 -9.33301 6 -18 18c-7.33301 8.66699 -11 14.334 -11 17.001
c0 8 7.66699 17 23 27l4 2c10 4.66699 28.333 20.334 55 47.001c95.333 95.333 169.333 221.333 222 378c12.667 36.667 25.334 79.334 38.001 128.001c6.66699 24.667 20.334 40.334 41.001 47.001z" />
    <glyph glyph-name="five" unicode="5" 
d="M274 664c2.66699 2 8.67188 0.671875 18.0049 -3.99512c24 -10.667 47.333 -18 70 -22c59.333 -9.33301 120.333 -1.33301 183 24c8 2.66699 12.667 4 14 4c4 0 6.66699 -3 8 -9l-10 -34v-1c-4.66699 -6 -17.667 -16 -39 -30
c-21.333 -14.667 -44.666 -26.667 -69.999 -36c-24.667 -9.33301 -48.667 -15.333 -72 -18c-18.667 -2.66699 -39.667 -2.66699 -63 0c-8.66699 1.33301 -13.334 2 -14.001 2c-1.33301 0 -8.66602 -25.333 -21.999 -76l-19 -78c0 -0.666992 3.33301 1 10 5
c18.667 12 39.667 20.667 63 26c16.667 3.33301 35.667 3.66602 57 0.999023c32.667 -7.33301 58.667 -23.666 78 -48.999c9.33301 -14 16.666 -29 21.999 -45c13.333 -41.333 12.333 -87.333 -3 -138c-20.667 -68.667 -61.334 -123 -122.001 -163
c-32 -22 -65.667 -36 -101 -42c-18.667 -4 -35.334 -4.66699 -50.001 -2c-29.333 3.33301 -53.333 14.666 -72 33.999c-8.66699 10 -16 20.667 -22 32c-8.66699 19.333 -13 42.333 -13 69c0.666992 34.667 9 59.334 25 74.001c7.33301 7.33301 15.666 12.666 24.999 15.999
c12 4.66699 24.333 5.66699 37 3c13.333 -4 22.333 -11.667 27 -23c6 -12 6 -25.667 0 -41c-4 -10.667 -9.66699 -19.667 -17 -27c-9.33301 -8.66699 -19.666 -14.334 -30.999 -17.001c-4.66699 -1.33301 -7.33398 -2 -8.00098 -2l1 -6v-1c6 -27.333 21.333 -45.333 46 -54
c32 -11.333 64.667 -4.66602 98 20.001c13.333 9.33301 24.333 20.666 33 33.999c14.667 22 28.667 59.667 42 113c13.333 51.333 20 88 20 110c0 13.333 -2.33301 24.666 -7 33.999c-6.66699 14.667 -17.334 23 -32.001 25c-12 1.33301 -23.333 0.666016 -34 -2.00098
c-16.667 -3.33301 -31.334 -9.33301 -44.001 -18c-19.333 -12.667 -36 -28 -50 -46c-5.33301 -6.66699 -8.66602 -10.334 -9.99902 -11.001c-0.666992 -0.666992 -7 -1 -19 -1c-14 0 -22.333 2.33301 -25 7l-1 4l43 175c30.667 120 46 179.667 46 179
c1.33301 3.33301 2.66602 5 3.99902 5z" />
    <glyph glyph-name="six" unicode="6" 
d="M454 665l35.002 0.00292969c28 -4 48 -14.333 60 -31c6 -8 10.333 -17 13 -27c2 -8 3 -13.333 3 -16c2.66699 -21.333 -0.333008 -40.333 -9 -57c-10.667 -22.667 -28.667 -35.334 -54 -38.001c-21.333 -2 -36 5.66699 -44 23c-2 3.33301 -3.33301 8.66602 -4 15.999
c0 11.333 2.33301 21.666 7 30.999c7.33301 16 20 26.667 38 32l3 2l-4 4c-16 16 -41 17.333 -75 4c-12 -4 -23.333 -9.66699 -34 -17c-42.667 -28 -76 -75 -100 -141l-2 -6c-11.333 -34 -17 -52.667 -17 -56c0 -1.33301 2.66699 0.666992 8 6
c23.333 21.333 49.666 35.666 78.999 42.999c14.667 2.66699 32.334 2.66699 53.001 0c32 -6.66699 57 -26.667 75 -60c1.33301 -2 2.66602 -4.33301 3.99902 -7c13.333 -25.333 20.333 -51.666 21 -78.999c0.666992 -24 -3 -52 -11 -84c-16 -61.333 -45.667 -113 -89 -155
l-4 -4c-24 -23.333 -46.667 -40 -68 -50c-22.667 -10.667 -44.334 -17 -65.001 -19c-20.667 -1.33301 -36 -1 -46 1c-25.333 6 -46.666 18 -63.999 36c-20.667 21.333 -34.334 54 -41.001 98c-2.66699 20.667 -3 49 -1 85c0.666992 3.33301 1 6 1 8
c6.66699 48.667 16 94.334 28 137.001c28 99.333 77.667 181 149 245c9.33301 8.66699 19 16.667 29 24c43.333 31.333 85.333 48.666 126 51.999zM377.002 391.003l-26.999 -0.000976562c-17.333 -2 -34.333 -10.667 -51 -26c-32.667 -31.333 -58.334 -87 -77.001 -167
c-12 -54 -18 -87.667 -18 -101c0 -31.333 13 -52.333 39 -63c3.33301 -1.33301 10 -2 20 -2c14 0 26.333 2 37 6c17.333 6.66699 32.333 18.667 45 36c12 16.667 28.333 65.334 49 146.001c15.333 62.667 23.333 101.667 24 117c0 8 -0.666992 14.333 -2 19
c-6 19.333 -19 31 -39 35z" />
    <glyph glyph-name="seven" unicode="7" 
d="M242 664c1.33301 1.33301 8.99316 1.99902 22.9932 1.99902c14.667 0 22.667 -0.333008 24 -1c3.33301 -2 5 -5 5 -9l-6 -15c-4 -8 -5.33301 -11.667 -4 -11c23.333 15.333 49 26.333 77 33c6.66699 1.33301 16 2 28 2c10.667 0 17.667 -0.666992 21 -2
c12 -5.33301 20.667 -16 26 -32c2.66699 -10.667 4.33398 -19.334 5.00098 -26.001c4 -20.667 8.66699 -33.667 14 -39c5.33301 -4.66699 14.333 -6 27 -4c15.333 4 31.666 14.667 48.999 32c10 10 24.667 28 44 54c6.66699 10 11.334 15.667 14.001 17
c0.666992 0.666992 8.33398 1 23.001 1h21l3 -3c3.33301 -3.33301 2.33301 -9.66602 -3 -18.999c-2.66699 -3.33301 -7 -9.66602 -13 -18.999c-57.333 -86.667 -107 -180.334 -149 -281.001c-36 -85.333 -68.667 -184.333 -98 -297c-6 -22.667 -13.667 -39 -23 -49
c-5.33301 -6 -10.666 -10 -15.999 -12c-20 -10 -38.333 -10.667 -55 -2c-6.66699 3.33301 -12 9.33301 -16 18c-2 2.66699 -3.33301 8 -4 16c0 6.66699 1 14.334 3 23.001c36 139.333 109.667 296 221 470l4 6l-7 -2c-21.333 -3.33301 -38.666 1 -51.999 13
c-2 1.33301 -7.66699 7.33301 -17 18c-12.667 16 -23.667 24.333 -33 25h-11c-21.333 -2 -41 -7.33301 -59 -16c-45.333 -22 -82.666 -57.667 -111.999 -107l-6 -12c-3.33301 -6.66699 -5.66602 -10.667 -6.99902 -12s-9.33301 -2 -24 -2c-15.333 0 -23 0.333008 -23 1
c-2 0 -3.66699 2.66699 -5 8c0 5.33301 33.333 76 100 212c6.66699 13.333 10.334 20.333 11.001 21z" />
    <glyph glyph-name="eight" unicode="8" 
d="M404 665l43.999 -0.99707c23.333 -4.66699 42.666 -13 57.999 -25c12.667 -8.66699 22 -19 28 -31c14 -23.333 20 -48.666 18 -75.999c-6 -65.333 -47 -120.333 -123 -165l-11 -7l17 -14c22 -18.667 37 -36.667 45 -54c25.333 -49.333 23.333 -104 -6 -164
c-6 -12 -12.667 -23.667 -20 -35c-22.667 -33.333 -51.334 -60.333 -86.001 -81c-35.333 -20.667 -71.333 -32 -108 -34c-32 -0.666992 -61 5.66602 -87 18.999c-27.333 13.333 -47.666 33.666 -60.999 60.999c-9.33301 20.667 -13.666 43 -12.999 67
c0.666992 34 12 68 34 102c27.333 41.333 66.333 75.666 117 102.999c6.66699 3.33301 10.667 5.66602 12 6.99902s0.333008 3 -3 5c-12.667 10 -22.334 20 -29.001 30c-9.33301 14 -15.666 30 -18.999 48c-4 16 -4.66699 34 -2 54c4.66699 30 16.334 60 35.001 90
c20.667 29.333 45.667 53.333 75 72c24 14 49 23.333 75 28c2.66699 0.666992 6 1 10 1zM431.999 614.003c-6.66699 1.33301 -17.001 2 -31.001 2l-9 -2c-25.333 -4 -48.666 -16.667 -69.999 -38c-27.333 -28 -38 -57.667 -32 -89c2.66699 -10.667 7.33398 -20 14.001 -28
l78 -68c0.666992 0 4.33398 2 11.001 6c41.333 29.333 68.666 63.666 81.999 102.999c9.33301 26.667 9.66602 51 0.999023 73c-8 20.667 -22.667 34.334 -44 41.001zM341.998 271.003l-42 35.001c-1.33301 0 -4.66602 -1.66699 -9.99902 -5
c-54 -33.333 -89.667 -76.333 -107 -129c-4 -12.667 -6.66699 -25 -8 -37c-4 -40.667 8.33301 -70.667 37 -90c7.33301 -4.66699 15.666 -8.33398 24.999 -11.001c12 -3.33301 28 -3.66602 48 -0.999023c42.667 8.66699 77 31.667 103 69c24.667 36.667 30 71.667 16 105
c-4 9.33301 -9.66699 17.666 -17 24.999z" />
    <glyph glyph-name="nine" unicode="9" 
d="M402 665l24.0049 0.999023h1c17.333 -0.666992 32.666 -4 45.999 -10c32.667 -13.333 55 -39 67 -77c15.333 -44.667 17.333 -100.334 6 -167.001c-6 -40.667 -14.333 -78.334 -25 -113.001c-22.667 -80 -59.667 -150 -111 -210c-16.667 -19.333 -34 -36.666 -52 -51.999
c-36.667 -28 -71.334 -46 -104.001 -54c-44 -11.333 -81.667 -6.66602 -113 14.001c-6.66699 4.66699 -12.334 9.66699 -17.001 15c-6 8 -10.667 17.333 -14 28c-6.66699 21.333 -5.33398 43.666 3.99902 66.999c0.666992 2 1.33398 3.66699 2.00098 5
c11.333 22 29.333 34 54 36c21.333 1.33301 36 -6.33398 44 -23.001c2 -3.33301 3.33301 -8.66602 4 -15.999c0 -11.333 -2.33301 -21.666 -7 -30.999c-6 -12.667 -15.333 -22 -28 -28l-8 -4l4 -3c9.33301 -7.33301 23.666 -11 42.999 -11
c11.333 0 19.666 0.666992 24.999 2c38.667 10.667 72 37.334 100 80.001c10 16 19 34 27 54c9.33301 24 17 48 23 72l6 18l-6 -4c-14 -14 -30 -25.333 -48 -34c-26 -13.333 -53 -17.333 -81 -12c-38 4.66699 -66.667 27.667 -86 69c-20.667 44 -24.667 93.667 -12 149
c1.33301 3.33301 2.33301 7 3 11c14 56 40 104 78 144c50 50 100.333 78 151 84zM434.005 612.999c-7.33301 2.66699 -17.666 3.33398 -30.999 2.00098c-28 -2.66699 -52.333 -16.334 -73 -41.001c-9.33301 -12 -18 -31 -26 -57c-17.333 -52 -32.666 -112 -45.999 -180
c0 -2 -0.333008 -4 -1 -6c-2.66699 -20.667 -3 -34 -1 -40c6 -19.333 17.333 -31.333 34 -36c14 -2.66699 28 -2.33398 42 0.999023c43.333 12 77.666 58 102.999 138c5.33301 14 12.666 42.667 21.999 86c8 34.667 12 58.334 12 71.001c0 14 -2.33301 26 -7 36
c-6 13.333 -15.333 22 -28 26z" />
    <glyph glyph-name="colon" unicode=":" horiz-adv-x="307" 
d="M245 430c15.333 2.66699 29.001 0.666992 41.001 -6c21.333 -12 29.666 -31 24.999 -57c-3.33301 -14.667 -10.666 -28 -21.999 -40c-22.667 -24 -47.334 -32.333 -74.001 -25c-8 2.66699 -15.333 7 -22 13c-18 16.667 -21 38.667 -9 66c8.66699 18 22 31.667 40 41
c8 4 15 6.66699 21 8zM170.001 130c15.333 2.66699 29.001 0.666992 41.001 -6c21.333 -12 29.666 -31 24.999 -57c-3.33301 -14.667 -10.666 -28 -21.999 -40c-22.667 -24 -47.334 -32.333 -74.001 -25c-8 2.66699 -15.333 7 -22 13c-18 16.667 -21 38.667 -9 66
c8.66699 18 22 31.667 40 41c8 4 15 6.66699 21 8z" />
    <glyph glyph-name="semicolon" unicode=";" horiz-adv-x="307" 
d="M245 430c15.333 2.66699 29.001 0.666992 41.001 -6c21.333 -12 29.666 -31 24.999 -57c-3.33301 -14.667 -10.666 -28 -21.999 -40c-22.667 -24 -47.334 -32.333 -74.001 -25c-8 2.66699 -15.333 7 -22 13c-18 16.667 -21 38.667 -9 66c8.66699 18 22 31.667 40 41
c8 4 15 6.66699 21 8zM168.001 129c22 5.33301 38.666 1.33301 49.999 -12c16 -18 19.333 -48.333 10 -91c-12.667 -63.333 -41.667 -121.333 -87 -174c-6 -6.66699 -19.667 -20.667 -41 -42c-6.66699 -4.66699 -12.667 -4 -18 2c-1.33301 2 -3 4.33301 -5 7
c-6.66699 9.33301 -9.66699 15.333 -9 18c0 2 6 9 18 21c18.667 18.667 34.667 38 48 58c15.333 24.667 27.333 49 36 73c3.33301 8.66699 4.33301 13 3 13l-13 -2c-16 -0.666992 -30 3.33301 -42 12c-12 11.333 -17 26.666 -15 45.999
c4.66699 30.667 20.334 52.334 47.001 65.001c6 2.66699 12 4.66699 18 6z" />
    <glyph glyph-name="less" unicode="&#x3c;" horiz-adv-x="307" 
d="M262 499c15.333 2.66699 29.001 0.667969 41.001 -5.99902c9.33301 -4.66699 16.333 -11.667 21 -21c3.33301 -8.66699 5 -17.667 5 -27c-0.666992 -12 -4 -23.333 -10 -34c-16.667 -26.667 -39.334 -40.334 -68.001 -41.001c-13.333 -0.666992 -25 2.33301 -35 9
c-12.667 8.66699 -19.667 21.667 -21 39c0 10.667 1.66699 20.334 5 29.001c11.333 27.333 32 44.666 62 51.999zM201.001 292.001c2.66699 2.66699 16.001 3.33105 40.001 1.99805c4 0 6.33301 -0.333008 7 -1c2.66699 -2 3.33398 -8 2.00098 -18
c-1.33301 -13.333 -12.333 -83.333 -33 -210c-24.667 -148 -37.334 -223.333 -38.001 -226c-4.66699 -15.333 -13.334 -27.666 -26.001 -36.999c-25.333 -19.333 -50.333 -23.666 -75 -12.999c-14 6 -23.333 16 -28 30c-1.33301 4 -2 9.66699 -2 17l1 11l74 220
c50 147.333 75 221.333 75 222z" />
    <glyph glyph-name="equal" unicode="=" horiz-adv-x="767" 
d="M176 365c2 1.33301 100 2 294 2h291l5 -3c10.667 -5.33301 13.667 -13.333 9 -24c-1.33301 -4.66699 -4.33301 -8 -9 -10l-5 -3h-291c-193.333 0 -291.333 0.666992 -294 2c-11.333 4 -15 12 -11 24c2 5.33301 5.66699 9.33301 11 12zM126 170l4.99902 3h291
c194 0 292.333 -0.666992 295 -2c10 -4.66699 13.333 -12.667 10 -24c-1.33301 -5.33301 -4.66602 -9.33301 -9.99902 -12c-2.66699 -1.33301 -101 -2 -295 -2h-291l-5 3c-10.667 5.33301 -13.667 13.333 -9 24c1.33301 4.66699 4.33301 8 9 10z" />
    <glyph glyph-name="greater" unicode="&#x3e;" 
d="M364 499c15.333 2.66699 29.001 0.667969 41.001 -5.99902c9.33301 -4.66699 16.333 -11.667 21 -21c3.33301 -8.66699 5 -17.667 5 -27c-0.666992 -12 -4 -23.333 -10 -34c-16.667 -26.667 -39.334 -40.334 -68.001 -41.001c-13.333 -0.666992 -25 2.33301 -35 9
c-12.667 8.66699 -19.667 21.667 -21 39c0 10.667 1.66699 20.334 5 29.001c11.333 27.333 32 44.666 62 51.999zM307.001 292.001c14 4 26.3301 3.66797 36.9971 -0.999023c18 -7.33301 30 -22 36 -44c2 -6.66699 3 -15.334 3 -26.001c0 -10 -1 -19.667 -3 -29
c-5.33301 -22.667 -13.666 -42.667 -24.999 -60c-7.33301 -11.333 -25 -27.333 -53 -48l-40 -30c-49.333 -36.667 -78.666 -61 -87.999 -73c-26.667 -34.667 -35.334 -68.667 -26.001 -102c3.33301 -10.667 8.33301 -19.667 15 -27c12 -13.333 26.333 -20.333 43 -21
c34.667 -2 67.667 12.667 99 44c22 22 40 47.667 54 77l5 11l-6 3c-12 4 -20 10.667 -24 20c-8.66699 19.333 -4.66699 39 12 59c6 7.33301 13 13 21 17c18.667 8.66699 36.334 9 53.001 1c10 -6 16.333 -14.667 19 -26c0.666992 -8.66699 -0.333008 -18.334 -3 -29.001
c-17.333 -65.333 -49.666 -120.666 -96.999 -165.999l-14 -12c-47.333 -37.333 -95 -52 -143 -44c-10.667 1.33301 -20.667 4.33301 -30 9c-18.667 8 -33.667 20.667 -45 38c-10.667 16.667 -17.667 34.667 -21 54c-2.66699 18 -2 37.667 2 59
c10.667 47.333 34.334 88 71.001 122c11.333 10 37 29.333 77 58c45.333 34 68.666 52 69.999 54c5.33301 5.33301 10 14.666 14 27.999c4 16 4.66699 27.667 2 35l-2 4h-6c-21.333 -2.66699 -38.333 -15 -51 -37c-2.66699 -4 -4.66699 -8.33301 -6 -13
c-2.66699 -7.33301 -6 -11.333 -10 -12c-2.66699 -0.666992 -9 -1 -19 -1c-16.667 0 -26 2 -28 6c-0.666992 2.66699 0 6.66699 2 12c3.33301 12 9.33301 24.333 18 37c8 10.667 18.333 20.334 31 29.001c17.333 12.667 36 20.667 56 24z" />
    <glyph glyph-name="question" unicode="?" 
d="M413 715c20.667 2.66699 39.001 1.33105 55.001 -4.00195c26.667 -8 47 -22.667 61 -44c10.667 -16.667 17.667 -34.667 21 -54c2.66699 -18 2 -37.667 -2 -59c-10.667 -47.333 -34.334 -88 -71.001 -122c-11.333 -10 -37 -29.333 -77 -58
c-45.333 -34 -68.666 -52 -69.999 -54c-5.33301 -5.33301 -10 -14.333 -14 -27c-4 -16.667 -4.66699 -28.667 -2 -36l2 -4h6c21.333 2.66699 38.333 15 51 37c2.66699 4 4.66699 8.33301 6 13c2.66699 7.33301 6 11.333 10 12c2.66699 0.666992 9 1 19 1
c16.667 0 26 -2 28 -6c0.666992 -2.66699 0 -6.66699 -2 -12c-3.33301 -13.333 -9.33301 -25.333 -18 -36c-4 -5.33301 -8.66699 -10.666 -14 -15.999c-27.333 -27.333 -58.666 -40.666 -93.999 -39.999c-22 1.33301 -37.333 12 -46 32c-5.33301 10 -8 23.667 -8 41
c0 13.333 0.666992 23 2 29c5.33301 22.667 13.666 42.667 24.999 60c7.33301 11.333 25 27.666 53 48.999c6.66699 5.33301 20 15.333 40 30c49.333 35.333 78.666 59.333 87.999 72c26.667 34.667 35.334 68.667 26.001 102c-3.33301 10.667 -8.33301 19.667 -15 27
c-12 13.333 -26.333 20.333 -43 21c-34.667 2 -67.667 -12.667 -99 -44c-22 -22 -40 -47.667 -54 -77l-5 -11l6 -3c12 -4 20 -10.667 24 -20c8.66699 -19.333 4.66699 -39 -12 -59c-6 -7.33301 -13 -13 -21 -17c-18.667 -8.66699 -36.334 -9 -53.001 -1
c-10 6 -16.333 14.667 -19 26c-0.666992 8 0.333008 18 3 30c17.333 64.667 49.666 119.334 96.999 164.001c4.66699 4.66699 9.33398 9 14.001 13c32 24.667 66 39.667 102 45zM271.001 128.997c10 3.33301 21 3.00195 33 -0.998047c12 -4.66699 20 -10.334 24 -17.001
c6 -8 9.66699 -17.667 11 -29c0 -10.667 -1.66699 -20.334 -5 -29.001c-8 -20 -22.667 -35.333 -44 -46c-26.667 -12.667 -49.334 -10.667 -68.001 6c-5.33301 4 -9.33301 9 -12 15c-3.33301 8 -5 17 -5 27c0.666992 9.33301 2 16 4 20c8.66699 22 23.667 38 45 48
c6.66699 4 12.334 6 17.001 6z" />
    <glyph glyph-name="at" unicode="@" horiz-adv-x="767" 
d="M529 704c26.667 2 48.0068 1.33105 64.0068 -2.00195c40.667 -6 77 -21.667 109 -47c14.667 -13.333 26 -25 34 -35c30 -40 47.333 -87 52 -141c2.66699 -20 2.33398 -44 -0.999023 -72c-6.66699 -63.333 -24.334 -125 -53.001 -185l-15 -27
c-30.667 -50 -68.334 -74 -113.001 -72c-12.667 0.666992 -25.334 4 -38.001 10c-8.66699 4.66699 -15 9.33398 -19 14.001c-5.33301 5.33301 -9.33301 11 -12 17l-4 8l-7 -6c-25.333 -20 -52 -33.333 -80 -40c-6.66699 -1.33301 -16.334 -2 -29.001 -2
c-20.667 -0.666992 -40.667 3.66602 -60 12.999c-13.333 6.66699 -25 15 -35 25c-10 10.667 -18 22.667 -24 36c-12 23.333 -18.333 50 -19 80c0 26.667 3.33301 52.334 10 77.001c17.333 67.333 52.666 122 105.999 164c6.66699 6 13.667 11.333 21 16
c20 13.333 37.667 22 53 26c27.333 8.66699 50.333 11.667 69 9c46.667 -6 79 -34 97 -84l3 -9h19c16 0 24.667 -2 26 -6c0.666992 -1.33301 -10 -46.666 -32 -135.999c-22 -87.333 -33.333 -135.333 -34 -144c-0.666992 -13.333 2.33301 -20.333 9 -21h4
c13.333 2 24.666 9.66699 33.999 23c17.333 22.667 35 69 53 139c10 41.333 15 78 15 110c0 20 -0.333008 33 -1 39c-6 42.667 -20.333 79 -43 109c-40 52.667 -94.667 74.667 -164 66c-39.333 -5.33301 -79 -20.666 -119 -45.999c-66 -42.667 -117.333 -102 -154 -178
l-8 -18c-31.333 -74.667 -42 -144 -32 -208c11.333 -72 43.333 -122 96 -150c16 -8 33 -13.667 51 -17c40 -7.33301 96.667 -3 170 13c29.333 6.66699 63 17 101 31l12 5h31c22.667 0 35 -2 37 -6c0.666992 -2.66699 0.666992 -5 0 -7s-5.33398 -5 -14.001 -9
c-70 -36 -144 -59.333 -222 -70c-42.667 -6.66699 -80 -8.66699 -112 -6c-80 8 -138.333 46.333 -175 115c-2 3.33301 -3.66699 6.66602 -5 9.99902c-14 25.333 -23.333 56 -28 92c-2.66699 22.667 -2.66699 49 0 79v5c12 95.333 50.333 182.333 115 261
c23.333 25.333 42 44 56 56c65.333 56 133.666 88 204.999 96zM537.007 520.998c-11.333 4 -22.335 4.66699 -33.002 2c-26 -6 -52 -27.667 -78 -65c-36.667 -51.333 -56.667 -109 -60 -173c-2 -37.333 3.33301 -67 16 -89c8 -11.333 15.333 -18.333 22 -21
c11.333 -6.66699 27 -6.66699 47 0c30.667 10.667 59.334 35.667 86.001 75l5 7l23 92l23 93l-1 7c-3.33301 15.333 -6.66602 26.333 -9.99902 33c-10 20 -23.333 33 -40 39z" />
    <glyph glyph-name="A" unicode="A" horiz-adv-x="743" 
d="M526 714c2 1.33301 10.3311 2 24.998 2c16 0 25 -1.66699 27 -5c1.33301 -1.33301 7.66602 -109.666 18.999 -324.999c10.667 -214.667 16.667 -322.667 18 -324c2 -2 4 -3 6 -3c7.33301 -2 24.333 -3 51 -3c12.667 0 19.667 -0.666992 21 -2c4 -1.33301 6 -4.33301 6 -9
l-10 -39c-2.66699 -4 -9.33398 -5.66699 -20.001 -5h-17c-45.333 2.66699 -106 3 -182 1c-6.66699 -0.666992 -12.334 -1 -17.001 -1c-22 -0.666992 -34.333 1 -37 5c-1.33301 2 -0.666016 9.66699 2.00098 23c3.33301 14 6.33301 22.333 9 25c2 1.33301 7.33301 2 16 2
c27.333 0 46.333 2.66699 57 8l5 2v8l-4 62c-1.33301 36.667 -2.33301 55.667 -3 57v3h-102h-103l-28 -51c-19.333 -34.667 -29.666 -55 -30.999 -61c-3.33301 -11.333 4.66699 -19.666 24 -24.999c5.33301 -1.33301 11.333 -2.33301 18 -3c9.33301 0 15 -2.33301 17 -7
c0.666992 -3.33301 -0.666016 -11 -3.99902 -23c-2.66699 -12.667 -5.33398 -20.334 -8.00098 -23.001l-3 -3h-13c-59.333 3.33301 -119.333 3.66602 -180 0.999023c-14.667 -0.666992 -23 1 -25 5c-1.33301 2 -0.666016 9.66699 2.00098 23
c4 15.333 7.66699 23.666 11 24.999c2 0.666992 7 1.33398 15 2.00098c42.667 2 73.334 16.333 92.001 43c4 5.33301 61 108 171 308l167 302c2.66699 2 5.33398 3.66699 8.00098 5zM488.998 389c-5.33301 93.333 -8 140.333 -8 141v6l-79 -142l-78 -141l85 -1
c57.333 0 86 0.333008 86 1z" />
    <glyph glyph-name="B" unicode="B" horiz-adv-x="704" 
d="M221 680l3.00098 3h178c120.667 0 183.334 -0.333008 188.001 -1c33.333 -3.33301 61.666 -13 84.999 -29c14.667 -9.33301 26.667 -21 36 -35c10 -16.667 16.667 -32.667 20 -48c2.66699 -15.333 2.66699 -32 0 -50c-10.667 -56 -46.667 -100.667 -108 -134
c-3.33301 -2 -6.66602 -3.66699 -9.99902 -5c-12.667 -6.66699 -30 -13.667 -52 -21c-6.66699 -0.666992 -10 -1.66699 -10 -3c8.66699 0 20.667 -3.33301 36 -10c50 -19.333 79.667 -52.666 89 -99.999c1.33301 -8 2 -16.333 2 -25c0 -47.333 -21 -93 -63 -137l-4 -4
c-36.667 -36.667 -80.334 -61.334 -131.001 -74.001c-16 -4 -45 -6 -87 -6c2.66699 0 -44 -0.333008 -140 -1c-129.333 0 -195.333 1 -198 3c-0.666992 0 -1.33398 1.33301 -2.00098 4c-1.33301 2 -0.333008 9.66699 3 23c3.33301 14 6 21.667 8 23l3 3h32
c30.667 0.666992 48 2 52 4c3.33301 2 6 6 8 12c4.66699 13.333 27.667 103.333 69 270c46 184 69 276.667 69 278c0 2 -0.666992 3 -2 3c-4 1.33301 -19.667 2.66602 -47 3.99902c-23.333 0 -36.333 2.33301 -39 7c-0.666992 2 0.333008 9.66699 3 23
c3.33301 12.667 6.33301 20.334 9 23.001zM567.001 626c-3.33301 0.666992 -29.334 1 -78.001 1c-49.333 0 -77 -0.666992 -83 -2c-3.33301 -1.33301 -5.33301 -2.66602 -6 -3.99902l-32 -122l-30 -120h70c47.333 0 74 0.666992 80 2c41.333 8.66699 75 32.667 101 72
c28.667 42.667 37.334 84 26.001 124c-7.33301 27.333 -23.333 43.666 -48 48.999zM504 331c-4 0.666992 -35 1 -93 1h-85l-33 -135c-22.667 -89.333 -34 -135.333 -34 -138c0 -1.33301 2.66699 -2 8 -2c2 -0.666992 30 -1 84 -1l77 1l9 2c48 14 83.667 44.667 107 92
c10 20.667 16.333 42.667 19 66c4.66699 47.333 -6.33301 81.333 -33 102c-8 6 -16.667 10 -26 12z" />
    <glyph glyph-name="C" unicode="C" horiz-adv-x="716" 
d="M546 704l20.9961 0.999023h1c58.667 0 104.334 -21.333 137.001 -64c4.66699 -7.33301 7.33398 -11 8.00098 -11l38 37l38 38h8c8.66699 0 13.667 -2 15 -6c0.666992 -1.33301 -10.333 -48.666 -33 -141.999c-24 -96 -36 -143 -36 -141
c-1.33301 -4 -10.666 -6 -27.999 -6h-21l-3 3c-2.66699 2.66699 -3.33398 8.66699 -2.00098 18c5.33301 34.667 6.33301 67.667 3 99c-7.33301 65.333 -33 104 -77 116c-6 1.33301 -15.333 2 -28 2c-24.667 0.666992 -50.667 -3.33301 -78 -12
c-32.667 -10.667 -62 -26.667 -88 -48c-59.333 -45.333 -103.333 -117.666 -132 -216.999c-18 -66 -27 -120.333 -27 -163c0 -30.667 4 -56.334 12 -77.001c17.333 -45.333 50 -75 98 -89c4.66699 -1.33301 9.33398 -2.33301 14.001 -3
c63.333 -13.333 121 5.33398 173 56.001c38.667 40 66.667 88.667 84 146c3.33301 11.333 6.66602 17.333 9.99902 18c2 0.666992 8.66699 1 20 1c16.667 0 26 -2 28 -6c0.666992 -2.66699 0 -7.33398 -2 -14.001c-22 -80 -65.667 -145.667 -131 -197
c-18.667 -14.667 -38.334 -27 -59.001 -37c-41.333 -19.333 -82.666 -28.666 -123.999 -27.999c-28.667 0.666992 -56.667 6.66699 -84 18c-45.333 17.333 -80.666 46.333 -105.999 87c-23.333 34.667 -37.666 75.667 -42.999 123c-2.66699 16.667 -3 40 -1 70
c0.666992 3.33301 1 6 1 8c8 74.667 34 145.667 78 213c13.333 18.667 25 34 35 46c18 22 40.333 44.333 67 67c68 55.333 139.333 86.666 214 93.999z" />
    <glyph glyph-name="D" unicode="D" horiz-adv-x="755" 
d="M220 680l2.99902 3.00195h178c120.667 0 183.334 -0.333008 188.001 -1c68 -6.66699 119 -41 153 -103c18 -32.667 28.667 -70 32 -112c2 -20.667 1.66699 -45.334 -1 -74.001c-12.667 -106 -57 -197.667 -133 -275c-8.66699 -9.33301 -17.667 -18 -27 -26
c-55.333 -49.333 -115.666 -79.333 -180.999 -90c-6 -0.666992 -70 -1.33398 -192 -2.00098c-122 0 -184 1 -186 3c-0.666992 0 -1.33398 1.33301 -2.00098 4c-1.33301 2 -0.333008 9.66699 3 23c3.33301 14 6 21.667 8 23l3 3h32c30.667 0.666992 48 2 52 4
c3.33301 2 6 6 8 12c4.66699 13.333 27.667 103.333 69 270c46 184 69 276.667 69 278c0 2 -0.666992 3 -2 3c-4 1.33301 -19.667 2.66602 -47 3.99902c-23.333 0 -36.333 2.33301 -39 7c-0.666992 2 0.333008 9.66699 3 23c3.33301 12.667 6.33301 20.334 9 23.001z
M543.999 626.002l-126.999 0.00195312c-9.33301 -0.666992 -14.333 -2.33398 -15 -5.00098l-141 -561c0 -2 2.66699 -3 8 -3c2 -0.666992 25.667 -1 71 -1c43.333 0.666992 69 1.66699 77 3c63.333 11.333 115 43 155 95c24 31.333 44.333 75.333 61 132
c15.333 54.667 25.333 97.667 30 129c12.667 70.667 5.66699 123.667 -21 159c-22.667 29.333 -55.334 46.666 -98.001 51.999z" />
    <glyph glyph-name="E" unicode="E" horiz-adv-x="678" 
d="M221 678c1.33301 1.33301 87.6621 2.00293 258.995 2.00293h256l4 -3c2 -2.66699 3 -5.33398 3 -8.00098l-33 -233l-4 -4c-1.33301 -1.33301 -8.66602 -2 -21.999 -2c-14 0 -22 0.666992 -24 2c-3.33301 2 -4.33301 11 -3 27c4 27.333 6 50.666 6 69.999
c0 28.667 -3.66699 48.334 -11 59.001c-7.33301 12 -20.666 21 -39.999 27c-22 6 -66 9 -132 9c-48 -0.666992 -73 -2.33398 -75 -5.00098c-0.666992 -0.666992 -11.334 -40.334 -32.001 -119.001l-29 -118c0 -0.666992 14.667 -1 44 -1c36.667 0.666992 60.334 3 71.001 7
c20 6.66699 34.667 20.334 44 41.001c4.66699 10 9.66699 25 15 45c3.33301 12.667 6 19.667 8 21l3 3h20c16 0 25.333 -2.33301 28 -7c0.666992 -2.66699 -10 -49 -32 -139c-23.333 -91.333 -35.333 -137.333 -36 -138c-1.33301 -4 -10.333 -6 -27 -6h-20l-4 3
c-2.66699 3.33301 -2.33398 12.666 0.999023 27.999c4.66699 21.333 7 38 7 50l-2 13c-3.33301 9.33301 -11.666 15.666 -24.999 18.999c-11.333 2.66699 -35 4 -71 4h-38l-33 -131c-22 -88.667 -33 -133.334 -33 -134.001c0 -2 2 -3 6 -3h149c54 4 95.667 18.333 125 43
c28.667 24.667 58.334 78 89.001 160c4 10.667 7.33301 17.334 10 20.001l3 3h21h21l3 -3c2.66699 -2.66699 2.66699 -8 0 -16c-3.33301 -10.667 -19.333 -52.667 -48 -126c-34.667 -89.333 -52 -133.666 -52 -132.999c-1.33301 -2.66699 -11.666 -4 -30.999 -4
c-21.333 -0.666992 -101 -1 -239 -1h-263l-4 3c-2 3.33301 -3 6 -3 8c0 10.667 3.33301 23.667 10 39c8 4 20.667 6 38 6c30 0.666992 47 2 51 4c3.33301 2 6 6 8 12c4.66699 12.667 27.667 103 69 271c46 184 68.667 276 68 276c-3.33301 3.33301 -23.666 5 -60.999 5h-20
l-4 3c-3.33301 4 -3 13.333 1 28c4 14 7.33301 21.667 10 23z" />
    <glyph glyph-name="F" unicode="F" horiz-adv-x="653" 
d="M219 677l2.99805 3.00293h251h251l4 -3c2 -2.66699 3 -5.33398 3 -8.00098l-33 -233l-4 -4c-1.33301 -1.33301 -8.66602 -2 -21.999 -2c-14 0 -22 0.666992 -24 2c-3.33301 2 -4.33301 9.33301 -3 22v5c7.33301 52 8.33301 89 3 111
c-2.66699 10.667 -7 19.334 -13 26.001c-10.667 12 -29 20 -55 24c-16 2.66699 -51 4 -105 4c-44.667 -0.666992 -68 -2.33398 -70 -5.00098c-1.33301 -0.666992 -12.333 -42.334 -33 -125.001s-31 -124.334 -31 -125.001c0 -2.66699 27.333 -2.66699 82 0
c6 0 10 0.333008 12 1c26.667 6 45.667 19.667 57 41c6 12 12 29 18 51c2 8.66699 4 15 6 19c2 2.66699 10.667 4 26 4s24 -2.33301 26 -7l2 -3l-34 -135c-21.333 -88.667 -33 -135 -35 -139c-1.33301 -4 -10.333 -6 -27 -6c-15.333 0 -24 2.33301 -26 7
c-1.33301 2 -1 8 1 18c5.33301 20.667 8 37.667 8 51c0.666992 12.667 -1.33301 21.334 -6 26.001c-4.66699 6 -12.667 10 -24 12c-5.33301 1.33301 -23.666 2.33301 -54.999 3h-45l-31 -124c-21.333 -85.333 -32 -127 -32 -125c-0.666992 -2 4 -3.66699 14 -5
c10.667 -0.666992 28.667 -1.33398 54 -2.00098h39l3 -4c2 -2 3 -4 3 -6l-10 -39v-1c-2 -4 -8.33301 -5.66699 -19 -5h-27c-59.333 2.66699 -130.333 3 -213 1c-8 -0.666992 -14.333 -1 -19 -1c-22 -0.666992 -34.333 1.33301 -37 6c-1.33301 2 -0.333008 9.66699 3 23
c3.33301 14 6 21.667 8 23l3 3h32c30.667 0.666992 48 2 52 4c3.33301 2 6 6 8 12c4.66699 12.667 27.667 103 69 271c46 184 68.667 276 68 276c-3.33301 3.33301 -23.333 5 -60 5c-16 0 -25 2.33301 -27 7c-1.33301 2 -0.333008 9.66699 3 23c3.33301 14 6 21.667 8 23z
" />
    <glyph glyph-name="G" unicode="G" horiz-adv-x="774" 
d="M546 704l20.9971 0.999023h1c58.667 0 104.334 -21.333 137.001 -64c4.66699 -7.33301 7.33398 -11 8.00098 -11l38 37l38 38h8c8.66699 0 13.667 -2 15 -6c0.666992 -1.33301 -10.333 -48.666 -33 -141.999c-24 -96 -36 -143 -36 -141
c-1.33301 -4 -10.666 -6 -27.999 -6h-21l-3 3c-2.66699 2.66699 -3.33398 8.66699 -2.00098 18c5.33301 34.667 6.33301 67.667 3 99c-7.33301 65.333 -33 104 -77 116c-6 1.33301 -15.333 2 -28 2c-24.667 0.666992 -50.667 -3.33301 -78 -12
c-32.667 -10.667 -62 -26.667 -88 -48c-59.333 -45.333 -103.333 -117.666 -132 -216.999c-18 -66 -27 -120.333 -27 -163c0 -30.667 4 -56.334 12 -77.001c17.333 -45.333 50 -75 98 -89c4.66699 -1.33301 9.33398 -2.33301 14.001 -3c55.333 -12 103 -1.66699 143 31
c14 11.333 24 24.333 30 39c17.333 69.333 26 103.333 26 102c0 1.33301 -5.66699 2.66602 -17 3.99902l-47 2c-24 0 -37.333 0.666992 -40 2c-4 1.33301 -6 4.33301 -6 9l10 39c2.66699 4 9.66699 5.66699 21 5h21c108 -2.66699 183 -2.33398 225 0.999023h9l3 -3
c2.66699 -2.66699 4 -5 4 -7l-9 -39c-1.33301 -4.66699 -8.33301 -7 -21 -7c-21.333 0 -34.666 -1 -39.999 -3c-1.33301 -0.666992 -3 -2 -5 -4c-0.666992 -1.33301 -9.66699 -35.666 -27 -102.999c-16.667 -67.333 -25.667 -101.666 -27 -102.999
c-2.66699 -4 -5.66699 -5.33301 -9 -4c-8 2.66699 -21.333 14 -40 34c-2.66699 2.66699 -4.66699 5 -6 7l-6 7l-8 -8c-35.333 -31.333 -80.333 -51 -135 -59c-22.667 -3.33301 -48.334 -3.66602 -77.001 -0.999023c-56 9.33301 -101.333 32.333 -136 69
c-16 16 -29.333 34.667 -40 56c-16 30 -26 63.667 -30 101c-2.66699 16.667 -3 40 -1 70c0.666992 3.33301 1 6 1 8c8 74.667 34 145.667 78 213c13.333 18.667 25 34 35 46c18 22 40.333 44.333 67 67c68 55.333 139.333 86.666 214 93.999z" />
    <glyph glyph-name="H" unicode="H" horiz-adv-x="743" 
d="M220 680l3.00195 2.99902h13c58.667 -2.66699 121.334 -3.33398 188.001 -2.00098c46.667 1.33301 69.667 2 69 2h10l3 -3c2.66699 -2.66699 4 -5 4 -7l-9 -40c-8.66699 -4 -21.334 -6 -38.001 -6c-28.667 -0.666992 -46 -2 -52 -4l-5 -3l-1 -1
c-1.33301 -1.33301 -12 -41.333 -32 -120l-29 -116h123l123 1l30 117c19.333 77.333 29 117 29 119s-0.666992 3 -2 3c-4 1.33301 -19.667 2.66602 -47 3.99902c-23.333 0 -36.333 2.33301 -39 7c-0.666992 2 0.333008 9.66699 3 23c3.33301 12.667 6.33301 20.334 9 23.001
l3 3h13c58.667 -2.66699 121.334 -3.33398 188.001 -2.00098c46.667 1.33301 69.667 2 69 2h10l3 -3c2.66699 -2.66699 4 -5 4 -7l-9 -40c-8.66699 -4 -21.334 -6 -38.001 -6c-28.667 -0.666992 -46 -2 -52 -4l-5 -3l-1 -1c-2 -2 -26 -95.333 -72 -280
c-46 -185.333 -68.667 -278 -68 -278c3.33301 -3.33301 23.666 -5 60.999 -5h20l4 -3c2 -3.33301 3 -6 3 -8c0 -10.667 -3.33301 -23.667 -10 -39c-2 -4 -9 -5.66699 -21 -5h-17c-99.333 2.66699 -178 2.33398 -236 -0.999023h-11l-3 3
c-2.66699 2.66699 -4 5.33398 -4 8.00098c0 10.667 3.33301 23.667 10 39c8 4 20.667 6 38 6c30 0.666992 47 2 51 4s7.66699 8 11 18l30 118l32 130c0 0.666992 -41 1 -123 1h-123l-33 -133c-22 -88.667 -32.667 -133 -32 -133c3.33301 -3.33301 23.666 -5 60.999 -5h20
l4 -3c2 -2.66699 3 -5.33398 3 -8.00098c0 -10.667 -3.33301 -23.667 -10 -39c-2 -4 -9 -5.66699 -21 -5h-17c-99.333 2.66699 -178 2.33398 -236 -0.999023h-11l-3 3c-2.66699 2.66699 -4 5.33398 -4 8.00098c0 10.667 3.33301 23.667 10 39c8 4 20.667 6 38 6
c30 0.666992 47 2 51 4c3.33301 2 6 6 8 12c4.66699 13.333 27.667 103.333 69 270c46 184 69 276.667 69 278c0 2 -0.666992 3 -2 3c-4 1.33301 -19.667 2.66602 -47 3.99902c-23.333 0 -36.333 2.33301 -39 7c-0.666992 2 0.333008 9.66699 3 23
c3.33301 12.667 6.33301 20.334 9 23.001z" />
    <glyph glyph-name="I" unicode="I" horiz-adv-x="386" 
d="M215 682c1.33301 0.666992 6.99707 0.996094 16.9971 0.996094c76.667 -3.33301 158 -3.66602 244 -0.999023c20.667 0.666992 32.334 -1 35.001 -5c1.33301 -2 0.666016 -9.66699 -2.00098 -23c-3.33301 -15.333 -6.66602 -23.666 -9.99902 -24.999s-15 -2 -35 -2
c-31.333 -0.666992 -49.666 -2.33398 -54.999 -5.00098c-3.33301 -1.33301 -5.66602 -3.66602 -6.99902 -6.99902c-3.33301 -9.33301 -27 -101.333 -71 -276c-46 -184.667 -68.667 -277.334 -68 -278.001c1.33301 -3.33301 22.666 -5 63.999 -5h22l4 -3
c2 -2.66699 3 -5 3 -7l-9 -40c-2 -4 -9 -5.66699 -21 -5h-19c-104 2.66699 -185.333 2.33398 -244 -0.999023h-12l-3 3c-2.66699 2.66699 -4 5 -4 7l9 40c2 4 11.333 6 28 6h12c35.333 0.666992 55.666 3.33398 60.999 8.00098
c0.666992 0.666992 24.334 93.334 71.001 278.001c46 184 69 276.667 69 278c0 0.666992 -0.666992 1.66699 -2 3c-3.33301 2 -20.666 3.33301 -51.999 4h-32l-4 4c-3.33301 3.33301 -3 12.333 1 27c4 14 7.33301 22 10 24z" />
    <glyph glyph-name="J" unicode="J" horiz-adv-x="525" 
d="M331 682c1.33301 0.666992 7.66602 0.999023 18.999 0.999023c90 -3.33301 170.333 -3.66602 241 -0.999023c17.333 0.666992 27.333 -1.33301 30 -6c0.666992 -2 -0.666016 -9.66699 -3.99902 -23c-2.66699 -12.667 -5.33398 -20.334 -8.00098 -23.001l-3 -3h-16
c-23.333 0 -38.333 -1.33301 -45 -4c-2.66699 -0.666992 -4.66699 -2.33398 -6 -5.00098s-22 -84 -62 -244c-40 -161.333 -61.333 -244.666 -64 -249.999c-20 -52.667 -57.333 -93 -112 -121c-11.333 -5.33301 -22.666 -10 -33.999 -14c-54 -18 -101.333 -15.667 -142 7
c-2.66699 1.33301 -5 2.66602 -7 3.99902c-18.667 12 -32 26.333 -40 43c-6 12 -9 26.333 -9 43c0 12.667 0.333008 21 1 25c5.33301 22 16 38.667 32 50c24.667 16.667 48 19.334 70 8.00098c7.33301 -3.33301 13 -8.33301 17 -15c4.66699 -7.33301 7 -16 7 -26
c0 -10.667 -2.66699 -21.667 -8 -33c-10.667 -20 -27 -33.333 -49 -40c-2 -0.666992 -1 -2.66699 3 -6c14.667 -16 35.334 -24 62.001 -24c28.667 0 56 18.333 82 55c9.33301 13.333 17 28 23 44l122 485c2 6.66699 3 10.334 3 11.001c0 4 -23.333 6.33301 -70 7h-40l-3 3
c-4 2.66699 -4 12 0 28c3.33301 14 6.66602 22 9.99902 24z" />
    <glyph glyph-name="K" unicode="K" horiz-adv-x="769" 
d="M220 680l2.99902 3.00098h13c58.667 -2.66699 121.334 -3.33398 188.001 -2.00098c46.667 1.33301 69.667 2 69 2h10l3 -3c2.66699 -2.66699 4 -5 4 -7l-9 -40c-8.66699 -4 -21.334 -6 -38.001 -6c-28.667 -0.666992 -46 -2 -52 -4l-5 -3l-1 -1
c-2 -2 -14.667 -50.667 -38 -146c-24 -94.667 -36 -142.667 -36 -144l308 264c0 0.666992 1.66699 2.66699 5 6c4 4.66699 6 9.33398 6 14.001c0 2.66699 -0.666992 5 -2 7c-4 4 -10.333 6.33301 -19 7c-8 0 -13 2.33301 -15 7c-0.666992 2 0.333008 9.66699 3 23
c3.33301 12.667 6.33301 20.334 9 23.001l3 3h15c72 -3.33301 135.667 -3.66602 191 -0.999023c13.333 0.666992 21 -1.33301 23 -6c1.33301 -2 0.333008 -9.66699 -3 -23c-4 -15.333 -7.33301 -23.333 -10 -24c-2 -0.666992 -7.33301 -1.33398 -16 -2.00098
c-47.333 -2 -86.333 -15 -117 -39c-7.33301 -5.33301 -11.333 -8.33301 -12 -9l-187 -160l-3 -3l60 -169c38.667 -112.667 59 -170 61 -172c4 -6.66699 8.66699 -11 14 -13c8 -3.33301 22.333 -5.33301 43 -6c15.333 0 24.333 -2.33301 27 -7
c0.666992 -2 -0.333008 -9.66699 -3 -23c-3.33301 -12.667 -6.33301 -20.334 -9 -23.001l-3 -3h-12c-54 2.66699 -122.333 3 -205 1c-21.333 -0.666992 -33.333 1.33301 -36 6c-0.666992 2 0.333008 9.66699 3 23c4 15.333 8 23.333 12 24
c1.33301 0.666992 6 1.33398 14 2.00098c24.667 0.666992 37.334 7 38.001 19c0 3.33301 -15.333 48.666 -46 135.999l-46 130l-112 -96l-45 -184c3.33301 -3.33301 23.333 -5 60 -5c16 0 25 -2.33301 27 -7c1.33301 -2 0.333008 -9.66699 -3 -23
c-4 -14 -6.66699 -21.667 -8 -23l-3 -3h-15c-69.333 3.33301 -148.333 3.66602 -237 0.999023c-20 -0.666992 -31.333 1.33301 -34 6c-1.33301 2 -0.333008 9.66699 3 23c3.33301 14 6 21.667 8 23l3 3h32c30.667 0.666992 48 2 52 4c3.33301 2 6 6 8 12
c4.66699 13.333 27.667 103.333 69 270c46 184 69 276.667 69 278c0 2 -0.666992 3 -2 3c-4 1.33301 -19.667 2.66602 -47 3.99902c-23.333 0 -36.333 2.33301 -39 7c-0.666992 2 0.333008 9.66699 3 23c3.33301 12.667 6.33301 20.334 9 23.001z" />
    <glyph glyph-name="L" unicode="L" horiz-adv-x="627" 
d="M220 680l3.00098 3h15c68.667 -3.33301 153.667 -3.66602 255 -0.999023c24 0.666992 37.333 -1.33301 40 -6c0.666992 -2 -0.333008 -9.66699 -3 -23c-4 -13.333 -6.66699 -21 -8 -23l-3 -3h-40c-43.333 -0.666992 -68 -3.66699 -74 -9
c-2 -1.33301 -26 -94.666 -72 -279.999c-46 -184 -69 -277 -69 -279c0 -1.33301 2 -2 6 -2h106c35.333 4 67 16 95 36c15.333 10.667 27.666 22.667 36.999 36c20.667 27.333 40.334 68.666 59.001 123.999c6.66699 17.333 11 26.666 13 27.999s9.66699 2 23 2
s20.666 -0.666992 21.999 -2c4 -1.33301 6 -4.33301 6 -9l-92 -267c-1.33301 -2.66699 -11 -4 -29 -4c-19.333 -0.666992 -91 -1 -215 -1h-237l-4 3c-2 3.33301 -3 6 -3 8c0 10.667 3.33301 23.667 10 39c8 4 20.667 6 38 6c30 0.666992 47 2 51 4c3.33301 2 6 6 8 12
c4.66699 13.333 27.667 103.333 69 270c46 184 69 276.667 69 278c0 2 -0.666992 3 -2 3c-4 1.33301 -19.667 2.66602 -47 3.99902c-23.333 0 -36.333 2.33301 -39 7c-0.666992 2 0.333008 9.66699 3 23c3.33301 12.667 6.33301 20.334 9 23.001z" />
    <glyph glyph-name="M" unicode="M" horiz-adv-x="897" 
d="M222 680l3.00684 3.00195h103c70.667 0 107.334 -2 110.001 -6c0.666992 -0.666992 8.66699 -90 24 -268c14.667 -178.667 22 -267.334 22 -266.001l153 262c102.667 176 154.667 265 156 267c2.66699 4 5.66699 6.66699 9 8l5 3h101h100l4 -3c2 -2.66699 3 -5 3 -7
l-9 -40c-8.66699 -4 -21.334 -6 -38.001 -6c-28.667 -0.666992 -46 -2 -52 -4l-5 -3l-1 -1c-2 -2 -26 -95.333 -72 -280c-46 -185.333 -68.667 -278 -68 -278c3.33301 -3.33301 23.333 -5 60 -5c16 0 25 -2.33301 27 -7c1.33301 -2 0.333008 -9.66699 -3 -23
c-2.66699 -12.667 -5.33398 -20.334 -8.00098 -23.001l-3 -3h-15c-67.333 3.33301 -143.666 3.66602 -228.999 0.999023c-20 -0.666992 -31.333 1.33301 -34 6c-1.33301 2 -0.333008 9.66699 3 23c3.33301 12.667 5.66602 20.334 6.99902 23.001l4 3h31
c31.333 0.666992 49 2 53 4c3.33301 2 6 6.33301 8 13c4.66699 12.667 27 99.334 67 260.001c44 178.667 66 267.334 66 266.001c-0.666992 0 -58 -98 -172 -294c-115.333 -197.333 -173.333 -296.333 -174 -297l-7 -6c-2.66699 -1.33301 -10.334 -2 -23.001 -2
c-16 0 -24.667 2 -26 6c-1.33301 3.33301 -10 101.333 -26 294l-24 292l-63 -252c-42 -166 -63 -251.333 -63 -256c0 -4 0.333008 -6.33301 1 -7c5.33301 -14 26.666 -21 63.999 -21c9.33301 0 14.666 -2.33301 15.999 -7c1.33301 -2 0.333008 -9.66699 -3 -23
c-2.66699 -12.667 -5.33398 -20.334 -8.00098 -23.001l-3 -3h-13c-60.667 3.33301 -126.334 3.66602 -197.001 0.999023c-16.667 -0.666992 -26.334 1.33301 -29.001 6c-1.33301 2 -0.333008 9.66699 3 23s6 21 8 23s6.33301 3 13 3c47.333 0 76.333 11 87 33l133 531
c0 2 -0.666992 3 -2 3c-4 1.33301 -19.667 2.66602 -47 3.99902c-23.333 0 -36.333 2.33301 -39 7c-0.666992 2 0.333008 9.66699 3 23c3.33301 12.667 6.33301 20.334 9 23.001z" />
    <glyph glyph-name="N" unicode="N" horiz-adv-x="743" 
d="M220 680l3.00098 2.99805h95h95l3 -3c2 -1.33301 3.66699 -3.66602 5 -6.99902l84 -238c56 -156.667 84 -235.334 84 -236.001s0.666992 0.333008 2 3c2.66699 8.66699 19 73 49 193c34 136 50.333 206.333 49 211c0 0.666992 -1 2 -3 4
c-7.33301 11.333 -27.666 17 -60.999 17c-9.33301 0 -15 2.33301 -17 7c-0.666992 2.66699 0.333008 10.334 3 23.001c3.33301 12.667 6.33301 20.334 9 23.001l3 3h11c39.333 -2.66699 91.333 -3.33398 156 -2.00098l58 2h8l3 -3c2.66699 -2.66699 4 -5 4 -7l-9 -40
c-2.66699 -4 -10.667 -6 -24 -6c-22 -0.666992 -40.667 -4.66699 -56 -12c-10 -4.66699 -17.333 -11.334 -22 -20.001c-2 -3.33301 -27 -101.666 -75 -294.999c-49.333 -197.333 -74 -295 -74 -293c-0.666992 -1.33301 -2 -3 -4 -5c-2 -1.33301 -10.333 -2 -25 -2h-22l-3 3
c-2 1.33301 -35 92 -99 272c-68 192 -101.333 286.333 -100 283l-5 14l-61 -241c-40 -160.667 -60 -242.667 -60 -246c0 -4.66699 0.333008 -7.33398 1 -8.00098c5.33301 -14 26.666 -21 63.999 -21h10l4 -3c2 -2.66699 3 -5.33398 3 -8.00098
c0 -10.667 -3.33301 -23.667 -10 -39c-2 -4 -8 -5.66699 -18 -5h-15c-83.333 2.66699 -148.666 2.33398 -195.999 -0.999023h-9l-3 3c-2.66699 2.66699 -4 5.33398 -4 8.00098c0 10.667 3.33301 23.667 10 39c1.33301 4 6.66602 6 15.999 6c30 0 52.667 5 68 15
c6.66699 3.33301 12 8.33301 16 15c2 3.33301 25.333 94 70 272c44 178 65.667 267 65 267l-41 2c-28.667 0 -44.334 2.33301 -47.001 7c-0.666992 2 0.333008 9.66699 3 23c3.33301 12.667 6.33301 20.334 9 23.001z" />
    <glyph glyph-name="O" unicode="O" horiz-adv-x="767" 
d="M540 704c18 2 36.334 1.33398 55.001 -1.99902c64 -9.33301 113.667 -41 149 -95c12 -18.667 20.333 -35.667 25 -51c12 -32 18.333 -66.333 19 -103c0.666992 -51.333 -8 -103 -26 -155c-24.667 -74 -65.667 -140 -123 -198c-52 -51.333 -108 -86.666 -168 -105.999
c-86.667 -28.667 -161.334 -20.334 -224.001 24.999c-9.33301 6.66699 -18 14 -26 22c-54.667 54.667 -78.334 130 -71.001 226c4.66699 59.333 21.667 118.666 51 177.999c42.667 84.667 101 151 175 199c52.667 34.667 107.334 54.667 164.001 60zM567.001 653.001
c-31.333 4.66699 -63.334 -1.33496 -96.001 -18.002c-58 -27.333 -105 -77.666 -141 -150.999c-18 -36.667 -33.333 -80.667 -46 -132c-14 -58.667 -21 -108 -21 -148c0 -41.333 6.33301 -75.666 19 -102.999c22.667 -46.667 57.667 -70.667 105 -72
c6 0 12.333 0.333008 19 1c58.667 6.66699 112.334 43 161.001 109c18 24 33.667 50.667 47 80c32 71.333 53 146.333 63 225c2.66699 25.333 2.66699 51 0 77v4c-7.33301 40 -21 70.667 -41 92c-18 20 -41 32 -69 36z" />
    <glyph glyph-name="P" unicode="P" horiz-adv-x="678" 
d="M220 680l3 2.99902h171c117.333 0 178 -0.333008 182 -1c57.333 -6 100 -29.333 128 -70c30.667 -48 32.667 -102 6 -162c-4 -8.66699 -8.33301 -17 -13 -25c-20.667 -32.667 -47 -60 -79 -82c-41.333 -28.667 -85.666 -45.667 -132.999 -51c-4 -0.666992 -33 -1 -87 -1
h-77l-28 -115c-20 -76.667 -29.333 -115 -28 -115c3.33301 -3.33301 23.666 -5 60.999 -5h20l4 -3c2 -2.66699 3 -5.33398 3 -8.00098c0 -10.667 -3.33301 -23.667 -10 -39c-2 -4 -9 -5.66699 -21 -5h-17c-99.333 2.66699 -178 2.33398 -236 -0.999023h-11l-3 3
c-2.66699 2.66699 -4 5.33398 -4 8.00098c0 10.667 3.33301 23.667 10 39c8 4 20.667 6 38 6c30 0.666992 47 2 51 4c3.33301 2 6 6 8 12c4.66699 13.333 27.667 103.333 69 270c46 184 69 276.667 69 278c0 2 -0.666992 3 -2 3c-4 1.33301 -19.667 2.66602 -47 3.99902
c-23.333 0 -36.333 2.33301 -39 7c-0.666992 2 0.333008 9.66699 3 23c3.33301 12.667 6.33301 20.334 9 23.001zM551 623.999c-7.33301 1.33301 -31 2.33301 -71 3c-42 0 -66 -0.666992 -72 -2c-3.33301 -1.33301 -5.33301 -2.66602 -6 -3.99902
c-0.666992 -0.666992 -12.667 -47 -36 -139c-23.333 -91.333 -35 -137.333 -35 -138c0 -1.33301 20.333 -2 61 -2c44 0 68.333 0.333008 73 1c48 4 83 21.333 105 52c10.667 16 21.667 45.667 33 89c8 32 12 56.333 12 73c0.666992 18.667 -4.33301 33.667 -15 45
c-12 11.333 -28.333 18.666 -49 21.999z" />
    <glyph glyph-name="Q" unicode="Q" horiz-adv-x="767" 
d="M540 704c18 2 36.3359 1.33398 55.0029 -1.99902c64 -9.33301 113.667 -41 149 -95c12 -18.667 20.333 -35.667 25 -51c6.66699 -16.667 12.334 -39 17.001 -67c3.33301 -26 3.66602 -51 0.999023 -75c-6 -82.667 -34 -160.667 -84 -234
c-47.333 -72 -107 -126.667 -179 -164l-15 -7l2 -9c3.33301 -28 10.333 -48.333 21 -61c9.33301 -9.33301 22.333 -14 39 -14c33.333 0 61.333 14 84 42c7.33301 9.33301 12.666 19 15.999 29s7.66602 15 12.999 15c6 0 9.66699 -3 11 -9c0 -4.66699 -3.33301 -17 -10 -37
c-30.667 -97.333 -75 -150 -133 -158c-13.333 -2.66699 -26.333 -2 -39 2c-20 5.33301 -34 16.666 -42 33.999c-7.33301 14.667 -11 34.334 -11 59.001c0 14.667 1.66699 36 5 64l2 26l-11 -3c-82.667 -22.667 -153.334 -12 -212.001 32c-8 6 -15.667 12.667 -23 20
c-54.667 54.667 -78.334 130 -71.001 226c4.66699 59.333 21.667 118.666 51 177.999c42.667 84.667 101 151 175 199c52.667 34.667 107.334 54.667 164.001 60zM564.003 654.001c-50.667 6.66699 -101.999 -13.667 -153.999 -61c-10 -9.33301 -19.667 -19.333 -29 -30
c-40 -48 -71.333 -110.667 -94 -188c-13.333 -49.333 -22 -91 -26 -125c-11.333 -84 2.66699 -146 42 -186l8 -7v5c2 15.333 8.66699 31.333 20 48c16.667 24 38.667 39.667 66 47c5.33301 1.33301 13.333 2 24 2c22 0 39.667 -6.33301 53 -19c5.33301 -6 10 -12.667 14 -20
c3.33301 -6.66699 5.66602 -12.667 6.99902 -18c4.66699 -14 7 -24.333 7 -31c0 -1.33301 0.333008 -2 1 -2c2 0 11 7.33301 27 22c22.667 20.667 43.667 47 63 79c13.333 22 25 46 35 72c26 66 42.667 134 50 204c2.66699 20 2.66699 42 0 66
c-4.66699 46 -19.667 82 -45 108c-20 18.667 -43 30 -69 34zM437.004 110c-13.333 4 -24.667 4.33398 -34 1.00098c-9.33301 -2.66699 -18 -8 -26 -16c-12 -12 -18 -25 -18 -39c0 -8 2.66699 -15.333 8 -22c4.66699 -4 12.667 -6 24 -6c22 0 44.333 5 67 15l12 5v9
c-0.666992 16.667 -5 30 -13 40c-4 5.33301 -10.667 9.66602 -20 12.999z" />
    <glyph glyph-name="R" unicode="R" horiz-adv-x="729" 
d="M220 680l2.99902 2.99902h161l162 -1l14 -2c44 -6.66699 79.333 -21.667 106 -45c26.667 -21.333 43 -48.666 49 -81.999c2.66699 -18 2 -36 -2 -54c-11.333 -47.333 -43.666 -89 -96.999 -125c-22 -14 -45 -25.333 -69 -34c-5.33301 -2.66699 -8.33301 -4 -9 -4l8 -8
c14 -11.333 26 -26.333 36 -45c7.33301 -17.333 11.333 -34.666 12 -51.999c0 -14 -2 -37.667 -6 -71c-3.33301 -33.333 -5 -59.333 -5 -78c0 -16 0.666992 -26.333 2 -31c4 -14.667 14.333 -23.334 31 -26.001c8.66699 0 15.667 2.33301 21 7c10 6.66699 19.333 25 28 55
c2.66699 10 6.33398 15.667 11.001 17c2.66699 0.666992 9.33398 1 20.001 1c14 0 22.333 -1.66699 25 -5s2 -10.666 -2 -21.999c-16.667 -49.333 -42.667 -81 -78 -95c-4.66699 -2 -9.33398 -3.33301 -14.001 -4s-13 -1 -25 -1c-68.667 3.33301 -112.667 25 -132 65
c-5.33301 10 -8.33301 23 -9 39c0 12.667 0.333008 20.667 1 24l14 62c11.333 45.333 16.333 74 15 86c-2.66699 31.333 -16.667 51.666 -42 60.999l-7 3h-59h-58l-1 -4c0 1.33301 -10.667 -41.334 -32 -128.001c-20.667 -83.333 -30.667 -125 -30 -125
c3.33301 -3.33301 23.666 -5 60.999 -5h20l4 -3c2 -2.66699 3 -5.33398 3 -8.00098c0 -10.667 -3.33301 -23.667 -10 -39c-2 -4 -8.66699 -5.66699 -20 -5h-17c-100 2.66699 -178 2.33398 -234 -0.999023h-11l-3 3c-2.66699 2.66699 -4 5.33398 -4 8.00098
c0 10.667 3.33301 23.667 10 39c8 4 20.667 6 38 6c30 0.666992 47 2 51 4c3.33301 2 6 6 8 12c4.66699 13.333 27.667 103.333 69 270c46 184 69 276.667 69 278c0 2 -0.666992 3 -2 3c-4 1.33301 -19.667 2.66602 -47 3.99902c-23.333 0 -36.333 2.33301 -39 7
c-0.666992 2 0.333008 9.66699 3 23c3.33301 12.667 6.33301 20.334 9 23.001zM530.999 624.999c-4 0.666992 -24.332 1.33203 -60.999 1.99902c-35.333 0 -56 -0.666992 -62 -2c-3.33301 -1.33301 -5.33301 -2.66602 -6 -3.99902l-65 -256h58
c45.333 0.666992 75 2.66699 89 6c38.667 8.66699 67 27.667 85 57c8.66699 14.667 17 38.667 25 72c6 24.667 9 43.667 9 57c0 18 -5.33301 32.333 -16 43c-6.66699 6.66699 -12.667 11 -18 13c-8.66699 4.66699 -21.334 8.66699 -38.001 12z" />
    <glyph glyph-name="S" unicode="S" horiz-adv-x="562" 
d="M407 703c20 3.33301 40.666 2.66797 61.999 -1.99902c20 -4 37.667 -11 53 -21c8 -5.33301 17.333 -14 28 -26c2 -3.33301 3.33301 -5.33301 4 -6l27 28c18.667 18.667 28.334 28 29.001 28c0 0.666992 3 1 9 1c7.33301 0 12 -2 14 -6
c0.666992 -2.66699 -8.66602 -42.667 -27.999 -120c-20 -78.667 -30.667 -118.667 -32 -120l-3 -3h-21c-17.333 0 -26.666 1.66699 -27.999 5c-0.666992 2.66699 -0.333984 8.33398 0.999023 17.001c10.667 70 2 119 -26 147c-15.333 16 -37.333 25 -66 27
c-32.667 0.666992 -62.334 -12.333 -89.001 -39c-14 -14 -24.667 -28.333 -32 -43c-12 -25.333 -17.667 -49.666 -17 -72.999c0.666992 -15.333 3.33398 -27.333 8.00098 -36c6.66699 -14 16 -24 28 -30c1.33301 -0.666992 22.666 -7.33398 63.999 -20.001
c46 -13.333 73.333 -22.666 82 -27.999c42.667 -24.667 64.667 -67.667 66 -129c0.666992 -48.667 -13 -97.334 -41 -146.001c-21.333 -38 -50.333 -69.333 -87 -94c-25.333 -16.667 -51.666 -27.667 -78.999 -33c-6.66699 -1.33301 -17.667 -2 -33 -2
c-22.667 0 -42 2 -58 6c-32.667 8.66699 -59 23.334 -79 44.001l-8 8l-27 -28l-29 -30l-10 -1h-1c-5.33301 0 -9 1 -11 3s-3 3.66699 -3 5c0 2 19.333 80.333 58 235c4.66699 4 14 6 28 6h21l3 -3c2.66699 -2.66699 3 -9.33398 1 -20.001c0 -1.33301 -0.333008 -3 -1 -5
c-8 -39.333 -6 -72.333 6 -99c14 -34.667 43.333 -55.667 88 -63c19.333 -3.33301 34.666 -4 45.999 -2c35.333 6 66 29.667 92 71c10 16 17.667 33 23 51c4 14.667 6 31 6 49c0 17.333 -2 30.666 -6 39.999c-6.66699 16.667 -16.667 28 -30 34
c-4.66699 2.66699 -26.334 9.66699 -65.001 21c-40 11.333 -63.667 18.666 -71 21.999c-13.333 6.66699 -25.666 15.667 -36.999 27c-29.333 30.667 -42 70.667 -38 120c4 48 21.667 93.667 53 137c16.667 20.667 34.334 38 53.001 52c33.333 25.333 67.666 40 102.999 44z
" />
    <glyph glyph-name="T" unicode="T" horiz-adv-x="716" 
d="M248 675l1.99902 2.00195h274c184 0 277.667 -2 281 -6c1.33301 -3.33301 -4.66699 -43.333 -18 -120c-14.667 -78.667 -22 -118.334 -22 -119.001c-2 -3.33301 -11 -5 -27 -5s-24.667 2 -26 6c-1.33301 2.66699 -0.666016 12.667 2.00098 30c10 56.667 12.667 95 8 115
c-0.666992 8 -4.66699 15 -12 21c-6 6 -14.667 11 -26 15c-14 4.66699 -36.333 7 -67 7c-31.333 0 -48.333 -2 -51 -6l-138 -553c5.33301 -3.33301 31 -5.33301 77 -6c30.667 0 47.334 -2.33301 50.001 -7c0.666992 -2 -0.333008 -9.66699 -3 -23
c-3.33301 -12.667 -6.33301 -20.334 -9 -23.001l-3 -3h-18c-86.667 3.33301 -188 3.66602 -304 0.999023c-26 -0.666992 -40.333 1.33301 -43 6c-0.666992 2 0.333008 9.66699 3 23c3.33301 12.667 6.33301 20.334 9 23.001l3 3h29c43.333 0 70.333 1 81 3
c7.33301 2 11.333 3 12 3c3.33301 1.33301 5.66602 3.33301 6.99902 6c4.66699 10 28.334 101.667 71.001 275c46 184 68.667 276 68 276c-2 1.33301 -19.667 2 -53 2c-24 -0.666992 -38.667 -1.66699 -44 -3c-16 -2.66699 -29.667 -7 -41 -13
c-12 -6 -21.667 -12.667 -29 -20c-16.667 -16.667 -35.334 -56.334 -56.001 -119.001c-8 -22 -12 -33.333 -12 -34c-2.66699 -3.33301 -11.667 -5 -27 -5c-16 0 -24.667 2 -26 6c-1.33301 2.66699 -2 4.33398 -2 5.00098l76 232c0 2 1.33301 3.66699 4 5z" />
    <glyph glyph-name="U" unicode="U" horiz-adv-x="743" 
d="M220 680l2.99609 3h13c58.667 -2.66699 121.334 -3.33398 188.001 -2.00098c46.667 1.33301 69.667 2 69 2h10l3 -3c2.66699 -2.66699 4 -5 4 -7l-9 -40c-8.66699 -4 -21.334 -6 -38.001 -6c-28.667 -0.666992 -46 -2 -52 -4l-5 -3l-1 -1
c-1.33301 -1.33301 -19.666 -72 -54.999 -212c-35.333 -141.333 -54.666 -221.666 -57.999 -240.999c-6 -43.333 0 -76 18 -98c22 -28.667 57.333 -39.334 106 -32.001c10.667 2 21 4.66699 31 8c69.333 21.333 118 73.666 146 156.999c1.33301 4 19 72 53 204
c32 129.333 47.333 196.333 46 201c0 0.666992 -1 2 -3 4c-7.33301 11.333 -27.666 17 -60.999 17c-9.33301 0 -15 2.33301 -17 7c-0.666992 2.66699 0.333008 10.334 3 23.001c3.33301 12.667 6.33301 20.334 9 23.001l3 3h11c38.667 -2.66699 90 -3.33398 154 -2.00098
l57 2h8l3 -3c2.66699 -2.66699 4 -5 4 -7l-9 -40c-2.66699 -4 -10.667 -6 -24 -6c-22 -0.666992 -40.667 -4.66699 -56 -12c-10 -4.66699 -17.333 -11.334 -22 -20.001c-2.66699 -4 -19.334 -68.333 -50.001 -193c-31.333 -123.333 -48.333 -189.333 -51 -198
c-24 -74.667 -67.333 -134 -130 -178c-43.333 -30.667 -87.666 -46.667 -132.999 -48c-59.333 -2 -108 16.333 -146 55c-2.66699 2.66699 -5 5.33398 -7 8.00098c-39.333 47.333 -52.666 104 -39.999 170c2 12.667 19.333 82.334 52 209.001c32.667 132 49 198.667 49 200
c0 2 -0.666992 3 -2 3c-4 1.33301 -19.667 2.66602 -47 3.99902c-23.333 0 -36.333 2.33301 -39 7c-0.666992 2 0.333008 9.66699 3 23c3.33301 12.667 6.33301 20.334 9 23.001z" />
    <glyph glyph-name="V" unicode="V" horiz-adv-x="743" 
d="M215 680l3.00391 3.00293h12c37.333 -2.66699 93 -3.33398 167 -2.00098c46.667 1.33301 69.667 2 69 2h10l3 -3c2.66699 -2.66699 4 -5.33398 4 -8.00098c0 -10.667 -3.33301 -23.667 -10 -39c-1.33301 -4 -10 -6 -26 -6c-14.667 -1.33301 -24.667 -2 -30 -2
c-12.667 -2.66699 -20 -5 -22 -7c-0.666992 -0.666992 5.33301 -79.667 18 -237c12.667 -164.667 19 -243.667 19 -237l261 450c2.66699 9.33301 1.66699 16.333 -3 21c-6.66699 7.33301 -18.667 11.333 -36 12c-7.33301 0 -12 1.33301 -14 4
c-2.66699 2.66699 -2.33398 11.334 0.999023 26.001s6.66602 23 9.99902 25c2 0.666992 11.667 0.666992 29 0c78 -2.66699 135.667 -2.33398 173 0.999023c5.33301 0 9 -1 11 -3c4 -2.66699 4 -12 0 -28c-4 -12.667 -6.33301 -19.334 -7 -20.001
c-2 -3.33301 -8.33301 -5 -19 -5c-28 -2 -50.333 -8.33301 -67 -19c-8.66699 -6 -15.334 -12.667 -20.001 -20c-0.666992 -0.666992 -2.33398 -2.66699 -5.00098 -6c4.66699 10 -53 -89.333 -173 -298l-174 -299c-4.66699 -4.66699 -15.667 -7 -33 -7
c-14.667 0 -23 0.666992 -25 2l-4 4c-1.33301 1.33301 -10 107.333 -26 318c-17.333 215.333 -26 321.333 -26 318c-2 4 -17.667 6.33301 -47 7c-20.667 0 -32 2.33301 -34 7c-1.33301 2 -0.333008 9.66699 3 23c4 14 6.66699 21.667 8 23z" />
    <glyph glyph-name="W" unicode="W" horiz-adv-x="999" 
d="M216 682c1.33301 0.666992 5.99805 1 13.998 1c41.333 -2.66699 95 -3.33398 161 -2.00098c46.667 1.33301 69.667 2 69 2h10l3 -3c2.66699 -2.66699 4 -5 4 -7l-9 -40c-2.66699 -4 -12 -6 -28 -6c-14.667 -1.33301 -24.667 -2 -30 -2c-13.333 -2.66699 -21 -5 -23 -7
c-1.33301 -0.666992 1 -76 7 -226l8 -225l103 191l103 192l-2 35c-1.33301 24 -2 36.333 -2 37c-3.33301 3.33301 -20.333 5 -51 5h-17l-3 3c-4 2.66699 -4 12 0 28c4 12.667 6.33301 19.334 7 20.001c2 3.33301 10.333 4.66602 25 3.99902h7
c84 -2.66699 155.333 -2.33398 214 0.999023h11l3 -3c2.66699 -2.66699 4 -5 4 -7l-9 -40c-2.66699 -4 -11.667 -6 -27 -6c-27.333 -1.33301 -45 -4.33301 -53 -9l-3 -1l9 -223l8 -225c0 -1.33301 7.66699 12.334 23 41.001l91 168
c77.333 144.667 115.666 216.334 114.999 215.001c2 6 1.66699 11 -1 15c-9.33301 11.333 -27.666 17.666 -54.999 18.999c-4 0 -7 1 -9 3c-4 2.66699 -4 11.334 0 26.001c2 10 4 17 6 21s9 5.66699 21 5h17c48.667 -2.66699 98.334 -3 149.001 -1
c4.66699 0.666992 8.33398 1 11.001 1c14.667 0.666992 23.667 -1.33301 27 -6l1 -3l-5 -20c-2.66699 -12.667 -5.33398 -20.334 -8.00098 -23.001c-2 -2 -5.33301 -3 -10 -3c-21.333 0 -39.333 -3.66699 -54 -11c-13.333 -6 -24.666 -15.667 -33.999 -29
c-4.66699 -10 -59 -111 -163 -303c-107.333 -199.333 -161.333 -299 -162 -299c-4 -4.66699 -14.333 -7 -31 -7c-17.333 0 -26.666 2 -27.999 6c-0.666992 0.666992 -4 77 -10 229c-4.66699 150.667 -7.66699 227 -9 229c0 1.33301 -1 0.333008 -3 -3
c-4.66699 -7.33301 -44.667 -81.333 -120 -222l-125 -232c-4.66699 -4.66699 -15.334 -7 -32.001 -7c-14.667 0 -23 0.666992 -25 2c-1.33301 0.666992 -2.66602 2.33398 -3.99902 5.00098l-13 318c-7.33301 210.667 -11.333 316.667 -12 318
c-1.33301 1.33301 -3 2.33301 -5 3c-6 2 -21.333 3 -46 3h-17l-4 3c-2.66699 3.33301 -2.33398 12.333 0.999023 27c4 14.667 7.33301 23 10 25z" />
    <glyph glyph-name="X" unicode="X" horiz-adv-x="743" 
d="M232 681c2 1.33301 6.66992 2.00391 14.0029 2.00391c38.667 -2.66699 95.667 -3.33398 171 -2.00098c48 1.33301 71.667 2 71 2h10l3 -3c2.66699 -2.66699 4 -5 4 -7l-10 -39v-1c-1.33301 -4 -7.33301 -6 -18 -6l-19 -3l-27 -8l57 -174l120 143
c4.66699 5.33301 7 8.33301 7 9c2.66699 5.33301 4 9.66602 4 12.999c-2 9.33301 -11.333 15.666 -28 18.999c-3.33301 0.666992 -6.66602 1 -9.99902 1c-4 0 -7 1 -9 3c-2.66699 3.33301 -2.33398 12.333 0.999023 27s6.66602 23 9.99902 25
c2 0.666992 13.333 0.666992 34 0c48.667 -2.66699 103.667 -3 165 -1c5.33301 0.666992 9.66602 1 12.999 1c17.333 0.666992 27.333 -1.33301 30 -6c0.666992 -2 -0.333008 -9.66699 -3 -23c-4 -13.333 -6.66699 -21 -8 -23l-3 -3h-18c-44.667 -2 -79 -11.667 -103 -29
c-11.333 -8.66699 -45.666 -47.667 -102.999 -117c-54 -64 -80.333 -95.333 -79 -94c-0.666992 -1.33301 16.333 -55.333 51 -162c34.667 -104 53 -158 55 -162c2 -2 5 -3 9 -3c9.33301 -2.66699 28.333 -4 57 -4h20l4 -3c2 -3.33301 3 -6 3 -8
c0 -10.667 -3.33301 -23.667 -10 -39c-2 -4 -8.33301 -5.66699 -19 -5h-17c-45.333 2.66699 -106.333 3 -183 1c-6.66699 -0.666992 -12.334 -1 -17.001 -1c-22.667 -0.666992 -35.667 1.33301 -39 6l-1 3l5 20c3.33301 15.333 7 23.666 11 24.999
c1.33301 0 5 0.333008 11 1c14 1.33301 27.333 4 40 8l8 3l-36 109l-36 110l-81 -97c-54.667 -65.333 -82.334 -99 -83.001 -101c-6.66699 -11.333 -2.66699 -20.666 12 -27.999c5.33301 -2 11.666 -3.33301 18.999 -4c8 0 13 -2.33301 15 -7
c0.666992 -3.33301 -0.666016 -11 -3.99902 -23c-2.66699 -12.667 -5.33398 -20.334 -8.00098 -23.001l-3 -3h-12c-55.333 2.66699 -109.333 3.33398 -162 2.00098c-34 -1.33301 -51.333 -2 -52 -2h-8l-3 3c-2.66699 2.66699 -4 5 -4 7l9 40c2.66699 4 10.667 6 24 6
c36 2 65.333 8.66699 88 20c10 5.33301 19.667 12.666 29 21.999c12.667 12.667 48 54.334 106 125.001c65.333 77.333 98 116.666 98 117.999l-90 277c-2.66699 5.33301 -21.667 8.33301 -57 9c-22 0 -34 2 -36 6c-1.33301 2 -0.666016 9.66699 2.00098 23
c3.33301 14 6.33301 22.333 9 25z" />
    <glyph glyph-name="Y" unicode="Y" horiz-adv-x="743" 
d="M208 680l2.99805 3.00195h12c40 -2.66699 97.333 -3.33398 172 -2.00098c48 1.33301 71.667 2 71 2h10l3 -3c2.66699 -2.66699 4 -5 4 -7l-10 -39v-1c-1.33301 -4 -9.66602 -6 -24.999 -6l-24 -2c-7.33301 -1.33301 -13 -3 -17 -5
c-0.666992 -0.666992 12 -46.334 38 -137.001l40 -137l194 246c9.33301 15.333 9 25.333 -1 30c-5.33301 3.33301 -13.333 5 -24 5c-4 0 -7 1 -9 3c-4 2.66699 -4 12 0 28c4 12.667 6.33301 19.334 7 20.001c2 3.33301 10.333 4.66602 25 3.99902h7
c76.667 -2.66699 135.334 -2.33398 176.001 0.999023c5.33301 0 9 -0.666992 11 -2c4 -4 4 -13 0 -27c-2 -10 -4 -17 -6 -21s-7 -6 -15 -6c-20.667 0 -41 -3.33301 -61 -10c-19.333 -6.66699 -36.333 -17.667 -51 -33c-6 -6 -48.667 -59.667 -128 -161l-118 -150l-26 -102
c-17.333 -69.333 -26 -104.333 -26 -105c-0.666992 -4 1 -6.33301 5 -7c6 -2 24.667 -3 56 -3c15.333 0 24.333 -2.33301 27 -7c0.666992 -2.66699 -0.333008 -10.334 -3 -23.001c-3.33301 -12.667 -6.33301 -20.334 -9 -23.001l-3 -3h-13
c-58.667 2.66699 -120.334 3.33398 -185.001 2.00098c-46.667 -1.33301 -69.667 -2 -69 -2h-10l-3 3c-2.66699 2.66699 -4 5.33398 -4 8.00098c0 10.667 3.33301 23.667 10 39c8 4 20.667 6 38 6c28.667 0.666992 45.667 2 51 4c4.66699 2 8 6 10 12l26 104l24 98l-49 172
c-33.333 114 -51.666 172.667 -54.999 176c0 0.666992 -2 1.33398 -6 2.00098c-8 2 -26.333 3 -55 3c-15.333 0 -24 2.33301 -26 7c-1.33301 2 -0.333008 9.66699 3 23c4 14 6.66699 21.667 8 23z" />
    <glyph glyph-name="Z" unicode="Z" horiz-adv-x="613" 
d="M274 681c1.33301 1.33301 72.6641 1.99902 213.997 1.99902h211l2 -2c3.33301 -2.66699 3 -10.667 -1 -24l-4 -14l-238 -290c-156.667 -191.333 -236.667 -288.666 -240 -291.999c-0.666992 -0.666992 0 -1 2 -1c3.33301 -0.666992 24.666 -1 63.999 -1
c48 0.666992 74 1.33398 78 2.00098c57.333 8.66699 100 31 128 67c18.667 24.667 38 68 58 130c4.66699 18 7.66699 27.667 9 29c2 3.33301 11 5 27 5h20l4 -3c2 -2.66699 3 -5 3 -7l-83 -275c-0.666992 -1.33301 -2 -3 -4 -5c-2 -1.33301 -75.667 -2 -221 -2
s-218.666 0.666992 -219.999 2c-2.66699 2 -2.66699 9.33301 0 22l5 18c-2 -2 78 95.333 240 292c158.667 194 238.334 291.333 239.001 292s-1.33301 1 -6 1h-56c-50 -0.666992 -83.333 -3 -100 -7c-29.333 -8 -53.666 -20.333 -72.999 -37
c-29.333 -24 -52.666 -65.333 -69.999 -124c-4 -13.333 -7 -21 -9 -23l-3 -3h-21h-21l-3 3c-0.666992 0.666992 -2 2.66699 -4 6c0 3.33301 11 42.666 33 117.999c23.333 77.333 35.333 116.333 36 117c0 2.66699 1.33301 4 4 4z" />
    <glyph glyph-name="bracketleft" unicode="[" horiz-adv-x="307" 
d="M321 747l2.99902 3.00098h57c38 0 58 -0.666992 60 -2c2 -2 3.33301 -3.66699 4 -5c0.666992 -2 0.333984 -7 -0.999023 -15c-2 -7.33301 -4.33301 -12.333 -7 -15l-3 -3h-42h-42l-1 -4c0 1.33301 -38 -151.334 -114 -458.001c-76.667 -303.333 -115 -455.333 -115 -456
c0 -1.33301 13 -2 39 -2s40 -0.666992 42 -2c2 -2 3.33301 -3.66699 4 -5c0.666992 -2 0.333984 -7 -0.999023 -15c-2 -7.33301 -4.33301 -12.333 -7 -15l-3 -3h-57c-38 0 -58 0.666992 -60 2c-2 2 -3.33301 3.66699 -4 5c-0.666992 2.66699 39.666 167.667 120.999 495
c82 328 124.333 493 127 495z" />
    <glyph glyph-name="backslash" unicode="\" horiz-adv-x="514" 
d="M362 690c6 4 10.667 5 14 3l19 -26c1.33301 -3.33301 -2 -8.66602 -10 -15.999c-50.667 -41.333 -85.667 -90 -105 -146l-3 -11l8 3c12 4 24 4.66699 36 2c26 -6 39 -22.667 39 -50c0 -28 -12 -50 -36 -66c-2.66699 -2 -5.66699 -3.66699 -9 -5
c-10.667 -5.33301 -22.334 -8 -35.001 -8c-9.33301 0 -15.666 0.666992 -18.999 2c-24 8 -37 29.667 -39 65c-0.666992 20 3.33301 44.333 12 73c18 53.333 47 100.666 87 141.999c12 13.333 25.667 26 41 38zM569 690c6 4 10.667 5 14 3l19 -26
c1.33301 -3.33301 -2 -8.66602 -10 -15.999c-50.667 -41.333 -85.667 -90 -105 -146l-3 -11l8 3c12 4 24 4.66699 36 2c26 -6 39 -22.667 39 -50c0 -28 -12 -50 -36 -66c-2.66699 -2 -5.66699 -3.66699 -9 -5c-10.667 -5.33301 -22.334 -8 -35.001 -8
c-9.33301 0 -15.666 0.666992 -18.999 2c-24 8 -37 29.667 -39 65c-0.666992 20 3.33301 44.333 12 73c18 53.333 47 100.666 87 141.999c12 13.333 25.667 26 41 38z" />
    <glyph glyph-name="bracketright" unicode="]" horiz-adv-x="307" 
d="M236 747l3.00098 2.99902h57c38 0 58 -0.666992 60 -2c2 -2 3.33301 -3.66699 4 -5c0.666992 -2.66699 -39.666 -167.667 -120.999 -495c-82 -328 -124.333 -493 -127 -495l-3 -3h-57c-38 0 -58 0.666992 -60 2c-2 2 -3.33301 3.66699 -4 5
c-0.666992 2 -0.333984 7 0.999023 15c2 7.33301 4.33301 12.333 7 15l3 3h42h42l1 4c0 -1.33301 38 151.334 114 458.001c76.667 303.333 115 455.333 115 456c0 1.33301 -13 2 -39 2s-40 0.666992 -42 2c-2 2 -3.33301 3.66699 -4 5c-0.666992 2 -0.333984 7 0.999023 15
c2 7.33301 4.33301 12.333 7 15z" />
    <glyph glyph-name="asciicircum" unicode="^" 
d="M422 693c3.33301 2.66699 7.00098 1.99805 11.001 -2.00195l98 -131c0.666992 -2 0.666992 -5 0 -9l-33 -28h-1c-3.33301 -3.33301 -7.33301 -3.33301 -12 0c-2.66699 1.33301 -15.334 17 -38.001 47c-24 29.333 -36.333 44 -37 44c0 0.666992 -18 -13.333 -54 -42
c-36 -27.333 -55.667 -42.666 -59 -45.999c-7.33301 -4.66699 -13 -6 -17 -4l-22 30c-0.666992 0.666992 -1 1.33398 -1 2.00098c0 2.66699 0.333008 4.66699 1 6c1.33301 2 28.333 24.333 81 67c51.333 42 79 64 83 66z" />
    <glyph glyph-name="underscore" unicode="_" horiz-adv-x="307" 
d="M304 667c25.333 6 44.6689 -0.329102 58.002 -18.9961c3.33301 -4 5.66602 -8.66699 6.99902 -14c8 -24.667 1 -48.334 -21 -71.001c-4.66699 -4 -9.33398 -7.66699 -14.001 -11c-27.333 -18.667 -52 -20.334 -74 -5.00098c-2 1.33301 -4 3 -6 5
c-18.667 17.333 -22 39.666 -10 66.999c4.66699 9.33301 11 18 19 26c11.333 11.333 25 18.666 41 21.999z" />
    <glyph glyph-name="grave" unicode="`" horiz-adv-x="307" 
d="M331 689c5.33301 4.66699 10 5.99902 14 3.99902l19 -26c1.33301 -3.33301 -2 -8.66602 -10 -15.999c-50.667 -41.333 -85.667 -90 -105 -146l-3 -11l8 3c12 4 24 4.66699 36 2c26 -6 39 -22.667 39 -50c0 -28 -12 -50 -36 -66c-2.66699 -2 -5.66699 -3.66699 -9 -5
c-10.667 -5.33301 -22.334 -8 -35.001 -8c-9.33301 0 -15.666 0.666992 -18.999 2c-24 8 -37 29.667 -39 65c-0.666992 20 3.33301 44.333 12 73c17.333 52.667 47 101 89 145c22.667 20.667 35.667 32 39 34z" />
    <glyph glyph-name="a" unicode="a" 
d="M320 441l19.999 1.00098h1c14.667 -0.666992 27.667 -4 39 -10c11.333 -5.33301 21.333 -12.666 30 -21.999l8 -8l6 5c16 15.333 33.333 19.333 52 12c9.33301 -3.33301 15.666 -9 18.999 -17c2.66699 -7.33301 2 -20.333 -2 -39
c-3.33301 -14.667 -13.666 -56 -30.999 -124c-24 -97.333 -36.333 -148 -37 -152c-2.66699 -18.667 -3 -31.667 -1 -39c1.33301 -3.33301 3.33301 -6 6 -8c2 -2 5 -3 9 -3c4.66699 0 8.33398 0.666992 11.001 2c12.667 9.33301 25.667 39.666 39 90.999
c3.33301 12.667 6 19.667 8 21c1.33301 1.33301 9.33301 2 24 2s23 -0.666992 25 -2c1.33301 -1.33301 2 -4 2 -8s-1.66699 -12 -5 -24c-24.667 -84 -59.667 -127.333 -105 -130c-34 -2 -61.333 9.66699 -82 35c-3.33301 4 -6.33301 8.33301 -9 13
c-1.33301 4 -2.33301 6 -3 6l-7 -6c-23.333 -20.667 -46.333 -34.334 -69 -41.001c-43.333 -14.667 -82.333 -8 -117 20c-4 3.33301 -7.66699 7 -11 11c-10 10 -18.333 22 -25 36c-20 40.667 -24 88.334 -12 143.001c15.333 72.667 50 132.667 104 180
c36 31.333 73.667 49.666 113 54.999zM340.999 394.001c-27.333 4.66699 -53.668 -8.33301 -79.001 -39c-6.66699 -8.66699 -12.667 -18 -18 -28c-10 -19.333 -22 -57.333 -36 -114c-8.66699 -32 -15 -60 -19 -84c-2.66699 -22.667 -2.66699 -40 0 -52
c6.66699 -23.333 19.667 -36.666 39 -39.999c11.333 -2 25 0.333008 41 7c24 13.333 46.667 35.666 68 66.999l5 7l25 99l25 100l-2 8c-6 38 -21 60.667 -45 68c-1.33301 0.666992 -2.66602 1 -3.99902 1z" />
    <glyph glyph-name="b" unicode="b" horiz-adv-x="460" 
d="M228 688c52 4 77.665 6 76.998 6c6 0 10 -2.33301 12 -7c0.666992 -2.66699 -10.333 -49.334 -33 -140.001l-34 -137l10 6c29.333 18 57.333 26.667 84 26c42.667 -2 75.334 -20.333 98.001 -55c10.667 -16 19 -35 25 -57c6.66699 -34 6 -68.667 -2 -104
c-10 -52 -31.667 -98.667 -65 -140c-14 -18 -28.667 -33 -44 -45c-29.333 -24.667 -61.666 -41 -96.999 -49c-6 -1.33301 -15.333 -2 -28 -2s-22.334 0.666992 -29.001 2c-14 3.33301 -27.667 9.66602 -41 18.999c-16.667 12 -29.334 27 -38.001 45
c-9.33301 19.333 -15.666 40.333 -18.999 63c-2 18 -1.66699 39.667 1 65c1.33301 10 19.333 84.333 54 223c34 136 49.667 206.667 47 212c-4.66699 4.66699 -19 7.33398 -43 8.00098c-16 0 -25.333 2.33301 -28 7l-1 3l5 20c2.66699 12.667 5.33398 20.334 8.00098 23.001
c2 2 4 3 6 3zM346.998 392c-6 2.66699 -15.667 3.33496 -29 2.00195c-19.333 -5.33301 -39 -18.333 -59 -39c-10.667 -10.667 -20.667 -23.334 -30 -38.001c-1.33301 -1.33301 -7.66602 -23 -18.999 -65l-19 -77c-13.333 -62.667 -9.66602 -104 11.001 -124
c6 -6.66699 13.333 -11 22 -13c21.333 -6 43.666 1.66699 66.999 23c21.333 18 38.666 49.333 51.999 94c4.66699 15.333 10 35 16 59c14 56.667 21 95.667 21 117c0 14 -1.66699 25 -5 33c-4.66699 13.333 -14 22.666 -28 27.999z" />
    <glyph glyph-name="c" unicode="c" horiz-adv-x="460" 
d="M346 441c16 2 31.667 1.33496 47 -1.99805c40 -8 64.667 -29 74 -63c4 -12.667 4 -26 0 -40c-4.66699 -20.667 -15.667 -35.667 -33 -45c-24.667 -12.667 -45.334 -11.667 -62.001 3c-6.66699 6 -10.667 14 -12 24c-3.33301 18 3.33398 35.667 20.001 53
c3.33301 4 7 7 11 9l6 3l-4 3c-15.333 9.33301 -36 11.333 -62 6c-26 -8 -49 -23.333 -69 -46c-19.333 -23.333 -36 -62.333 -50 -117l-4 -14c-10.667 -44 -16 -76.667 -16 -98c0 -14 0.666992 -23.333 2 -28c6 -26.667 22 -43.334 48 -50.001c20 -5.33301 46.667 -3 80 7
c33.333 11.333 63.666 30.666 90.999 57.999c12 12 20.333 17.333 25 16l14 -14c9.33301 -10.667 13 -18.334 11 -23.001c-3.33301 -6 -14.666 -18 -33.999 -36c-38.667 -30 -84 -48.667 -136 -56c-23.333 -2.66699 -42 -3 -56 -1c-58.667 7.33301 -99.667 36.333 -123 87
c-4 8.66699 -7.33301 18 -10 28c-13.333 50.667 -7 105 19 163c16 34.667 37.333 65.334 64 92.001c25.333 25.333 51.666 44.333 78.999 57c26.667 13.333 53.334 21.333 80.001 24z" />
    <glyph glyph-name="d" unicode="d" 
d="M483 688c52 4 77.6641 5.99902 76.9971 5.99902c6 0 10 -2.33301 12 -7c0.666992 -2.66699 -23.333 -102 -72 -298l-76 -304c-1.33301 -15.333 -1.33301 -27.666 0 -36.999c1.33301 -3.33301 3.33301 -6 6 -8c2 -2 5 -3 9 -3c4.66699 0 8.33398 0.666992 11.001 2
c12.667 9.33301 25.667 39.666 39 90.999c3.33301 12.667 6 19.667 8 21c1.33301 1.33301 9.33301 2 24 2s23 -0.666992 25 -2c1.33301 -1.33301 2 -4 2 -8s-1.66699 -12 -5 -24c-24.667 -84 -59.667 -127.333 -105 -130c-34 -2 -61.333 9.66699 -82 35
c-3.33301 4 -6.33301 8.33301 -9 13c-1.33301 4 -2.33301 6 -3 6l-7 -6c-23.333 -20.667 -46.333 -34.334 -69 -41.001c-43.333 -14.667 -82.333 -8 -117 20c-4 3.33301 -7.66699 7 -11 11c-10 10 -18.333 22 -25 36c-16.667 34 -22 74.333 -16 121c10.667 76 43 140 97 192
c34.667 33.333 72.334 54.333 113.001 63c6 1.33301 15.333 2 28 2c16.667 0 31 -2.66699 43 -8c9.33301 -4.66699 18 -11 26 -19c5.33301 -5.33301 8 -7.33301 8 -6c0.666992 0.666992 9 32.667 25 96c15.333 62 23.333 96.667 24 104c0 6 -0.666992 9.66699 -2 11
c-4.66699 4.66699 -19 7.33398 -43 8.00098c-16 0 -25.333 2.33301 -28 7l-1 3l5 20c2.66699 12.667 5.33398 20.334 8.00098 23.001c2 2 4 3 6 3zM340.997 393.999c-27.333 4.66699 -53.667 -8.33301 -79 -39c-6.66699 -8.66699 -12.667 -18 -18 -28
c-10 -19.333 -22 -57.333 -36 -114c-8.66699 -32 -15 -60 -19 -84c-2.66699 -22.667 -2.66699 -40 0 -52c6.66699 -23.333 19.667 -36.666 39 -39.999c11.333 -2 25 0.333008 41 7c24 13.333 46.667 35.666 68 66.999l5 7l25 100l25 100l-2 7c-6 38 -20.667 60.667 -44 68
c-1.33301 0.666992 -3 1 -5 1z" />
    <glyph glyph-name="e" unicode="e" horiz-adv-x="460" 
d="M338 441c20.667 2.66699 39.333 2.00293 56 -1.99707c10 -2.66699 20.333 -6.33398 31 -11.001c24 -12 39.333 -29.667 46 -53c1.33301 -4.66699 2 -12.334 2 -23.001c0 -12 -0.666992 -20.333 -2 -25c-6 -20 -15.667 -37.333 -29 -52
c-18.667 -18.667 -46.667 -33 -84 -43c-30.667 -7.33301 -72.334 -12 -125.001 -14h-24l-2 -6c-6.66699 -36.667 -10 -54.334 -10 -53.001c-3.33301 -24 -3.66602 -45.333 -0.999023 -64c7.33301 -35.333 27 -54.666 59 -57.999c2.66699 -0.666992 5.66699 -1 9 -1
c34.667 0 68 9.66699 100 29c16 9.33301 32.333 22.333 49 39c12 12 20.333 17.333 25 16l14 -14c9.33301 -10.667 13 -18.334 11 -23.001c-3.33301 -6 -14.666 -18 -33.999 -36c-32 -24.667 -69.333 -41.667 -112 -51c-16.667 -4 -36.334 -6 -59.001 -6
c-20.667 0 -38 2.33301 -52 7c-20 7.33301 -38 18.666 -54 33.999c-12 12.667 -21.333 26.334 -28 41.001c-12.667 24.667 -20 54 -22 88c-2 68 17.667 128 59 180c12.667 16 26.667 29.667 42 41c40 32.667 85 52.667 135 60zM370.999 393.003
c-28 5.33301 -55.666 -1.33301 -82.999 -20c-24 -15.333 -42.667 -40 -56 -74c-7.33301 -18 -11 -29 -11 -33c0 -2.66699 24 -2 72 2c4.66699 0 8.66699 0.333008 12 1c44 4.66699 74.333 17 91 37c7.33301 9.33301 12 20.333 14 33c3.33301 24 -5.33398 40.667 -26.001 50
c-4 2 -8.33301 3.33301 -13 4z" />
    <glyph glyph-name="f" unicode="f" horiz-adv-x="307" 
d="M348 704c3.33301 0.666992 9.99707 1 19.9971 1c15.333 -0.666992 29.333 -4.33398 42 -11.001c26 -13.333 39 -34.666 39 -63.999c0 -12 -2.66699 -23.333 -8 -34c-2.66699 -6.66699 -6.66699 -12.334 -12 -17.001c-6.66699 -6.66699 -12.334 -11 -17.001 -13
c-18.667 -8.66699 -36.334 -9 -53.001 -1c-16.667 8.66699 -22.667 24 -18 46l2 8c4.66699 15.333 13 26.666 25 33.999c3.33301 2 1 3.66699 -7 5c-4.66699 0 -8 -0.666992 -10 -2c-5.33301 -4 -9 -8.66699 -11 -14c-2.66699 -5.33301 -9.66699 -36 -21 -92
c-15.333 -73.333 -23 -112.666 -23 -117.999c0 -0.666992 18 -1 54 -1h54l4 -3c2.66699 -3.33301 2.33398 -12.333 -0.999023 -27s-6.33301 -22.667 -9 -24c-2 -1.33301 -21.333 -2 -58 -2s-55 -0.666992 -55 -2l-26 -132l-30 -155c-18 -86.667 -35.333 -148.667 -52 -186
c-21.333 -49.333 -48.666 -81.666 -81.999 -96.999c-9.33301 -4.66699 -19.333 -7.33398 -30 -8.00098c-29.333 -1.33301 -52.666 7.66699 -69.999 27c-1.33301 0.666992 -2.33301 1.66699 -3 3c-9.33301 13.333 -14 28 -14 44c0 12.667 2.66699 24.334 8 35.001
c2.66699 6.66699 6.66699 12.334 12 17.001c6.66699 6.66699 12.334 11 17.001 13c18.667 8.66699 36.334 9 53.001 1c16.667 -8.66699 22.667 -24 18 -46l-2 -8c-4.66699 -15.333 -13 -26.666 -25 -33.999c-4 -2.66699 -1.66699 -4 7 -4c5.33301 0 9.33301 1 12 3
c8.66699 6.66699 15.334 24 20.001 52c6.66699 42 16.667 89.333 30 142l20 90c31.333 167.333 47 248.666 47 243.999c0 0.666992 -15.333 1 -46 1c-32.667 0 -50.334 2.33301 -53.001 7c-1.33301 2 -0.333008 9.66699 3 23s6 21 8 23l3 3h48h48v2l10 49
c13.333 69.333 26.333 117.666 39 144.999c20.667 42 51.667 67.667 93 77z" />
    <glyph glyph-name="g" unicode="g" horiz-adv-x="460" 
d="M317 440c38 6 69.3369 -3.66602 94.0039 -28.999l8 -9l5 5c11.333 11.333 24.333 16.333 39 15c15.333 -1.33301 26 -8 32 -20c2.66699 -6.66699 2 -18.334 -2 -35.001c-3.33301 -17.333 -20.666 -88 -51.999 -212c-38.667 -153.333 -58.334 -230.666 -59.001 -231.999
c-3.33301 -12.667 -9.66602 -25.667 -18.999 -39c-7.33301 -11.333 -19 -23.666 -35 -36.999c-18.667 -15.333 -40.667 -27.666 -66 -36.999c-14.667 -5.33301 -30.334 -9.33301 -47.001 -12c-13.333 -2.66699 -34.333 -3.33398 -63 -2.00098
c-60.667 4 -96.334 20.667 -107.001 50c-1.33301 6.66699 -2 12.334 -2 17.001c0 29.333 13 50 39 62l12 4c22 5.33301 38.667 0.666016 50 -14.001c2 -2.66699 3.66699 -5.66699 5 -9c6.66699 -18.667 3 -37.334 -11 -56.001c-2.66699 -3.33301 -3.33398 -5 -2.00098 -5
c2.66699 -2 19.334 -3 50.001 -3c14.667 0.666992 28 3.66699 40 9c23.333 10.667 42.333 28.334 57 53.001c1.33301 2 2.66602 4.33301 3.99902 7c4 8.66699 11 32 21 70l13 51l-10 -6c-32.667 -20.667 -65.334 -29 -98.001 -25c-50.667 8 -85 37.333 -103 88
c-6 15.333 -9.66699 31.666 -11 48.999c-2.66699 17.333 -2 35.666 2 54.999c11.333 74.667 44 137 98 187c25.333 23.333 52.666 40.333 81.999 51c11.333 4 23.333 7 36 9zM341.004 394.001c-26 4.66699 -51 -6.33301 -75 -33c-8.66699 -9.33301 -15.667 -20 -21 -32
c-10 -18.667 -22.667 -57.334 -38 -116.001c-11.333 -47.333 -17 -81.666 -17 -102.999c0 -14.667 2.33301 -26.667 7 -36c9.33301 -19.333 25 -28.333 47 -27c31.333 3.33301 63 27.333 95 72l6 9l23 95c16 64 23.667 99.333 23 106c-0.666992 0.666992 -1.66699 4 -3 10
c-4.66699 17.333 -12 31 -22 41c-6.66699 7.33301 -15 12 -25 14z" />
    <glyph glyph-name="h" unicode="h" 
d="M228 688c52 4 77.668 5.99805 77.001 5.99805c6 0 10 -2.33301 12 -7c1.33301 -3.33301 -10 -52 -34 -146l-36 -142l3 2c14 10.667 26.667 18.667 38 24c20.667 10 43.667 15.667 69 17c36.667 1.33301 66 -7 88 -25c14.667 -11.333 25 -28 31 -50
c1.33301 -6 2 -17 2 -33c0 -17.333 -0.333008 -28.333 -1 -33c-7.33301 -38 -25.333 -97 -54 -177c-10.667 -28.667 -17 -48.334 -19 -59.001c-2 -16.667 0 -26 6 -28c8 -2.66699 17.333 -1 28 5c20.667 12.667 38 43.667 52 93
c3.33301 10.667 6.66602 16.334 9.99902 17.001c2 0.666992 9 1 21 1c14.667 0 22.667 -0.666992 24 -2c4 -2.66699 4 -9.66699 0 -21c-7.33301 -26 -18.333 -50.333 -33 -73c-26.667 -40 -57 -62.333 -91 -67c-12 -2.66699 -24.333 -2 -37 2c-19.333 4 -34 13 -44 27
c-12.667 15.333 -19 33.333 -19 54c0 12.667 5 33.334 15 62.001c32.667 88 51 150.333 55 187c2.66699 16 2.33398 31 -0.999023 45c-4.66699 13.333 -11.334 21.666 -20.001 24.999c-6.66699 3.33301 -17 4 -31 2c-44 -6.66699 -82 -40 -114 -100l-7 -13l-32 -127
c-21.333 -85.333 -33.333 -130.333 -36 -135c-11.333 -18 -27 -28 -47 -30c-19.333 0 -31.333 8 -36 24c-1.33301 3.33301 -2 6.33301 -2 9c0 4.66699 23.667 102 71 292c49.333 197.333 72.666 299 69.999 305c-4.66699 4.66699 -19 7.33398 -43 8.00098
c-16 0 -25.333 2.33301 -28 7l-1 3l5 20c2.66699 12.667 5.33398 20.334 8.00098 23.001c2 2 4 3 6 3z" />
    <glyph glyph-name="i" unicode="i" horiz-adv-x="307" 
d="M278 654c24 6 41.332 -0.000976562 51.999 -18.001c3.33301 -6 5.33301 -12.667 6 -20c0 -10 -2.33301 -19.667 -7 -29c-15.333 -21.333 -34.666 -33.666 -57.999 -36.999c-7.33301 0 -15 2 -23 6c-6.66699 3.33301 -12 9.33301 -16 18c-2 2.66699 -3.33301 8 -4 16
c0 10.667 2 20 6 28c9.33301 18.667 24 30.667 44 36zM191.999 439.999c4.66699 1.33301 12.001 2.00098 22.001 2.00098c15.333 -0.666992 28.666 -4 39.999 -10c8.66699 -4.66699 15.334 -9.66699 20.001 -15c5.33301 -4.66699 10.333 -11.334 15 -20.001
c6 -12.667 8.66699 -26 8 -40c0 -11.333 -0.666992 -19.333 -2 -24c-0.666992 -1.33301 -15.667 -43 -45 -125c-28 -74.667 -43 -116 -45 -124c-6.66699 -22 -7.66699 -36.667 -3 -44c3.33301 -4 10.333 -4.66699 21 -2c26 6 47 38.333 63 97
c3.33301 10.667 6.66602 16.334 9.99902 17.001c2 0.666992 9 1 21 1c14.667 0 22.667 -0.666992 24 -2c4 -2.66699 4 -9.66699 0 -21c-7.33301 -26 -18.333 -50.333 -33 -73c-26.667 -40 -57 -62.333 -91 -67c-12 -2.66699 -24.333 -2 -37 2c-13.333 4 -24.333 9 -33 15
c-14.667 12 -24.334 29 -29.001 51c-2.66699 12.667 -2 26 2 40c1.33301 5.33301 16 46.333 44 123c24 64 39.333 106 46 126c6.66699 20.667 7.66699 35 3 43c-2 5.33301 -9 6.33301 -21 3c-20 -4.66699 -37.667 -25.667 -53 -63c-8.66699 -30 -13 -44.333 -13 -43
c-2 -4 -3.33301 -6.33301 -4 -7c-1.33301 -1.33301 -9.33301 -2 -24 -2h-22l-3 3c-2 2 -3 4.66699 -3 8c1.33301 10.667 7 27.334 17 50.001c8 17.333 16.333 31.666 25 42.999c8.66699 12 19.667 24 33 36c14.667 11.333 30.334 18.666 47.001 21.999z" />
    <glyph glyph-name="j" unicode="j" horiz-adv-x="307" 
d="M311 654c7.33301 2 15.667 2.33496 25 1.00195c6 -2 13 -6 21 -12c2.66699 -2.66699 4.66699 -6.33398 6 -11.001c2 -2.66699 3.33301 -8 4 -16c0 -10.667 -2 -20 -6 -28c-9.33301 -18.667 -24.333 -30.667 -45 -36c-23.333 -6 -41 1.33301 -53 22
c-8.66699 19.333 -5 38 11 56c0.666992 1.33301 1.66699 2.66602 3 3.99902c8.66699 10 20 16.667 34 20zM217.001 440.002c14 3.33301 29.666 3.00098 46.999 -0.999023c16 -4 29.667 -11.333 41 -22c11.333 -11.333 19.666 -25.666 24.999 -42.999
c1.33301 -4.66699 2 -13 2 -25v-17l-49 -197c-33.333 -133.333 -50.666 -201.333 -51.999 -204c-0.666992 -2.66699 -3.33398 -9.66699 -8.00098 -21c-20 -42 -52 -73.667 -96 -95c-24.667 -12 -49.667 -18.667 -75 -20c-18 0 -31.667 2 -41 6c-28 11.333 -42 32 -42 62
c0 29.333 13 50 39 62l12 4c19.333 5.33301 35.333 1.33301 48 -12c12.667 -14 13.334 -32.667 2.00098 -56c-2 -5.33301 -5 -10 -9 -14l-4 -5l3 1c8 1.33301 14.333 3.33301 19 6c20 10 36.667 27.667 50 53c7.33301 13.333 19 51.666 35 114.999l30 119
c34 135.333 51.333 206 52 212c2 17.333 1.33301 30 -2 38c-3.33301 6 -9 8.66699 -17 8c-8.66699 0 -17.334 -2 -26.001 -6c-28 -14.667 -52 -46 -72 -94c-3.33301 -8 -5.66602 -12.667 -6.99902 -14s-9.33301 -2 -24 -2h-22l-3 3c-3.33301 3.33301 -3.33301 9 0 17
c20.667 52 49.334 91 86.001 117c18.667 13.333 38 21.666 58 24.999z" />
    <glyph glyph-name="k" unicode="k" horiz-adv-x="460" 
d="M228 688c52 4 77.6641 6 76.9971 6c6 0 10 -2.33301 12 -7c0.666992 -2.66699 -15.666 -70.667 -48.999 -204c-33.333 -137.333 -50 -204.666 -50 -201.999c2 0 9.66699 5.33301 23 16c11.333 8.66699 34.333 31 69 67c33.333 36 62.333 59 87 69
c21.333 8.66699 39.333 11.334 54 8.00098c21.333 -4 35.666 -19 42.999 -45c6 -22 4.33301 -47.333 -5 -76c-0.666992 -2.66699 -1.66699 -5.33398 -3 -8.00098c-11.333 -22 -29.333 -34 -54 -36c-21.333 -1.33301 -36 6.33398 -44 23.001
c-2 3.33301 -3.33301 8.66602 -4 15.999c-1.33301 26 10.667 45.667 36 59c6 3.33301 11.667 5.66602 17 6.99902c2.66699 0 5 0.666992 7 2c0 5.33301 -1.33301 8.66602 -4 9.99902c-5.33301 4.66699 -18 3.33398 -38 -3.99902c-16 -4.66699 -35.333 -17.334 -58 -38.001
c-5.33301 -4.66699 -17.333 -17 -36 -37l-41 -41c-11.333 -10.667 -15.666 -16.334 -12.999 -17.001c66.667 -15.333 105 -44.333 115 -87c1.33301 -4.66699 2 -12 2 -22s-1.33301 -21.333 -4 -34c-4.66699 -20 -7 -37 -7 -51c0.666992 -8.66699 1.66699 -14.334 3 -17.001
c3.33301 -6 9.33301 -9 18 -9c8 0.666992 15.333 4.33398 22 11.001c12 12 24 40.333 36 85c3.33301 12.667 6.33301 19.334 9 20.001c2 0.666992 9.33301 1 22 1c14.667 0 22.667 -0.666992 24 -2c4 -2.66699 4 -10.667 0 -24c-12.667 -46 -31 -81.333 -55 -106
c-9.33301 -10 -19.333 -17.667 -30 -23c-9.33301 -4.66699 -20.333 -7.66699 -33 -9c-35.333 -1.33301 -62.666 11 -81.999 37c-18 27.333 -23 58.333 -15 93c3.33301 17.333 3.33301 31.333 0 42c-4.66699 15.333 -17 28.666 -37 39.999
c-15.333 6.66699 -27.666 10.667 -36.999 12l-4 1l-1 -4l-23 -92c-16 -65.333 -26.333 -101 -31 -107l-6 -6c-10.667 -10.667 -23 -16 -37 -16c-19.333 0 -31.333 8 -36 24c-1.33301 3.33301 -2 6.33301 -2 9c0 4.66699 23.667 102 71 292
c49.333 197.333 72.666 299 69.999 305c-4.66699 4.66699 -19 7.33398 -43 8.00098c-16 0 -25.333 2.33301 -28 7l-1 3l5 20c2.66699 12.667 5.33398 20.334 8.00098 23.001c2 2 4 3 6 3z" />
    <glyph glyph-name="l" unicode="l" horiz-adv-x="256" 
d="M228 688c52 4 77.665 5.99707 76.998 5.99707c6 0 10 -2.33301 12 -7c0.666992 -2.66699 -23.333 -102 -72 -298l-76 -304c-1.33301 -15.333 -1.33301 -27.666 0 -36.999c1.33301 -3.33301 3.33301 -6 6 -8c2 -2 5 -3 9 -3c4.66699 0 8.33398 0.666992 11.001 2
c12.667 9.33301 25.667 39.666 39 90.999c3.33301 12.667 6 19.667 8 21c1.33301 1.33301 9.33301 2 24 2s23 -0.666992 25 -2c1.33301 -1.33301 2 -4 2 -8s-1.66699 -12 -5 -24c-25.333 -86 -62 -129.333 -110 -130c-4.66699 0 -9.33398 0.333008 -14.001 1
c-41.333 5.33301 -67.666 27 -78.999 65c-4 14.667 -4.66699 30.334 -2 47.001l63 253c42.667 170.667 62.667 258.667 60 264c-4.66699 4.66699 -19 7.33398 -43 8.00098c-16 0 -25.333 2.33301 -28 7l-1 3l5 20c2.66699 12.667 5.33398 20.334 8.00098 23.001c2 2 4 3 6 3
z" />
    <glyph glyph-name="m" unicode="m" horiz-adv-x="818" 
d="M170 440c11.333 3.33301 25.6689 2.99707 43.002 -1.00293c18.667 -5.33301 33.334 -14 44.001 -26c7.33301 -7.33301 13.666 -17.333 18.999 -30l2 -4l8 8c26.667 25.333 55 42 85 50c38.667 10 73.667 7.66699 105 -7c11.333 -5.33301 21.333 -12.333 30 -21
c6 -6.66699 10.333 -13.334 13 -20.001l7 -15v-3l10 10c30.667 32.667 65.334 52 104.001 58c24 4.66699 46 4.33398 66 -0.999023c26 -5.33301 45.667 -16.666 59 -33.999c7.33301 -9.33301 13.333 -21.666 18 -36.999c1.33301 -6 2 -17 2 -33
c0 -17.333 -0.333008 -28.333 -1 -33c-7.33301 -39.333 -25.333 -98.333 -54 -177c-14 -38.667 -20.667 -64 -20 -76c0.666992 -7.33301 4.33398 -11.333 11.001 -12c16 -1.33301 30.667 7.33398 44 26.001s24 43 32 73c3.33301 10.667 6.66602 16.334 9.99902 17.001
c2 0.666992 9 1 21 1c14.667 0 22.667 -0.666992 24 -2c4 -2.66699 4 -9.66699 0 -21c-12.667 -44.667 -32.667 -80 -60 -106c-8.66699 -8.66699 -19.334 -16.667 -32.001 -24c-29.333 -14.667 -58 -15.334 -86 -2.00098c-12 6 -21 13 -27 21
c-12.667 15.333 -19 33.333 -19 54c0 12.667 5 33.334 15 62.001c32.667 88 51 150.333 55 187c2.66699 16 2.33398 31 -0.999023 45c-4.66699 13.333 -11.334 21.666 -20.001 24.999c-6.66699 3.33301 -17 4 -31 2c-44 -6.66699 -82 -40 -114 -100l-8 -14l-32 -127
c-21.333 -86 -33 -130.667 -35 -134c-8.66699 -17.333 -23 -27.333 -43 -30c-5.33301 -0.666992 -10.333 -0.333984 -15 0.999023c-16.667 4.66699 -25.667 15 -27 31c0 5.33301 10.667 51.333 32 138c22.667 90.667 34.334 138 35.001 142c3.33301 16 5 31 5 45
c-0.666992 18 -5 31 -13 39c-2 3.33301 -5 5.66602 -9 6.99902c-2.66699 1.33301 -8.33398 2 -17.001 2c-11.333 0 -22 -1.66699 -32 -5c-18.667 -6 -36 -17 -52 -33s-31.333 -37.333 -46 -64l-7 -12l-31 -127c-22.667 -89.333 -36 -136.666 -40 -141.999
c-0.666992 -1.33301 -2.33398 -3.33301 -5.00098 -6c-14 -14 -30.333 -19 -49 -15c-16.667 4.66699 -25.667 15 -27 31c0 6 12.667 60 38 162c26 100.667 39.667 155.667 41 165c2 17.333 1.33301 30 -2 38c-3.33301 6 -8 9 -14 9c-4 0 -7.66699 -1.33301 -11 -4
c-5.33301 -3.33301 -11 -11 -17 -23c-6.66699 -16 -15 -43 -25 -81c-2 -4 -3.33301 -6.33301 -4 -7c-1.33301 -1.33301 -9.33301 -2 -24 -2h-22l-3 3c-2.66699 2.66699 -2.33398 10.667 0.999023 24c17.333 62.667 39.333 103.334 66 122.001c12.667 8 22.667 12.333 30 13z
" />
    <glyph glyph-name="n" unicode="n" horiz-adv-x="562" 
d="M170 440c11.333 3.33301 25.666 2.99805 42.999 -1.00195c16 -4 29.667 -11.333 41 -22c10 -10 16.667 -19.667 20 -29l4 -8l8 7c28.667 28.667 61.334 46 98.001 52c24 4.66699 46 4.33398 66 -0.999023c26 -5.33301 45.667 -16.666 59 -33.999
c7.33301 -9.33301 13.333 -21.666 18 -36.999c1.33301 -6 2 -17 2 -33c0 -17.333 -0.333008 -28.333 -1 -33c-7.33301 -38 -25.333 -97 -54 -177c-10.667 -28.667 -17 -48.334 -19 -59.001c-2 -16.667 0 -26 6 -28c8 -2.66699 17.333 -1 28 5c20.667 12.667 38 43.667 52 93
c3.33301 10.667 6.66602 16.334 9.99902 17.001c2 0.666992 9 1 21 1c14.667 0 22.667 -0.666992 24 -2c4 -2.66699 4 -9.66699 0 -21c-7.33301 -26 -18.333 -50.333 -33 -73c-26.667 -40 -57 -62.333 -91 -67c-12 -2.66699 -24.333 -2 -37 2c-19.333 4 -34 13 -44 27
c-12.667 15.333 -19 33.333 -19 54c0 12.667 5 33.334 15 62.001c32.667 88 51 150.333 55 187c2.66699 16 2.33398 31 -0.999023 45c-4.66699 13.333 -11.334 21.666 -20.001 24.999c-6.66699 3.33301 -17 4 -31 2c-44 -6.66699 -82 -40 -114 -100l-8 -14l-32 -127
c-21.333 -86 -33 -130.667 -35 -134c-8.66699 -17.333 -23 -27.333 -43 -30c-5.33301 -0.666992 -10.333 -0.333984 -15 0.999023c-16.667 4.66699 -25.667 15 -27 31c0 6 12.667 60 38 162c26 100.667 39.667 155.667 41 165c2 17.333 1.33301 30 -2 38
c-2.66699 4.66699 -7 7.66699 -13 9c-4 0 -7.33301 -1 -10 -3c-10 -6 -19.333 -22.333 -28 -49c-3.33301 -9.33301 -8.66602 -28 -15.999 -56c-2 -4 -3.33301 -6.33301 -4 -7c-1.33301 -1.33301 -9.33301 -2 -24 -2h-22l-3 3c-2 2 -3 4.66699 -3 8l6 23
c16.667 58 38 96.333 64 115c10.667 6.66699 20.667 11 30 13z" />
    <glyph glyph-name="o" unicode="o" 
d="M346 441c1.33301 0.666992 8.33398 1.00195 21.001 1.00195c18 -0.666992 34 -3.33398 48 -8.00098c55.333 -18.667 89.666 -59 102.999 -121c1.33301 -8 2 -20.667 2 -38c0.666992 -22 -1.33301 -42 -6 -60c-9.33301 -37.333 -25.333 -72 -48 -104
c-41.333 -58 -93 -96 -155 -114c-16.667 -4.66699 -33 -7.33398 -49 -8.00098c-57.333 -2 -101.333 18.667 -132 62c-4 4.66699 -7.33301 9.66699 -10 15c-32 57.333 -31 124.666 3 201.999c16 34.667 37.333 65.334 64 92.001c25.333 25.333 51.666 44.333 78.999 57
c26.667 13.333 53.334 21.333 80.001 24zM377.001 393.002c-14 2 -25.3311 2.33105 -33.998 0.998047c-32.667 -6 -59.667 -22 -81 -48c-19.333 -23.333 -36 -62.333 -50 -117l-4 -14c-10.667 -44 -16 -76.667 -16 -98c0 -14 0.666992 -23.333 2 -28
c8 -31.333 27.333 -48.666 58 -51.999c13.333 -1.33301 27.333 0.333984 42 5.00098c35.333 11.333 63.333 37 84 77c11.333 20.667 22.666 54.667 33.999 102c14.667 58 18.667 99.333 12 124s-22.334 40.667 -47.001 48z" />
    <glyph glyph-name="p" unicode="p" 
d="M170 440c11.333 3.33301 25.6641 3.00195 42.9971 -0.998047c16 -4 29.667 -11.333 41 -22c10.667 -10.667 17 -19.667 19 -27l1 -3l6 6c22 20 46 34.333 72 43c30.667 10 61.334 7.66699 92.001 -7c26 -12.667 46 -33.334 60 -62.001c12 -24.667 18 -52.667 18 -84
c0 -16 -0.333008 -26.667 -1 -32c-8 -61.333 -31.333 -116.333 -70 -165c-14 -18 -28.667 -33 -44 -45c-29.333 -24.667 -61.666 -41 -96.999 -49c-19.333 -4 -37 -4 -53 0c-18.667 5.33301 -33.667 13.666 -45 24.999l-7 7l-39 -157c0 -1.33301 1 -2 3 -2c6 -2 22 -3 48 -3
c12.667 0 19.667 -0.666992 21 -2c4 -1.33301 6 -4.33301 6 -9l-10 -39c-2.66699 -4 -9 -5.66699 -19 -5h-15c-84.667 2.66699 -146 2.33398 -184 -0.999023h-8l-3 3c-2.66699 2.66699 -4 5 -4 7l11 41c0 1.33301 1.33301 2.66602 4 3.99902l23 1h1
c18.667 0.666992 29.667 2.66699 33 6c2 2 22.667 80.667 62 236c38.667 155.333 58.667 237 60 245c2 16.667 1.33301 29 -2 37c-2.66699 4.66699 -7 7.66699 -13 9c-4 0 -7.33301 -1 -10 -3c-10 -6 -19.333 -22.333 -28 -49c-3.33301 -9.33301 -8.66602 -28 -15.999 -56
c-2 -4 -3.33301 -6.33301 -4 -7c-1.33301 -1.33301 -9.33301 -2 -24 -2h-22l-3 3c-2 2 -3 4.66699 -3 8l6 23c16.667 58 38 96.333 64 115c10.667 6.66699 20.667 11 30 13zM397.998 392.002c-6 2.66699 -15.667 3.33496 -29 2.00195c-19.333 -5.33301 -39 -18.333 -59 -39
c-14 -14 -24.667 -27.333 -32 -40l-27 -103l-24 -98l1 -9c7.33301 -36 21.666 -58 42.999 -66c24.667 -9.33301 50.334 -0.333008 77.001 27c10.667 11.333 19.667 24.666 27 39.999c9.33301 18 21 54 35 108c14 56.667 21 95.667 21 117c0 14 -1.66699 25 -5 33
c-4.66699 13.333 -14 22.666 -28 27.999z" />
    <glyph glyph-name="q" unicode="q" horiz-adv-x="460" 
d="M320 441l19.999 0.999023h1c14.667 -0.666992 27.667 -4 39 -10c11.333 -5.33301 21.333 -12.666 30 -21.999l8 -8l5 5c10.667 10 31 20.333 61 31c9.33301 2.66699 14.333 4 15 4c4.66699 0 8 -2.33301 10 -7c0.666992 -2.66699 -22.333 -97.667 -69 -285
c-46.667 -184 -70 -278.333 -70 -283c0 -1.33301 1 -2 3 -2c6 -2 22 -3 48 -3c12.667 0 19.667 -0.666992 21 -2c4 -1.33301 6 -4.33301 6 -9l-10 -39c-2.66699 -4 -9.33398 -5.66699 -20.001 -5h-17c-45.333 2.66699 -101.333 3 -168 1c-6 -0.666992 -11 -1 -15 -1
c-19.333 -0.666992 -30 1 -32 5c-1.33301 2 -0.666016 9.66699 2.00098 23c4 15.333 7.66699 23.666 11 24.999c2.66699 1.33301 12.334 2 29.001 2c29.333 0.666992 46.333 3.66699 51 9c1.33301 2.66699 8 28 20 76c12.667 48.667 19 73.334 19 74.001
c-1.33301 0 -4.33301 -2 -9 -6c-19.333 -12 -40 -20.333 -62 -25c-20.667 -2.66699 -39.667 -1 -57 5c-33.333 11.333 -58.333 34 -75 68c-20 40.667 -24 88.334 -12 143.001c15.333 72.667 50 132.667 104 180c36 31.333 73.667 49.666 113 54.999zM340.999 393.999
c-27.333 4.66699 -53.667 -8.33301 -79 -39c-6.66699 -8.66699 -12.667 -18 -18 -28c-10 -19.333 -22 -57.333 -36 -114c-8.66699 -32 -15 -60 -19 -84c-2.66699 -22.667 -2.66699 -40 0 -52c6.66699 -23.333 19.667 -36.666 39 -39.999c11.333 -2 25 0.333008 41 7
c24 13.333 46.667 35.666 68 66.999l5 7l25 100l25 100l-2 7c-6 38 -20.667 60.667 -44 68c-1.33301 0.666992 -3 1 -5 1z" />
    <glyph glyph-name="r" unicode="r" horiz-adv-x="422" 
d="M170 440c11.333 3.33301 25.667 3.00195 43 -0.998047c10.667 -2.66699 21.334 -7.66699 32.001 -15c10.667 -8 18.334 -16.333 23.001 -25l4 -6l9 9c12.667 11.333 25.334 20.333 38.001 27c24 12 48.667 16 74 12c44.667 -7.33301 72.667 -28.333 84 -63
c3.33301 -10 4.66602 -20.667 3.99902 -32c-2 -25.333 -10.667 -44 -26 -56c-22.667 -16.667 -43.667 -19.667 -63 -9c-8 4 -13.667 10 -17 18c-2 3.33301 -3.33301 8.66602 -4 15.999c0 11.333 2.33301 21.666 7 30.999c7.33301 13.333 16.333 22.333 27 27
c4 2 6 3.66699 6 5c-2 4 -8.33301 8 -19 12c-14 6 -28.667 6.66699 -44 2c-24 -8.66699 -47 -34.667 -69 -78c-2.66699 -5.33301 -16 -55 -40 -149c-24 -96.667 -38 -148 -42 -154c-0.666992 -1.33301 -2.33398 -3.33301 -5.00098 -6c-14 -14 -30.333 -19 -49 -15
c-16.667 4.66699 -25.667 15 -27 31c0 6 12.667 60 38 162c26 100.667 39.667 155.667 41 165c2 17.333 1.33301 30 -2 38c-2.66699 4.66699 -7 7.66699 -13 9c-4 0 -7.33301 -1 -10 -3c-6.66699 -4.66699 -13 -12.667 -19 -24c-6.66699 -16 -15 -43 -25 -81
c-2 -4 -3.33301 -6.33301 -4 -7c-1.33301 -1.33301 -9.33301 -2 -24 -2h-22l-3 3c-2 2 -3 4.66699 -3 8l6 24c17.333 58 38.666 96 63.999 114c10.667 6.66699 20.667 11 30 13z" />
    <glyph glyph-name="s" unicode="s" horiz-adv-x="409" 
d="M289 440c44.667 6.66699 79.998 -2.66895 105.998 -28.002c6 -5.33301 10.667 -11.666 14 -18.999c6 -11.333 9 -23.666 9 -36.999c0 -36 -15.333 -57.667 -46 -65c-8 -2 -15.667 -2 -23 0c-17.333 4 -26.666 14.667 -27.999 32c0 10 2 19.333 6 28
c6.66699 12 13.667 19.667 21 23c2 1.33301 3.33301 2.33301 4 3c0 2.66699 -6.33301 7 -19 13c-14.667 6 -30 7 -46 3c-22 -6 -37.667 -21.333 -47 -46c-2.66699 -8.66699 -4 -17.667 -4 -27c1.33301 -10.667 4.66602 -19 9.99902 -25
c4.66699 -5.33301 17.334 -10.333 38.001 -15c25.333 -6 42 -11 50 -15c28 -14 46.667 -35.667 56 -65c3.33301 -10.667 5 -24 5 -40c-0.666992 -14 -3.66699 -29.667 -9 -47c-5.33301 -16 -14 -32.667 -26 -50c-12 -16.667 -25.667 -30.334 -41 -41.001
c-23.333 -16 -50.333 -26.333 -81 -31c-18.667 -2.66699 -39 -3 -61 -1c-1.33301 0.666992 -2.66602 1 -3.99902 1c-39.333 8 -66.333 22.667 -81 44c-8 12 -12.667 21.667 -14 29c-1.33301 4 -2 11 -2 21c-0.666992 14.667 2 27.667 8 39c9.33301 20 25.333 32 48 36
c6.66699 0.666992 12.334 0.666992 17.001 0c20.667 -3.33301 32.667 -14.333 36 -33c3.33301 -20 -4 -38.667 -22 -56c-4 -3.33301 -8 -6 -12 -8l-7 -4l6 -4c11.333 -9.33301 25.333 -15 42 -17c34 -5.33301 62.667 1 86 19c14.667 12 25 28.667 31 50
c1.33301 10 1.33301 19.667 0 29c-4.66699 15.333 -15.334 26.333 -32.001 33c-8 2.66699 -18.667 5.33398 -32 8.00098c-16.667 3.33301 -28 6.33301 -34 9c-28.667 10.667 -47.667 32.334 -57 65.001c-1.33301 6 -2 15.667 -2 29s0.666992 23.333 2 30
c10 39.333 27.667 70.666 53 93.999c22 20 49.333 32 82 36z" />
    <glyph glyph-name="t" unicode="t" horiz-adv-x="332" 
d="M268 624c9.33301 3.33301 19.002 3.00098 29.002 -0.999023c8.66699 -3.33301 15 -9 19 -17c3.33301 -7.33301 2.33301 -21.333 -3 -42l-13 -55c-14 -51.333 -20.667 -76.666 -20 -75.999c0 -1.33301 14.333 -2 43 -2h43l3 -3c4 -2.66699 4 -11.334 0 -26.001
c-2 -10 -4 -17 -6 -21c-2 -3.33301 -8.33301 -5.33301 -19 -6h-33h-45l-1 -4c-44.667 -174 -68 -268.667 -70 -284c-1.33301 -8 -2 -15.333 -2 -22c0 -18.667 5.33301 -28.334 16 -29.001c4 0 8.66699 0.666992 14 2c9.33301 0.666992 19.333 5.33398 30 14.001
c23.333 18 42.666 47 57.999 87c3.33301 8 7 12.333 11 13c2 0.666992 8.66699 1 20 1c14.667 0 22.667 -0.666992 24 -2c4 -3.33301 4 -10 0 -20c-12.667 -30.667 -27.667 -56 -45 -76c-26.667 -34 -57.334 -55 -92.001 -63c-5.33301 -1.33301 -14 -2 -26 -2
s-20.333 0.666992 -25 2c-18.667 5.33301 -33.667 13.333 -45 24c-10.667 10.667 -18.334 23.667 -23.001 39c-1.33301 5.33301 -2 14.333 -2 27v19l34 136c22.667 89.333 34 135 34 137c0 0.666992 -14 1 -42 1c-29.333 0 -45.333 2.33301 -48 7
c-1.33301 2 -0.666016 9.33301 2.00098 22c4 13.333 6.33301 20.333 7 21c2 4 9 6 21 6h30h45l19 78c12.667 51.333 20.667 80.333 24 87c6 13.333 17.333 22.666 34 27.999z" />
    <glyph glyph-name="u" unicode="u" horiz-adv-x="537" 
d="M192 440c4.66699 1.33301 11.998 1.99805 21.998 1.99805c15.333 -0.666992 28.666 -4 39.999 -10c8.66699 -4.66699 15.334 -9.66699 20.001 -15c5.33301 -4.66699 10.333 -11.334 15 -20.001c6 -12.667 8.66699 -26 8 -40c0 -13.333 -4.33301 -31.666 -13 -54.999
c-0.666992 -3.33301 -2 -7.33301 -4 -12c-32.667 -90.667 -49 -152.667 -49 -186v-7c0.666992 -22.667 6 -39.334 16 -50.001c7.33301 -6.66699 17.333 -10 30 -10c13.333 0 25 2.66699 35 8c17.333 8.66699 32.333 22.667 45 42l6 10l37 148c26 103.333 41 158 45 164
c0.666992 1.33301 2.33398 3.33301 5.00098 6c14.667 14.667 31.334 19.667 50.001 15c16 -5.33301 24.667 -15.666 26 -30.999c0 -5.33301 -12 -56.666 -36 -153.999c-23.333 -91.333 -36.333 -144 -39 -158c-2.66699 -18.667 -3 -31.667 -1 -39
c1.33301 -2.66699 3 -5.33398 5 -8.00098c2 -1.33301 5.33301 -2.66602 10 -3.99902c4 0 7.33301 1 10 3c14 8.66699 27.333 39.334 40 92.001c4 13.333 7.33301 20.333 10 21c2 0.666992 9.33301 1 22 1c14.667 0 23 -0.666992 25 -2c1.33301 -1.33301 2 -4 2 -8
c0 -9.33301 -5.33301 -28.333 -16 -57c-8 -22 -16.333 -39 -25 -51c-18.667 -28.667 -42 -44 -70 -46c-34 -1.33301 -61 10.334 -81 35.001l-7 9c-1.33301 2 -2 3.33301 -2 4l-7 -7c-24.667 -22.667 -51.667 -36 -81 -40c-28.667 -3.33301 -54.667 0.333984 -78 11.001
c-32.667 14 -53 40.333 -61 79c-2.66699 17.333 -2.66699 38 0 62c0.666992 2 1 3.66699 1 5c5.33301 33.333 21 84.333 47 153c12 35.333 18.667 58 20 68c3.33301 15.333 1.66602 24 -5.00098 26c-8 2.66699 -17.333 1 -28 -5c-14 -8.66699 -25 -22.334 -33 -41.001
c-6.66699 -12 -14 -32.333 -22 -61c-2 -4 -3.33301 -6.33301 -4 -7c-1.33301 -1.33301 -9.33301 -2 -24 -2h-22l-3 3c-2 2 -3 4.66699 -3 8c1.33301 10.667 7 27.334 17 50.001c8 17.333 16.333 31.666 25 42.999c8.66699 12 19.667 24 33 36
c14.667 11.333 30.334 18.666 47.001 21.999z" />
    <glyph glyph-name="v" unicode="v" horiz-adv-x="460" 
d="M432 442c22.667 4.66699 39.6689 -5.66113 51.002 -30.9941c2 -4.66699 3.66699 -9.33398 5 -14.001c1.33301 -6 2 -17 2 -33c0 -26.667 -6 -63.667 -18 -111c-18.667 -76.667 -42.667 -138.334 -72 -185.001c-16.667 -24 -33.667 -42.667 -51 -56
c-14 -10 -28 -16.667 -42 -20c-6 -1.33301 -15.667 -2 -29 -2c-20 0 -38.333 2.33301 -55 7c-56 19.333 -82 62.666 -78 129.999c2 32 18.333 89.667 49 173c12 35.333 18.667 58 20 68c3.33301 15.333 1.66602 24 -5.00098 26c-8 2.66699 -17.333 1 -28 -5
c-14 -8.66699 -25 -22.334 -33 -41.001c-6.66699 -12 -14 -32.333 -22 -61c-2 -4 -3.33301 -6.33301 -4 -7c-1.33301 -1.33301 -9.33301 -2 -24 -2h-22l-3 3c-2 2 -3 4.66699 -3 8c1.33301 10.667 7 27.334 17 50.001c12 25.333 27 47.666 45 66.999
c13.333 12.667 26.666 22 39.999 28c10.667 4.66699 23.667 7 39 7c16.667 0 31 -3 43 -9c8.66699 -4.66699 15.334 -9.66699 20.001 -15c5.33301 -4.66699 10.333 -11.334 15 -20.001c6 -12.667 8.66699 -26 8 -40c0 -13.333 -4.33301 -31.666 -13 -54.999
c-0.666992 -3.33301 -2 -7.33301 -4 -12c-11.333 -32 -18.333 -51.333 -21 -58c-25.333 -75.333 -32.333 -129 -21 -161c7.33301 -24 24.333 -35.667 51 -35c3.33301 0 6.66602 0.333008 9.99902 1c13.333 2 26.333 9.33301 39 22c26.667 26.667 51 84.667 73 174
c6 26 8.33301 45 7 57c-2.66699 23.333 -11.667 42.666 -27 57.999c-5.33301 5.33301 -9 10.333 -11 15c-2 4 -3 10 -3 18s0.666992 14 2 18c7.33301 16.667 18.333 28.667 33 36c5.33301 3.33301 12 5.66602 20 6.99902z" />
    <glyph glyph-name="w" unicode="w" horiz-adv-x="664" 
d="M636 442c22.667 4.66699 39.667 -5.66406 51 -30.9971c2 -4.66699 3.66699 -9.33398 5 -14.001c1.33301 -6 2 -17 2 -33c0 -26.667 -6.33301 -65.667 -19 -117c-18.667 -72.667 -36.667 -126.667 -54 -162c-31.333 -64 -73 -96 -125 -96c-50.667 0 -88 15.333 -112 46
l-2 3l-4 -4c-10 -11.333 -18.333 -19.333 -25 -24c-12.667 -8.66699 -25 -14.667 -37 -18c-30.667 -7.33301 -63 -4.33301 -97 9c-4 2 -7.66699 3.66699 -11 5c-13.333 6.66699 -24 14 -32 22c-20.667 21.333 -31 51 -31 89c0 32.667 14 87.667 42 165l7 18
c12 35.333 18.667 58 20 68c3.33301 15.333 1.66602 24 -5.00098 26c-8 2.66699 -17.333 1 -28 -5c-14 -8.66699 -25 -22.334 -33 -41.001c-6.66699 -12 -14 -32.333 -22 -61c-2 -4 -3.33301 -6.33301 -4 -7c-1.33301 -1.33301 -9.33301 -2 -24 -2h-22l-3 3
c-2 2 -3 4.66699 -3 8c1.33301 10.667 7 27.334 17 50.001c12 25.333 27 47.666 45 66.999c13.333 12.667 26.666 22 39.999 28c10.667 4.66699 23.667 7 39 7c16.667 0 31 -3 43 -9c8.66699 -4.66699 15.334 -9.66699 20.001 -15
c5.33301 -4.66699 10.333 -11.334 15 -20.001c6 -12.667 8.66699 -26 8 -40c0 -13.333 -4.33301 -31.666 -13 -54.999c-0.666992 -3.33301 -2 -7.33301 -4 -12c-28.667 -80 -44.334 -135.667 -47.001 -167c-3.33301 -46.667 10 -74.334 40 -83.001
c16.667 -6 31 -5.33301 43 2c8 4 16.333 12.333 25 25c14.667 21.333 21.667 35.666 21 42.999c-1.33301 4.66699 -0.333008 19 3 43c1.33301 8.66699 11.666 50.667 30.999 126c19.333 80.667 31.333 124 36 130c0.666992 1.33301 2.33398 3.33301 5.00098 6
c14.667 14.667 31.334 19.667 50.001 15c16 -5.33301 24.667 -15.666 26 -30.999c0 -4.66699 -9.33301 -45 -28 -121c-19.333 -77.333 -29.666 -119.666 -30.999 -126.999c-7.33301 -38 -6.33301 -67 3 -87c5.33301 -11.333 12.666 -18.666 21.999 -21.999
c13.333 -6.66699 27 -7.66699 41 -3c18.667 6.66699 35 24.667 49 54c14.667 30 29.334 74.667 44.001 134c7.33301 29.333 10.333 50.333 9 63c-2.66699 23.333 -11.667 42.666 -27 57.999c-5.33301 5.33301 -9 10.333 -11 15c-2 4 -3 10 -3 18s0.666992 14 2 18
c7.33301 16.667 18.333 28.667 33 36c5.33301 3.33301 12 5.66602 20 6.99902z" />
    <glyph glyph-name="x" unicode="x" horiz-adv-x="464" 
d="M220 441c22.667 3.33301 45.6641 0.00585938 68.9971 -9.99414c18 -8 31.667 -19.333 41 -34l4 -5l4 6c16.667 20 37 33.667 61 41c29.333 8 56 2.66699 80 -16c4.66699 -3.33301 8.66699 -7 12 -11c8 -9.33301 13.333 -20.333 16 -33c6.66699 -22 5 -43.667 -5 -65
c-10.667 -22.667 -28.667 -35.334 -54 -38.001c-21.333 -2 -36 5.66699 -44 23c-2 3.33301 -3.33301 8.66602 -4 15.999c0 11.333 2.33301 21.666 7 30.999c5.33301 12 15 21.667 29 29c6 2.66699 9 4.66699 9 6c-2.66699 4 -7.33398 7.66699 -14.001 11
c-3.33301 1.33301 -8.33301 2 -15 2s-11.667 -0.666992 -15 -2c-16.667 -9.33301 -29.667 -27 -39 -53l-58 -231c-4.66699 -20.667 -5.66699 -36 -3 -46c5.33301 -18 19.666 -26.667 42.999 -26c8 0.666992 15.667 2.33398 23 5.00098c26.667 10 48.667 33 66 69
c4.66699 9.33301 8.33398 18.666 11.001 27.999c2.66699 8.66699 5.66699 13.334 9 14.001c2 0.666992 9 1 21 1c14.667 0 22.667 -0.666992 24 -2c3.33301 -2.66699 3.66602 -8.33398 0.999023 -17.001c-5.33301 -22 -14.666 -42.333 -27.999 -61
c-34.667 -50.667 -77 -78.667 -127 -84h-4c-38.667 -2 -69.667 10.667 -93 38c-1.33301 0.666992 -2.33301 1.66699 -3 3c-4 4.66699 -6.33301 7.33398 -7 8.00098l-6 -7c-9.33301 -10.667 -18.666 -18.667 -27.999 -24c-20 -12.667 -39.667 -18.667 -59 -18
c-12.667 0.666992 -25.334 4 -38.001 10c-21.333 10 -35.333 28 -42 54c-7.33301 33.333 -1.33301 61 18 83c18.667 18 39 23.667 61 17c8 -2.66699 14.333 -6.66699 19 -12c12.667 -14 13.334 -32.667 2.00098 -56c-6 -12.667 -15.333 -22.334 -28 -29.001
c-6 -3.33301 -9.33301 -5 -10 -5c0 -2.66699 5 -6.66699 15 -12c2.66699 -1.33301 7.33398 -2 14.001 -2s11.667 0.666992 15 2c16.667 8.66699 29.334 26 38.001 52l60 236c1.33301 6.66699 2 16 2 28c0 9.33301 -0.666992 15.666 -2 18.999
c-8 17.333 -25 23.666 -51 18.999c-24.667 -4.66699 -46.667 -21.334 -66 -50.001c-11.333 -18 -19.666 -36.667 -24.999 -56c-2 -4 -3.33301 -6.33301 -4 -7c-1.33301 -1.33301 -9.33301 -2 -24 -2h-22l-3 3c-2 2 -3 4.66699 -3 8c2.66699 17.333 12 38.333 28 63l2 4
c29.333 46 67 74 113 84c2.66699 0 5 0.333008 7 1z" />
    <glyph glyph-name="y" unicode="y" horiz-adv-x="486" 
d="M192 440c4.66699 1.33301 11.999 2.00098 21.999 2.00098c15.333 -0.666992 28.666 -4 39.999 -10c8.66699 -4.66699 15.334 -9.66699 20.001 -15c5.33301 -4.66699 10.333 -11.334 15 -20.001c6 -12.667 8.66699 -26 8 -40c0 -13.333 -4.33301 -31.666 -13 -54.999
c-0.666992 -3.33301 -2 -7.33301 -4 -12c-32.667 -90.667 -49 -152.667 -49 -186v-7c0.666992 -22.667 6 -39.334 16 -50.001c7.33301 -6.66699 17.333 -10 30 -10c13.333 0 25 2.66699 35 8c17.333 8.66699 32.333 22.667 45 42l6 10l37 148c26 103.333 41 158 45 164
c0.666992 1.33301 2.33398 3.33301 5.00098 6c14.667 14.667 31.334 19.667 50.001 15c16 -5.33301 24.667 -15.666 26 -30.999c0 -4.66699 -16.667 -74.334 -50 -209.001c-32.667 -130.667 -51 -202 -55 -214c-6.66699 -22 -17 -42.667 -31 -62
c-4.66699 -8 -10 -15.667 -16 -23c-13.333 -16.667 -27.666 -31 -42.999 -43c-28.667 -24 -59.334 -39.667 -92.001 -47c-12 -3.33301 -27 -5 -45 -5c-14 0 -24.333 0.666992 -31 2c-44.667 10 -70 34 -76 72c-2 16.667 0.333008 33 7 49c10.667 22 28.667 34.333 54 37
c21.333 2 36 -5.66699 44 -23c2 -3.33301 3.33301 -8.66602 4 -15.999c0.666992 -17.333 -5.66602 -33.333 -18.999 -48c-6 -4.66699 -10.667 -8 -14 -10c-2.66699 -1.33301 -4.33398 -2.33301 -5.00098 -3l17 -10c27.333 -9.33301 55 -4 83 16c34.667 26 61 69.333 79 130
c1.33301 7.33301 2.66602 12.333 3.99902 15v4l-8 -4c-32 -18.667 -67.333 -23 -106 -13c-44 10.667 -71 39.334 -81 86.001c-2.66699 17.333 -2.66699 38 0 62c0.666992 2 1 3.66699 1 5c5.33301 33.333 21 84.333 47 153c12 35.333 18.667 58 20 68
c3.33301 15.333 1.66602 24 -5.00098 26c-8 2.66699 -17.333 1 -28 -5c-14 -8.66699 -25 -22.334 -33 -41.001c-6.66699 -12 -14 -32.333 -22 -61c-2 -4 -3.33301 -6.33301 -4 -7c-1.33301 -1.33301 -9.33301 -2 -24 -2h-22l-3 3c-2 2 -3 4.66699 -3 8
c1.33301 10.667 7 27.334 17 50.001c8 17.333 16.333 31.666 25 42.999c8.66699 12 19.667 24 33 36c14.667 11.333 30.334 18.666 47.001 21.999z" />
    <glyph glyph-name="z" unicode="z" horiz-adv-x="409" 
d="M244 441l18.002 0.999023h1c19.333 -0.666992 38.666 -11 57.999 -31l9 -9c14 -13.333 25.667 -20.666 35 -21.999c4 -1.33301 6.66699 -1.33301 8 0c4.66699 1.33301 17 19.333 37 54c2.66699 5.33301 7.66699 8 15 8h14h21l3 -3
c3.33301 -3.33301 2.33301 -9.66602 -3 -18.999c-0.666992 -2 -2 -4.66699 -4 -8c-11.333 -20 -26 -41 -44 -63c-28.667 -36 -68.334 -79.333 -119.001 -130c-49.333 -48 -84 -83.667 -104 -107l-11 -12l3 -1c14.667 -0.666992 32.334 -4 53.001 -10
c28.667 -6.66699 49.667 -10 63 -10c11.333 0 19 0.666992 23 2c32.667 8.66699 55 26.334 67 53.001l2 6c2.66699 7.33301 6.33398 11.333 11.001 12c2.66699 0.666992 9 1 19 1c13.333 0 21 -0.666992 23 -2c3.33301 -2.66699 4.66602 -6.66699 3.99902 -12
c-4.66699 -21.333 -14.334 -43 -29.001 -65c-16 -24 -33.667 -42.667 -53 -56c-15.333 -10.667 -29.666 -18 -42.999 -22c-27.333 -9.33301 -50 -9.33301 -68 0c-8.66699 4 -20 12.667 -34 26c-14 14 -25.667 23.333 -35 28c-8.66699 2.66699 -18 2.66699 -28 0
c-16.667 -6 -32.667 -22 -48 -48c-2.66699 -5.33301 -5.33398 -9.33301 -8.00098 -12c-1.33301 -0.666992 -9.33301 -1 -24 -1h-21l-3 3c-3.33301 3.33301 -2 10.666 4 21.999l2 4c28 46.667 72.667 101.667 134 165l54 54c44 44 72 73 84 87l9 10l-6 2l-30 7
c-24.667 6 -42.334 9.33301 -53.001 10c-32.667 1.33301 -53.667 -7.33398 -63 -26.001c-2 -4.66699 -3.33301 -7 -4 -7c-2 -2 -9.66699 -3 -23 -3c-14.667 0 -23 0.666992 -25 2c-4.66699 3.33301 -4 12.666 2 27.999c8.66699 22 21.334 40.667 38.001 56
c20.667 20.667 43.667 33.334 69 38.001z" />
    <glyph glyph-name="braceleft" unicode="{" 
d="M100 287l2.99902 3.00098h222c148 0 223 -0.666992 225 -2c4.66699 -2.66699 5.33398 -10 2.00098 -22c-3.33301 -10.667 -5 -16.334 -5 -17.001c-1.33301 -2.66699 -4 -4 -8 -4c-10 -1.33301 -83.333 -2 -220 -2c-148 0 -223.333 1 -226 3
c-0.666992 0 -1.33398 1.33301 -2.00098 4c-1.33301 2 -0.666016 8 2.00098 18c2 10 4.33301 16.333 7 19z" />
    <glyph glyph-name="bar" unicode="|" horiz-adv-x="1022" 
d="M126 287l2.99805 2.99902h451c301.333 0 453 -0.666992 455 -2c4.66699 -2.66699 5.33398 -10 2.00098 -22c-3.33301 -13.333 -6.33301 -20.666 -9 -21.999l-772 -1c-89.333 0 -134.333 0.333008 -135 1c-2.66699 2.66699 -4 4.66699 -4 6
c-1.33301 2 -0.666016 8 2.00098 18c2 10 4.33301 16.333 7 19z" />
    <glyph glyph-name="braceright" unicode="}" 
d="M371 697l12.998 1.00098h1c8 -0.666992 13.667 -2 17 -4c8 -4 14 -10 18 -18c2 -4.66699 3 -9.66699 3 -15s-1.33301 -11 -4 -17c-3.33301 -6.66699 -5.66602 -10.667 -6.99902 -12l-107 -127c-4 -4 -10.667 -4 -20 0
c-1.33301 1.33301 -3.66602 2.66602 -6.99902 3.99902c-11.333 5.33301 -17.333 9.33301 -18 12c-1.33301 2 -1.66602 4.33301 -0.999023 7l81 144c7.33301 12 17.666 20.333 30.999 25zM523.998 697.001l12.998 1.00098h1c8 -0.666992 13.667 -2 17 -4c8 -4 14 -10 18 -18
c2 -4.66699 3 -9.66699 3 -15s-1.33301 -11 -4 -17c-3.33301 -6.66699 -5.66602 -10.667 -6.99902 -12l-107 -127c-4 -4 -10.667 -4 -20 0c-1.33301 1.33301 -3.66602 2.66602 -6.99902 3.99902c-11.333 5.33301 -17.333 9.33301 -18 12
c-1.33301 2 -1.66602 4.33301 -0.999023 7l81 144c7.33301 12 17.666 20.333 30.999 25z" />
    <glyph glyph-name="asciitilde" unicode="~" 
d="M353 666c9.33301 2 18.333 2 27 0c10 -2 24 -9.33301 42 -22c8.66699 -8 16.667 -13.333 24 -16c4 -2.66699 9.66699 -4.33398 17 -5.00098c16.667 -0.666992 37.334 10.333 62.001 33c4 3.33301 8 7 12 11c4 2 8.33301 1.33301 13 -2c14.667 -12 21 -21 19 -27
c-4.66699 -7.33301 -22.667 -25.666 -54 -54.999c-4.66699 -4 -8 -6.66699 -10 -8c-16.667 -12 -31 -19.333 -43 -22c-20.667 -4 -43 3.66699 -67 23c-10.667 8 -19 13.333 -25 16c-4 2.66699 -9.66699 4.33398 -17 5.00098c-16.667 0.666992 -37.334 -10.333 -62.001 -33
c-4 -3.33301 -8 -7 -12 -11c-4 -2 -8.33301 -1.33301 -13 2c-14.667 12 -21 21 -19 27c4.66699 7.33301 22.667 25.666 54 54.999c4.66699 4 8 6.66699 10 8c17.333 12 31.333 19 42 21z" />
    <glyph glyph-name="u00B0" unicode="&#xb0;" horiz-adv-x="307" 
d="M192 440c4.66699 1.33301 12.001 2.00098 22.001 2.00098c15.333 -0.666992 28.666 -4 39.999 -10c8.66699 -4.66699 15.334 -9.66699 20.001 -15c5.33301 -4.66699 10.333 -11.334 15 -20.001c6 -12.667 8.66699 -26 8 -40c0 -11.333 -0.666992 -19.333 -2 -24
c-0.666992 -1.33301 -15.667 -43 -45 -125c-28 -74.667 -43 -116 -45 -124c-6.66699 -22 -7.66699 -36.667 -3 -44c3.33301 -4 10.333 -4.66699 21 -2c26 6 47 38.333 63 97c3.33301 10.667 6.66602 16.334 9.99902 17.001c2 0.666992 9 1 21 1
c14.667 0 22.667 -0.666992 24 -2c4 -2.66699 4 -9.66699 0 -21c-7.33301 -26 -18.333 -50.333 -33 -73c-26.667 -40 -57 -62.333 -91 -67c-12 -2.66699 -24.333 -2 -37 2c-13.333 4 -24.333 9 -33 15c-14.667 12 -24.334 29 -29.001 51c-2.66699 12.667 -2 26 2 40
c1.33301 5.33301 16 46.333 44 123c24 64 39.333 106 46 126c6.66699 20.667 7.66699 35 3 43c-2 5.33301 -9 6.33301 -21 3c-20 -4.66699 -37.667 -25.667 -53 -63c-8.66699 -30 -13 -44.333 -13 -43c-2 -4 -3.33301 -6.33301 -4 -7c-1.33301 -1.33301 -9.33301 -2 -24 -2
h-22l-3 3c-2 2 -3 4.66699 -3 8c1.33301 10.667 7 27.334 17 50.001c8 17.333 16.333 31.666 25 42.999c8.66699 12 19.667 24 33 36c14.667 11.333 30.334 18.666 47.001 21.999z" />
    <glyph glyph-name="u00B5" unicode="&#xb5;" horiz-adv-x="883" 
d="M437 681l2.99707 1.99316h251h251l3 -3c0.666992 -0.666992 2 -2.66699 4 -6l-32 -231c-0.666992 -4 -2 -6.33301 -4 -7l-3 -3h-21h-21l-3 3c-1.33301 0.666992 -2.66602 2.33398 -3.99902 5.00098c0 0.666992 0.666992 8.33398 2 23.001
c8.66699 61.333 9.33398 102 2.00098 122s-29.333 33 -66 39c-6.66699 0.666992 -28.334 1 -65.001 1c-41.333 0.666992 -63.333 -1 -66 -5l-67 -264h70c18.667 2 34 7 46 15c14 10 26.667 36.333 38 79c2 8 4 14 6 18c2 2.66699 10.667 4 26 4s24 -2.33301 26 -7l2 -3
l-34 -135c-21.333 -88.667 -33 -135 -35 -139c-1.33301 -4 -10 -6 -26 -6s-25 2.33301 -27 7c-1.33301 2 -1 8 1 18c10 43.333 11 69.333 3 78c-3.33301 4 -8.66602 7 -15.999 9c-9.33301 3.33301 -30 5 -62 5h-33l-29 -119c-20 -77.333 -30 -118 -30 -122
c0 -1.33301 2 -2 6 -2h110c42 4 76.667 16.667 104 38c26 20 55.667 74.333 89 163c5.33301 12.667 9 20 11 22l3 3h21h21l3 -3c2.66699 -2.66699 2.66699 -8 0 -16c-3.33301 -10.667 -19.333 -52.667 -48 -126c-34.667 -89.333 -52 -133.666 -52 -132.999
c-1.33301 -2.66699 -12 -4 -32 -4c-18.667 -0.666992 -83.334 -1 -194.001 -1h-220l-3 3c-4 2.66699 -4 11.334 0 26.001c2 10 4 17 6 21c1.33301 4 8.66602 6 21.999 6c22.667 0 37 1 43 3c3.33301 0.666992 6 3.33398 8 8.00098c2.66699 6.66699 12.667 45 30 115
c19.333 77.333 29 116.333 29 117s-21.667 1 -65 1h-64l-58 -102c-37.333 -65.333 -57 -101 -59 -107c-4 -9.33301 -3.33301 -16.666 2 -21.999c8.66699 -8.66699 22.334 -13 41.001 -13c4 0 7.33301 -1 10 -3c2 -2.66699 3 -5 3 -7l-9 -40c-2 -4 -9.33301 -5.66699 -22 -5
h-15c-42.667 2.66699 -92 3 -148 1c-5.33301 -0.666992 -9.66602 -1 -12.999 -1c-16 -0.666992 -25.333 1.33301 -28 6c-0.666992 2 0.333008 9.66699 3 23c3.33301 12.667 6.33301 20.334 9 23.001c2 2 5.66699 3 11 3c8.66699 0 15 0.333008 19 1
c37.333 4 64.333 18 81 42c-1.33301 -1.33301 49 87.667 151 267l147 261h-24c-18 0 -28 2 -30 6c-1.33301 2 -0.666016 9.66699 2.00098 23c3.33301 14 6.33301 22.333 9 25zM557.997 621.993l-13 3.00098h-7l-75 -132c-50.667 -89.333 -76 -134.333 -76 -135l-1 -2h56h57
l32 131c22 89.333 33 133.666 33 132.999l-5 2h-1z" />
    <glyph glyph-name="u00B6" unicode="&#xb6;" horiz-adv-x="985" 
d="M555 704c2.66699 1.33301 9.99805 1.33203 21.998 -0.000976562c18.667 0 39.667 -3 63 -9l48 -10c5.33301 -0.666992 66.333 -1.33398 183 -2.00098h174l3 -3l3 -6l-32 -231c-0.666992 -4 -2 -6.33301 -4 -7l-3 -3h-21h-21l-3 3
c-1.33301 0.666992 -2.66602 2.33398 -3.99902 5.00098c0 0.666992 0.666992 8.33398 2 23.001c9.33301 63.333 9 105.666 -1 126.999l-10 11c-8.66699 8.66699 -21 15 -37 19s-47 6 -93 6c-44.667 0 -68.334 -2 -71.001 -6c-0.666992 -0.666992 -11 -40.667 -31 -120
l-30 -118h41c42.667 0 71 2.66699 85 8c20.667 6.66699 36 23 46 49c4 10 8 22.667 12 38c2.66699 10.667 4.33398 16.334 5.00098 17.001c2 3.33301 11 5 27 5h20l4 -3c2 -2.66699 3 -5 3 -7c0 -4.66699 -11.333 -51 -34 -139c-22 -90 -34.333 -136 -37 -138l-3 -3h-20
c-16 0 -25.333 2.33301 -28 7c-0.666992 2.66699 0 9 2 19c8.66699 35.333 10.334 58.666 5.00098 69.999c-2.66699 6 -8.33398 10.667 -17.001 14c-8.66699 4 -30.334 6.33301 -65.001 7h-9h-51l-33 -133c-22 -89.333 -33 -134.333 -33 -135c0 -1.33301 2.66699 -2 8 -2
l131 1c36.667 4 66.667 14.667 90 32c28 20 58 69.667 90 149l4 10c6.66699 18 11.334 28.333 14.001 31l3 3h21h21l3 -3c2.66699 -2.66699 2.66699 -8 0 -16c-3.33301 -10.667 -19.333 -52.667 -48 -126c-34.667 -89.333 -52 -133.666 -52 -132.999
c-1.33301 -2.66699 -14 -4 -38 -4c1.33301 0 -48.667 -0.333008 -150 -1l-183 -1l-16 -2l-42 -8c-31.333 -6.66699 -56.666 -10 -75.999 -10c-18.667 0 -36 1.66699 -52 5c-62 13.333 -109 48 -141 104c-41.333 72.667 -48.333 159.667 -21 261
c8.66699 32.667 21 64.667 37 96c40.667 81.333 98.334 147.333 173.001 198c50 33.333 101.333 53.333 154 60c3.33301 0.666992 7.66602 1 12.999 1zM581.998 656.999c-12 1.33301 -23.332 1.33203 -33.999 -0.000976562c-34 -3.33301 -68.333 -19.666 -103 -48.999
c-50 -41.333 -90 -97 -120 -167c-30.667 -69.333 -46.334 -141.333 -47.001 -216c0 -8.66699 0.333008 -17 1 -25c5.33301 -84.667 31 -139 77 -163c4 -2.66699 8.33301 -4.66699 13 -6c10.667 -4 24.667 -6 42 -6c42.667 2 72.667 16.333 90 43
c14.667 22.667 28.667 58.667 42 108l83 334c13.333 56.667 16.333 95.667 9 117c-2 4 -5 8 -9 12c-10 10 -24.667 16 -44 18z" />
    <glyph glyph-name="u00B7" unicode="&#xb7;" horiz-adv-x="831" 
d="M575 715c15.333 1.33301 29.668 0.999023 43.001 -1.00098c28 -6 46.667 -21.333 56 -46c0.666992 -2.66699 1.66699 -9 3 -19c0 -13.333 -3 -26 -9 -38c-4.66699 -10 -12.667 -20.667 -24 -32c-30 -28.667 -64.667 -41 -104 -37c-20.667 1.33301 -37.667 8.33301 -51 21
c-13.333 12 -20.333 26.667 -21 44c0 8.66699 0.333008 14.667 1 18c7.33301 32 28.666 57.333 63.999 76c13.333 6.66699 27.333 11.334 42 14.001zM607.002 670.999l-48 0.000976562c-15.333 -2 -26 -10.333 -32 -25l-5 -17c-4.66699 -18.667 -5 -30.334 -1 -35.001
c4 -6 17.667 -9 41 -9c27.333 0 44 5 50 15c1.33301 1.33301 2.33301 3 3 5c6.66699 13.333 10.667 28.333 12 45c0 6 -0.666992 10 -2 12c-2.66699 4.66699 -8.66699 7.66699 -18 9z" />
    <glyph glyph-name="u00C0" unicode="&#xc0;" horiz-adv-x="627" 
d="M221 678c1.33301 1.33301 81.3311 2.00098 239.998 2.00098h237l4 -3c2 -2.66699 3 -5.33398 3 -8.00098l-33 -233l-4 -4c-1.33301 -1.33301 -8.66602 -2 -21.999 -2c-14 0 -22 0.666992 -24 2c-4 2.66699 -5 11.667 -3 27c4 26 6.33301 49 7 69
c0 24 -1.66699 41.333 -5 52c-7.33301 21.333 -28.333 34.666 -63 39.999c-15.333 2.66699 -46 4 -92 4c-38.667 -0.666992 -59 -2.33398 -61 -5.00098l-140 -556v-1c2 -3.33301 24 -5.33301 66 -6h39l3 -3c4 -2.66699 4 -12 0 -28c-4 -12.667 -6.33301 -19.334 -7 -20.001
c-2 -3.33301 -10.667 -4.66602 -26 -3.99902h-16c-114 2.66699 -199 2.33398 -255 -0.999023h-11l-3 3c-2.66699 2.66699 -4 5.33398 -4 8.00098c0 10.667 3.33301 23.667 10 39c8 4 20.667 6 38 6c30 0.666992 47 2 51 4c3.33301 2 6 6 8 12
c4.66699 12.667 27.667 103 69 271c46 184 68.667 276 68 276c-3.33301 3.33301 -23.666 5 -60.999 5h-20l-4 3c-3.33301 4 -3 13.333 1 28c4 14 7.33301 21.667 10 23z" />
    <glyph glyph-name="u00C1" unicode="&#xc1;" horiz-adv-x="818" 
d="M561 714c2.66699 1.33301 11.665 1.99805 26.998 1.99805c16.667 0 26.667 -1.66699 30 -5c1.33301 -1.33301 24 -118.666 68 -351.999s65.667 -350.666 65 -351.999c0 -2 -1.33301 -3.66699 -4 -5l-2 -2h-336c-223.333 0 -335.666 0.666992 -336.999 2
c-2.66699 2.66699 -2 6.66699 2 12l479 694c0.666992 0.666992 3.33398 2.66699 8.00098 6zM573.998 338.998l-46 245l-337 -489c0 -0.666992 71.333 -1 214 -1c143.333 0 215 0.333008 215 1z" />
    <glyph glyph-name="u00C2" unicode="&#xc2;" horiz-adv-x="767" 
d="M540 704c18 2 36.334 1.33398 55.001 -1.99902c64 -9.33301 113.667 -41 149 -95c12 -18.667 20.333 -35.667 25 -51c12 -32 18.333 -66.333 19 -103c0.666992 -51.333 -8 -103 -26 -155c-24.667 -74 -65.667 -140 -123 -198c-52 -51.333 -108 -86.666 -168 -105.999
c-86.667 -28.667 -161.334 -20.334 -224.001 24.999c-9.33301 6.66699 -18 14 -26 22c-54.667 54.667 -78.334 130 -71.001 226c4.66699 59.333 21.667 118.666 51 177.999c42.667 84.667 101 151 175 199c52.667 34.667 107.334 54.667 164.001 60zM574.001 655.001
c-14 3.33301 -28.6689 4.00098 -44.002 2.00098c-61.333 -8.66699 -117 -46.334 -167 -113.001l-9 -13c-34 -51.333 -61 -117.666 -81 -198.999c-12.667 -52.667 -18.667 -98.667 -18 -138c0.666992 -30 5.33398 -56.333 14.001 -79c19.333 -50.667 53.333 -79.667 102 -87
c43.333 -6.66699 87.666 6.33301 132.999 39c48 35.333 87 85.333 117 150c31.333 70 51 143.667 59 221c0.666992 3.33301 1 6.66602 1 9.99902c2.66699 26.667 2.33398 51.667 -0.999023 75c-8 43.333 -23 76.666 -45 99.999
c-17.333 16.667 -37.666 27.334 -60.999 32.001zM348.999 420.002l3 3h21h21l3 -3c4 -2.66699 4.66699 -9 2 -19c-2 -6.66699 -3 -10.334 -3 -11.001s28.333 -1 85 -1h85l3 14c2.66699 10 5 15.667 7 17l3 3h21h21l3 -3c0.666992 -0.666992 2 -2.66699 4 -6
c0 -2 -6 -27 -18 -75c-12 -48.667 -19 -73.667 -21 -75l-3 -3h-21h-21l-3 3c-4 2.66699 -4.66699 9 -2 19c2 6.66699 3 10.334 3 11.001s-28.333 1 -85 1h-85l-3 -14c-2.66699 -10 -5 -15.667 -7 -17l-3 -3h-21h-21l-3 3c-0.666992 0.666992 -2 2.66699 -4 6
c0 2 6 27.333 18 76c12 48 19 72.667 21 74z" />
    <glyph glyph-name="u00C3" unicode="&#xc3;" horiz-adv-x="692" 
d="M499 714c2.66699 1.33301 11.3379 1.99609 26.0049 1.99609c16 0 25 -1.66699 27 -5c2 -2.66699 6 -111 12 -325c5.33301 -214.667 8.66602 -322.667 9.99902 -324c0.666992 -0.666992 2 -1.66699 4 -3c5.33301 -2 20.666 -3 45.999 -3h17l4 -3
c2 -3.33301 3 -5.66602 3 -6.99902l-9 -40c-2 -4 -9 -5.66699 -21 -5h-15c-42 2.66699 -101 3 -177 1c-6.66699 -0.666992 -12.334 -1 -17.001 -1c-22 -0.666992 -34.667 1.33301 -38 6l-1 3l5 20c3.33301 12.667 5.66602 20.334 6.99902 23.001l4 3h21
c14.667 1.33301 24.667 2 30 2c12.667 2.66699 20.667 5 24 7c1.33301 1.33301 -0.333984 74.333 -5.00098 219l-6 226v8l-112 -211c-74 -138 -112 -210.333 -114 -217c-5.33301 -12 -1 -21 13 -27c7.33301 -3.33301 17 -5.66602 29 -6.99902
c8.66699 0 14.334 -2.33301 17.001 -7c0.666992 -2 -0.333008 -9.66699 -3 -23c-3.33301 -12.667 -6.33301 -20.334 -9 -23.001l-3 -3h-11c-52.667 2.66699 -100.334 3.33398 -143.001 2.00098l-43 -2c-4 0 -7 1 -9 3c-2.66699 2.66699 -4 5 -4 7l9 39
c2 4.66699 6.66699 7 14 7c12 0 24 1.66699 36 5c22 4.66699 39.667 17.667 53 39c2 3.33301 56 105.333 162 306c105.333 200 159 301 161 303c2.66699 2.66699 4.66699 4.33398 6 5.00098z" />
    <glyph glyph-name="u00C4" unicode="&#xc4;" horiz-adv-x="664" 
d="M247 674l2.99902 3.00195h248c166.667 0 251.667 -2 255 -6c1.33301 -2.66699 -3 -29.334 -13 -80.001c-11.333 -52 -17 -78.333 -17 -79c0 -2 -1.33301 -3.66699 -4 -5c-1.33301 -1.33301 -9 -2 -23 -2h-21l-3 3c-1.33301 0.666992 -2.66602 2.33398 -3.99902 5.00098
c0 3.33301 1 10.666 3 21.999c4.66699 23.333 7 38.666 7 45.999v7h-4c-8.66699 2 -77.667 3 -207 3c-118 -0.666992 -179.667 -2 -185 -4c-4 -2 -12 -21.333 -24 -58c-3.33301 -12 -6 -19 -8 -21l-3 -3h-21h-21l-3 3c-0.666992 0.666992 -2 2.66699 -4 6
c0 1.33301 7 27 21 77c10 33.333 18 59 24 77c0 2.66699 1.33301 4.66699 4 6zM264.999 439.002l3 3h21h21l3 -3c3.33301 -2.66699 3.66602 -10 0.999023 -22c0 -1.33301 -0.333008 -2.66602 -1 -3.99902l-5 -18h123l122 1l5 20c3.33301 14 6.33301 21.667 9 23l3 3h21h21
l3 -3l4 -5c0 -2 -6.66699 -30 -20 -84c-14 -55.333 -22 -83.666 -24 -84.999l-3 -3h-21h-21l-3 3c-3.33301 2.66699 -3.66602 10 -0.999023 22c0 1.33301 0.333008 2.66602 1 3.99902l5 18h-123h-122l-5 -21c-3.33301 -14 -6.33301 -21.667 -9 -23l-3 -3h-21h-21l-3 3l-4 5
c0 2 6.66699 30 20 84c14 55.333 22 83.666 24 84.999zM111.999 181.002c1.33301 1.33301 9.00098 2.00195 23.001 2.00195h21l3 -3c1.33301 -0.666992 2.66602 -2.33398 3.99902 -5.00098c0 -4.66699 -1.33301 -12.667 -4 -24c-5.33301 -30 -8 -48.333 -8 -55l1 -6l4 -1
c11.333 -2 81.666 -3 210.999 -3c118 0.666992 180.333 2 187 4c2 0.666992 4.66699 4.33398 8 11.001c6 10.667 13 30.667 21 60c2.66699 10 5.33398 16.333 8.00098 19l3 3h21h21l3 -3c0.666992 -0.666992 2 -2.66699 4 -6c0 -3.33301 -7.66699 -31.333 -23 -84
c-16.667 -56.667 -25 -84.334 -25 -83.001c-0.666992 -1.33301 -2 -3 -4 -5c-2 -1.33301 -87.667 -2 -257 -2h-253l-4 3c-2 3.33301 -3 5.66602 -3 6.99902l34 166c0 2 1.33301 3.66699 4 5z" />
    <glyph glyph-name="u00C5" unicode="&#xc5;" horiz-adv-x="743" 
d="M221 678c1.33301 1.33301 107.334 1.99805 318.001 1.99805h316l4 -3c2 -2.66699 3 -5.33398 3 -8.00098c0 -10.667 -3.33301 -23.667 -10 -39c-8 -4 -20.333 -6 -37 -6c-30.667 -0.666992 -48 -2 -52 -4c-3.33301 -2 -6 -6 -8 -12
c-4.66699 -12.667 -27.667 -103 -69 -271c-46 -184 -68.667 -276 -68 -276c3.33301 -3.33301 23.666 -5 60.999 -5h20l4 -3c2 -3.33301 3 -6 3 -8c0 -10.667 -3.33301 -23.667 -10 -39c-2 -4 -9 -5.66699 -21 -5h-17c-99.333 2.66699 -178 2.33398 -236 -0.999023h-11l-3 3
c-2.66699 2.66699 -4 5.33398 -4 8.00098c0 10.667 3.33301 23.667 10 39c8 4 20.667 6 38 6c30 0.666992 47 2 51 4c3.33301 2 6 6 8 12c4.66699 13.333 28 104 70 272c46 185.333 69 278.333 69 279s-41 1 -123 1h-123l-70 -281c-47.333 -188 -70.333 -282 -69 -282
c3.33301 -3.33301 23.666 -5 60.999 -5h20l4 -3c2 -2.66699 3 -5.33398 3 -8.00098c0 -10.667 -3.33301 -23.667 -10 -39c-2 -4 -9 -5.66699 -21 -5h-17c-99.333 2.66699 -178 2.33398 -236 -0.999023h-11l-3 3c-2.66699 2.66699 -4 5.33398 -4 8.00098
c0 10.667 3.33301 23.667 10 39c8 4 20.667 6 38 6c30 0.666992 47 2 51 4c3.33301 2 6 6 8 12c4.66699 12.667 27.667 103 69 271c46 184 68.667 276 68 276c-3.33301 3.33301 -23.666 5 -60.999 5h-20l-4 3c-3.33301 4 -3 13.333 1 28c4 14 7.33301 21.667 10 23z" />
    <glyph glyph-name="u00C6" unicode="&#xc6;" horiz-adv-x="716" 
d="M251 681c1.33301 1.33301 89.001 1.99805 263.001 1.99805h261l3 -3c0.666992 -0.666992 2 -2.66699 4 -6l-32 -231c-0.666992 -4 -2 -6.33301 -4 -7l-3 -3h-21h-21l-3 3c-2.66699 2 -3.33398 10 -2.00098 24c9.33301 65.333 4.33301 109.333 -15 132
c-8.66699 10.667 -21.334 18.667 -38.001 24c-22 6.66699 -65.333 10.334 -130 11.001h-52c-62.667 0 -94 -0.666992 -94 -2c-0.666992 0.666992 20 -46.666 62 -141.999l62 -141l-1 -4v-1l-276 -265l-6 -6h114c80.667 0.666992 131 2.33398 151 5.00098
c50 7.33301 88.667 28 116 62c0.666992 1.33301 1.66699 2.66602 3 3.99902c16 21.333 32 54 48 98l7 20c2 3.33301 11 5 27 5h20l4 -3c2 -3.33301 3 -5.66602 3 -6.99902l-86 -245c-1.33301 -2.66699 -10.333 -4 -27 -4c-20.667 -0.666992 -101 -1 -241 -1h-260l-4 3
c-2 3.33301 -3 6 -3 8c0 3.33301 3 8 9 14l151 144l141 136c0 -0.666992 -24 55 -72 167l-73 165l4 19c4.66699 15.333 8.33398 23.666 11.001 24.999z" />
    <glyph glyph-name="u00C7" unicode="&#xc7;" horiz-adv-x="767" 
d="M366 703c17.333 3.33301 35.3311 2.66504 53.998 -2.00195c33.333 -9.33301 57 -30.333 71 -63c14.667 -32 20.334 -73 17.001 -123c-0.666992 -8 -1 -15.333 -1 -22l5 10c10.667 24.667 21 45.667 31 63c18.667 32 38.334 58.333 59.001 79
c28.667 28.667 59 46.667 91 54c12.667 4 28.334 6 47.001 6c13.333 -0.666992 26.333 -4 39 -10c33.333 -16.667 51 -48.667 53 -96c0.666992 -13.333 -0.333008 -27.333 -3 -42c-2 -10 -5 -16.333 -9 -19c-2.66699 -2 -10.334 -3 -23.001 -3c-15.333 0 -24 1.66699 -26 5
c-0.666992 2 -0.333984 6 0.999023 12c4.66699 25.333 -4.33301 44 -27 56c-4 2 -8.66699 3.66699 -14 5c-25.333 6.66699 -51.333 2.33398 -78 -12.999c-41.333 -25.333 -76 -80.333 -104 -165c-9.33301 -30 -17 -57 -23 -81l-73 -290
c-0.666992 -2.66699 3.33301 -4.33398 12 -5.00098c9.33301 -1.33301 28 -2.33301 56 -3h39l3 -4c2 -2 3 -4 3 -6l-9 -40c-2 -4 -9 -5.66699 -21 -5h-23c-117.333 2.66699 -209.666 2.33398 -276.999 -0.999023h-13l-3 3c-2.66699 2.66699 -4 5 -4 7l9 40
c2 4 9.66699 6 23 6h24c41.333 0.666992 65.333 3.33398 72 8.00098c2 1.33301 14.667 48.666 38 141.999c28 110.667 44.333 177.334 49 200.001c8 40.667 12 75.334 12 104.001c0 27.333 -4 50 -12 68c-8 16.667 -21 27.667 -39 33c-34.667 10.667 -66 4 -94 -20
c-12 -10 -21 -23.333 -27 -40c-3.33301 -8.66699 -7.33301 -13.667 -12 -15c-2 -0.666992 -9.66699 -1 -23 -1c-11.333 0 -18 1 -20 3c-1.33301 0.666992 -2 2.66699 -2 6c0 9.33301 5.33301 25.333 16 48c25.333 51.333 61 85.666 107 102.999c9.33301 4 19 6.66699 29 8z
" />
    <glyph glyph-name="u00C8" unicode="&#xc8;" horiz-adv-x="716" 
d="M364 682c1.33301 0.666992 7.33496 1.00098 18.002 1.00098c83.333 -3.33301 174 -3.66602 272 -0.999023c22.667 0.666992 35.334 -1 38.001 -5c1.33301 -2 0.666016 -9.66699 -2.00098 -23c-3.33301 -14 -6.33301 -22 -9 -24c-2 -2 -16 -3 -42 -3
c-43.333 -0.666992 -68 -3.66699 -74 -9c-1.33301 -1.33301 -6 -17 -14 -47c-7.33301 -30.667 -11.333 -46.334 -12 -47.001c0 -1.33301 4 -2.33301 12 -3c30 -4.66699 58.333 -13.334 85 -26.001c45.333 -22.667 74 -52 86 -88c16.667 -50 1 -99 -47 -147
c-22.667 -22 -50.667 -41.333 -84 -58c-40.667 -20 -86.334 -33.667 -137.001 -41h-5l-12 -47l-12 -49c-0.666992 -2 0 -3.33301 2 -4c4.66699 -2.66699 26.334 -4.33398 65.001 -5.00098h39l3 -4c2 -2 3 -4 3 -6l-9 -40c-2 -4 -9 -5.66699 -21 -5h-22
c-114.667 2.66699 -205.334 2.33398 -272.001 -0.999023h-13l-3 3c-2.66699 2.66699 -4 5 -4 7l9 40c2 4 9.66699 6 23 6h24c41.333 0.666992 65.333 3.33398 72 8.00098c2 1.33301 7 18 15 50l12 47l-15 2c-56 8 -100.333 28 -133 60c-12.667 12 -22.334 25 -29.001 39
c-7.33301 14 -11.333 29.333 -12 46c0 11.333 0.333008 19.333 1 24c5.33301 26 17.333 50.333 36 73c11.333 15.333 26 29.333 44 42c53.333 40 116.333 64.667 189 74l9 1l1 4c15.333 65.333 23 96.666 23 93.999c0 4 -22 6.33301 -66 7h-39l-4 4
c-3.33301 3.33301 -3 12.333 1 27c4 14 7.33301 22 10 24zM426.002 473.001c0 1.33301 -3.66602 1.33301 -10.999 0c-30 -5.33301 -55 -15 -75 -29c-12.667 -7.33301 -23.334 -18 -32.001 -32c-12 -18.667 -21 -38.334 -27 -59.001c-11.333 -39.333 -13.333 -70.333 -6 -93
c6.66699 -18 21 -31.667 43 -41c12 -5.33301 24.333 -8.66602 37 -9.99902l5 -1l32 132c22.667 86 34 130.333 34 133zM540.003 473.001c-6.66699 1.33301 -10.3301 2 -10.9971 2c-2.66699 0 -23.667 -82 -63 -246c-3.33301 -13.333 -5 -20.333 -5 -21
c3.33301 0 13.666 2 30.999 6c40 10 69.333 29.333 88 58c14.667 21.333 25.667 52 33 92c3.33301 17.333 3.66602 34.666 0.999023 51.999c-3.33301 12 -8.33301 21.333 -15 28c-14.667 14.667 -34.334 24.334 -59.001 29.001z" />
    <glyph glyph-name="u00C9" unicode="&#xc9;" horiz-adv-x="767" 
d="M390 682c1.33301 0.666992 7.33691 0.99707 18.0039 0.99707c83.333 -3.33301 174 -3.66602 272 -0.999023c22.667 0.666992 35.334 -1 38.001 -5c1.33301 -2 0.666016 -9.66699 -2.00098 -23c-3.33301 -14 -6.33301 -22 -9 -24c-2 -2 -16 -3 -42 -3
c-43.333 -0.666992 -68 -3.66699 -74 -9c-2 -1.33301 -19.333 -68.333 -52 -201c-34 -133.333 -51 -200.333 -51 -201c0 -1.33301 2 -1.33301 6 0c30.667 10.667 56 28.334 76 53.001c31.333 34.667 55 82.334 71 143.001c16.667 68.667 38.667 109.667 66 123l12 4
c4.66699 1.33301 21.667 2 51 2c31.333 0 48.333 -2.33301 51 -7c1.33301 -2 0.666016 -8 -2.00098 -18c-2.66699 -12.667 -6.33398 -19.667 -11.001 -21c-1.33301 -0.666992 -3 -1 -5 -1c-10.667 -0.666992 -19.667 -5.33398 -27 -14.001
c-6.66699 -6.66699 -10.667 -11.334 -12 -14.001c-9.33301 -14.667 -17.333 -34.667 -24 -60c-12.667 -52.667 -35 -98.667 -67 -138c-44 -55.333 -102.333 -89.666 -175 -102.999l-20 -4h-3l-12 -47l-12 -49c-0.666992 -2 0 -3.33301 2 -4
c4.66699 -2.66699 26.334 -4.33398 65.001 -5.00098h39l3 -4c2 -2 3 -4 3 -6l-9 -40c-2 -4 -9 -5.66699 -21 -5h-22c-114.667 2.66699 -205.334 2.33398 -272.001 -0.999023h-13l-3 3c-2.66699 2.66699 -4 5 -4 7l9 40c2 4 9.66699 6 23 6h24
c41.333 0.666992 65.333 3.33398 72 8.00098c2 1.33301 7 18 15 50c8 31.333 12 47.333 12 48l-12 2c-78 14.667 -123.667 57 -137 127c-3.33301 15.333 -4.66602 32 -3.99902 50s4 41.333 10 70c6 25.333 8 45.666 6 60.999c-2.66699 12.667 -9.66699 20 -21 22
c-6 0.666992 -10 3 -12 7c-0.666992 2.66699 0 8.33398 2 17.001c3.33301 12 6.33301 19 9 21c1.33301 1.33301 17.666 2 48.999 2c29.333 0 46.666 -1 51.999 -3c12 -5.33301 20.333 -14.333 25 -27c1.33301 -4.66699 2 -13.667 2 -27c0 -19.333 -3.33301 -43.333 -10 -72
c-5.33301 -20.667 -9 -39.334 -11 -56.001c-4.66699 -34 -2.33398 -63.333 6.99902 -88c4.66699 -12.667 11.667 -23.667 21 -33c8 -8 17.667 -14.667 29 -20l8 -3l50 203c34 134.667 51 202.667 51 204c0 4.66699 -22 7.33398 -66 8.00098h-39l-4 4
c-3.33301 3.33301 -3 12.333 1 27c4 14 7.33301 22 10 24z" />
    <glyph glyph-name="u00CA" unicode="&#xca;" horiz-adv-x="716" 
d="M510 704c14 2.66699 35.3379 2.00293 64.0049 -1.99707c50 -8 91.333 -26.333 124 -55c29.333 -26 48.666 -59.667 57.999 -101c4 -20.667 4.66699 -43 2 -67c-5.33301 -38.667 -21.333 -80 -48 -124c-19.333 -32.667 -52.333 -77 -99 -133
c-34.667 -42.667 -58.667 -74.334 -72 -95.001c-13.333 -19.333 -22 -33 -26 -41c0 -0.666992 10.333 -1 31 -1l37 2c9.33301 2 15 4.33301 17 7c9.33301 17.333 19.666 39 30.999 65c4 10 7.66699 16.667 11 20l3 3h20c14 0 21.667 -0.666992 23 -2
c4 -1.33301 6 -4.33301 6 -9c0 -2 -12 -30 -36 -84c-24.667 -56 -37.667 -84.333 -39 -85c-2 -1.33301 -31.667 -2 -89 -2h-86l-4 3c-3.33301 4 -3 12.667 1 26c14.667 48 41.667 108.333 81 181c0.666992 1.33301 10.667 20 30 56
c54.667 97.333 85.334 176.666 92.001 237.999c0.666992 2 1 3.66699 1 5c2.66699 22 2 41.333 -2 58c-6.66699 32.667 -22.334 56.667 -47.001 72c-36 24 -79.667 26.333 -131 7c-5.33301 -2 -10.333 -4 -15 -6c-22.667 -10.667 -42.334 -24.334 -59.001 -41.001
c-50 -46.667 -80 -115.667 -90 -207c-4 -34 -4.33301 -84 -1 -150c4 -79.333 3.66699 -137 -1 -173c-2.66699 -30.667 -6.66699 -51.667 -12 -63c-2 -3.33301 -8.66699 -5.33301 -20 -6h-73h-85l-4 3c-2 2 -3 5 -3 9l10 157c0 4 1.33301 7.33301 4 10l3 3h20
c16.667 0 26 -2 28 -6c0.666992 -2 0.666992 -8.33301 0 -19l-1 -63c0 -3.33301 1.33301 -5.33301 4 -6c6.66699 -2 23.667 -3 51 -3h28v6c0 13.333 -3 33.666 -9 60.999c-2.66699 10.667 -10 37 -22 79c-18.667 60.667 -29.334 105.334 -32.001 134.001
c-2.66699 20.667 -2.33398 42.334 0.999023 65.001c8 49.333 29 95.333 63 138c14 18 31.667 35.667 53 53c61.333 47.333 126.333 74.666 195 81.999c4 0.666992 8.66699 1 14 1z" />
    <glyph glyph-name="u00CB" unicode="&#xcb;" horiz-adv-x="613" 
d="M392 704c14.667 2 32.9941 1.33203 54.9941 -2.00098c35.333 -7.33301 58.666 -21.666 69.999 -42.999c11.333 -19.333 11.333 -40.333 0 -63c-2.66699 -6.66699 -6.66699 -12.334 -12 -17.001c-6.66699 -6.66699 -12.334 -11 -17.001 -13
c-18.667 -8.66699 -36.334 -9 -53.001 -1c-10.667 6.66699 -17 16 -19 28c-3.33301 18 3 35.333 19 52l7 8l-6 1c-28.667 8.66699 -55.667 5.33398 -81 -9.99902c-8.66699 -6 -15.667 -17.333 -21 -34c-7.33301 -20.667 -17 -63 -29 -127
c-6.66699 -32.667 -10 -49.334 -10 -50.001v-2h104l103 1l3 14l23 113c8 30.667 16.667 54.667 26 72c20 36 47.667 59.333 83 70c4.66699 1.33301 9.33398 2.33301 14.001 3c18 3.33301 36.333 1 55 -7c25.333 -9.33301 41 -26.333 47 -51
c2.66699 -10.667 2.66699 -21.667 0 -33c0 -4.66699 -2 -10.334 -6 -17.001c-2.66699 -6.66699 -6.66699 -12.334 -12 -17.001c-6.66699 -6.66699 -12.334 -11 -17.001 -13c-18.667 -8.66699 -36.334 -9 -53.001 -1c-10.667 6.66699 -17 16 -19 28
c-2.66699 19.333 4 37.333 20 54c2 2 4 3.66699 6 5l4 3l-4 1c-8.66699 2 -15.334 2 -20.001 0c-6 -2.66699 -11.333 -8.33398 -16 -17.001c-4 -6.66699 -14.333 -53.334 -31 -140.001c-8.66699 -42.667 -13 -64.334 -13 -65.001v-3h53c38 0 58.333 -2.33301 61 -7
c1.33301 -2 0.333008 -9.66699 -3 -23c-3.33301 -14 -6 -21.667 -8 -23l-3 -3h-55h-56l-1 -5c0 -2 -8 -43.667 -24 -125c-22.667 -119.333 -38 -193.666 -46 -222.999c-16.667 -70.667 -37.667 -121.334 -63 -152.001c-31.333 -39.333 -67.333 -63.333 -108 -72
c-2 -0.666992 -4 -1 -6 -1c-31.333 -5.33301 -60 -0.333008 -86 15c-11.333 6 -20 15.333 -26 28c-11.333 20 -11.333 41.333 0 64c2.66699 6.66699 6.66699 12.334 12 17.001c6.66699 6.66699 12.334 11 17.001 13c18.667 8.66699 36.334 9 53.001 1
c16.667 -8.66699 22.667 -24 18 -46l-2 -8c-2.66699 -8.66699 -8 -17.667 -16 -27l-9 -8l7 -2c15.333 -2.66699 27 -2.33398 35 0.999023c16.667 6 32 19.667 46 41c2.66699 2.66699 4.66699 5.66699 6 9c6.66699 12.667 15.334 42 26.001 88c10 44 28 134.333 54 271
l24 121h-104h-104l-23 -123c-26.667 -134 -43 -213.667 -49 -239c-21.333 -86 -46.666 -145 -75.999 -177c-2 -2.66699 -4 -5 -6 -7c-31.333 -31.333 -64.666 -41 -99.999 -29c-21.333 6.66699 -36.666 19.667 -45.999 39c-4 10 -6 20 -6 30
c0 12.667 2.66699 24.334 8 35.001c2.66699 6.66699 6.66699 12.334 12 17.001c6.66699 6.66699 12.334 11 17.001 13c18.667 8.66699 36.334 9 53.001 1c16.667 -8.66699 22.667 -24 18 -46l-2 -8c-4.66699 -15.333 -13 -26.666 -25 -33.999
c-3.33301 -2 -1.33301 -3.66699 6 -5c4.66699 0 8.33398 1 11.001 3c6.66699 4.66699 11.667 12.334 15 23.001c2.66699 6.66699 5.33398 19 8.00098 37c4.66699 31.333 15 80 31 146c12.667 58 26.334 125.667 41.001 203c16 78.667 24 118.334 24 119.001
c0 1.33301 -15.667 2 -47 2h-47l-4 3c-2 2.66699 -3 5 -3 7l11 41c1.33301 3.33301 11.333 5 30 5h23h48l2 15c12 60 19 94.333 21 103c16 62 44.333 105 85 129c3.33301 2 7 4 11 6c22 10.667 44.333 17.334 67 20.001z" />
    <glyph glyph-name="u00CC" unicode="&#xcc;" horiz-adv-x="562" 
d="M429 704c19.333 1.33301 42.3252 0.99707 68.9922 -1.00293c26.667 -4 47.667 -10 63 -18c31.333 -15.333 46.333 -38 45 -68c-2 -33.333 -18 -55 -48 -65c-1.33301 0 -2.66602 -0.333008 -3.99902 -1c-19.333 -5.33301 -35.333 -1.33301 -48 12
c-12.667 14 -13.334 32.667 -2.00098 56c4.66699 10.667 11.334 18.667 20.001 24c2.66699 1.33301 0 3.33301 -8 6c-14.667 5.33301 -38.667 8 -72 8s-56.666 -3 -69.999 -9c-18 -6.66699 -31.333 -22 -40 -46c-2.66699 -6 -5.33398 -13.667 -8.00098 -23
c-5.33301 -17.333 -12.333 -49.333 -21 -96c-6.66699 -32.667 -10 -49.334 -10 -50.001v-2h129h128l3 -3c2 -2 3 -4 3 -6s-13.333 -56.333 -40 -163s-40.667 -164 -42 -172c-2.66699 -18.667 -3 -31.667 -1 -39c1.33301 -3.33301 3.33301 -6 6 -8c2 -2 5 -3 9 -3
c4.66699 0 8.33398 0.666992 11.001 2c12.667 9.33301 25.667 39.666 39 90.999c3.33301 12.667 6 19.667 8 21c1.33301 1.33301 9.33301 2 24 2s23 -0.666992 25 -2c1.33301 -1.33301 2 -4 2 -8s-1.66699 -12 -5 -24c-25.333 -86 -62 -129.333 -110 -130
c-4.66699 0 -9.33398 0.333008 -14.001 1c-40 5.33301 -66.333 27 -79 65c-1.33301 5.33301 -2 14.333 -2 27v19l34 136c22.667 89.333 34 135 34 137c0 0.666992 -28.667 1 -86 1c-58 0 -87 -0.333008 -87 -1c0 -5.33301 -17.667 -96.333 -53 -273
c-24 -122.667 -50.667 -205 -80 -247c-6.66699 -8.66699 -13.667 -17 -21 -25c-31.333 -31.333 -64.666 -41 -99.999 -29c-21.333 6.66699 -36.666 19.667 -45.999 39c-4 10 -6 20 -6 30c0 12.667 2.66699 24.334 8 35.001c2.66699 6.66699 6.66699 12.334 12 17.001
c6.66699 6.66699 12.334 11 17.001 13c18.667 8.66699 36.334 9 53.001 1c16.667 -8.66699 22.667 -24 18 -46l-2 -8c-4.66699 -15.333 -13 -26.666 -25 -33.999c-3.33301 -2 -1.33301 -3.66699 6 -5c4.66699 0 8.33398 1 11.001 3c6.66699 4.66699 11.667 12.334 15 23.001
c2.66699 6.66699 5.33398 19 8.00098 37c4.66699 31.333 15 80 31 146c12.667 58 26.334 125.667 41.001 203c16 78.667 24 118.334 24 119.001c0 1.33301 -15.667 2 -47 2h-47l-4 3c-2 2.66699 -3 5 -3 7l11 41c1.33301 3.33301 11.333 5 30 5h23h48l6 35
c12 62 24.333 106.333 37 133c32.667 64 92.667 99 180 105z" />
    <glyph glyph-name="u00CD" unicode="&#xcd;" horiz-adv-x="588" 
d="M400 704c48 5.33301 86.6621 -2.33594 115.995 -23.0029c2 -0.666992 3.66699 -1.66699 5 -3c16 -14 24 -30 24 -48v-4c0.666992 0.666992 3.33398 10.334 8.00098 29.001c6 21.333 9 32.666 9 33.999c1.33301 3.33301 11.666 5 30.999 5h14h37l3 -3
c2 -2 3 -3.66699 3 -5c0 -0.666992 -24.333 -99 -73 -295c-49.333 -198.667 -74.333 -300 -75 -304c-2.66699 -18.667 -3 -31.667 -1 -39c0.666992 -2.66699 2.33398 -5.33398 5.00098 -8.00098c1.33301 -1.33301 4.66602 -2.66602 9.99902 -3.99902c4 0 7.33301 1 10 3
c14 8.66699 27.333 39.334 40 92.001c4 13.333 7.33301 20.333 10 21c2 0.666992 9.33301 1 22 1c14.667 0 23 -0.666992 25 -2c1.33301 -1.33301 2 -4 2 -8c0 -9.33301 -5.33301 -28.333 -16 -57c-8 -22 -16.333 -39 -25 -51c-24 -36 -54.333 -51 -91 -45
c-14.667 4 -25.667 7.66699 -33 11c-20.667 10.667 -35 28.667 -43 54c-1.33301 5.33301 -2 14.333 -2 27v19l34 136c22.667 89.333 34 135 34 137c0 0.666992 -33 1 -99 1h-100l-19 -103c-28 -146 -46.667 -236 -56 -270c-15.333 -64 -34 -112 -56 -144
c-27.333 -42 -58.333 -63 -93 -63c-22 0 -41 6.33301 -57 19c-12 10 -19.667 22.667 -23 38c-2.66699 12 -2.66699 23.667 0 35c0 4.66699 2 10.334 6 17.001c2.66699 6.66699 6.66699 12.334 12 17.001c6.66699 6.66699 12.334 11 17.001 13
c18.667 8.66699 36.334 9 53.001 1c16.667 -8.66699 22.667 -24 18 -46l-2 -8c-4.66699 -15.333 -13 -26.666 -25 -33.999c-3.33301 -2.66699 -1.66602 -4.33398 5.00098 -5.00098c4.66699 0 8.33398 0.666992 11.001 2c8.66699 5.33301 14.667 15.333 18 30
c0.666992 2 2.33398 9.66699 5.00098 23c4.66699 32.667 14.334 79.667 29.001 141c12 51.333 26.667 122.333 44 213c16 80.667 24 121.334 24 122.001v2h-47h-47l-3 3c-4 2.66699 -4 11.334 0 26.001c2 10 4 17 6 21c2 3.33301 8.33301 5.33301 19 6h35h48l4 22
c14 73.333 26 121.666 36 144.999c16.667 37.333 43.667 65.666 81 84.999c23.333 11.333 47.666 18.333 72.999 21zM445.995 655.998l-44.998 0.999023c-18 -2 -32.667 -6.66699 -44 -14c-7.33301 -4.66699 -13 -10.667 -17 -18c-8.66699 -18.667 -20.667 -69 -36 -151
c-5.33301 -23.333 -8 -37 -8 -41c-0.666992 -0.666992 0.666016 -1 3.99902 -1c4.66699 -0.666992 36.667 -1 96 -1h102l20 82c14 57.333 21 85.333 21 84c0 0.666992 -1 -0.666016 -3 -3.99902c-1.33301 -2 -5 -7 -11 -15c-7.33301 -6 -13 -10 -17 -12
c-18.667 -8.66699 -36.334 -9 -53.001 -1c-10.667 6.66699 -17 16 -19 28c-3.33301 17.333 2.66699 34.333 18 51l7 8l-3 1z" />
    <glyph glyph-name="u00CE" unicode="&#xce;" horiz-adv-x="882" 
d="M407 704l54.9922 -1.00488c36 -6.66699 61 -18.334 75 -35.001c17.333 -21.333 19.333 -45.333 6 -72c-2.66699 -6.66699 -6.66699 -12.334 -12 -17.001c-6.66699 -6.66699 -12.334 -11 -17.001 -13c-18.667 -8.66699 -36.334 -9 -53.001 -1
c-10.667 6.66699 -17 16 -19 28c-3.33301 17.333 2.66699 34.333 18 51l7 8l-9 2c-36.667 8 -67.667 6 -93 -6c-12.667 -7.33301 -21.334 -16.333 -26.001 -27c-0.666992 -1.33301 -1.33398 -3 -2.00098 -5c-8.66699 -21.333 -19 -64.666 -31 -129.999l-11 -52v-3h109
c72.667 0 109 0.333008 109 1l21 103c8 32.667 20 61.334 36 86.001c12.667 19.333 28.334 34.666 47.001 45.999c38 25.333 88.333 38 151 38c56.667 0 99.334 -9.66699 128.001 -29c9.33301 -6 17 -14.667 23 -26c4.66699 -10 7 -21 7 -33c-2 -33.333 -18 -55 -48 -65
c-1.33301 0 -2.66602 -0.333008 -3.99902 -1c-19.333 -5.33301 -35.333 -1.33301 -48 12c-12.667 14 -13.334 32.667 -2.00098 56c4.66699 10.667 11.334 18.667 20.001 24c2.66699 1.33301 0 3.33301 -8 6c-18 6 -44 9 -78 9c-46.667 0 -78.667 -7.33301 -96 -22
c-12.667 -10.667 -24 -37 -34 -79c-4 -14.667 -11.333 -50.667 -22 -108l-4 -17l136 -1h135l3 -3c1.33301 -2.66699 2 -4.66699 2 -6c0 -2 -13.333 -56.333 -40 -163s-40.667 -164 -42 -172c-2.66699 -16.667 -3 -29 -1 -37c2.66699 -10 8.66699 -14.667 18 -14
c2 0.666992 4.33301 1.66699 7 3c14 8.66699 27.333 39.334 40 92.001c4 13.333 7.33301 20.333 10 21c2 0.666992 9.33301 1 22 1c14.667 0 23 -0.666992 25 -2c1.33301 -1.33301 2 -4 2 -8c0 -9.33301 -5.33301 -28.333 -16 -57c-10 -24.667 -18.667 -42 -26 -52
c-23.333 -35.333 -53.333 -50 -90 -44c-39.333 7.33301 -64.666 29 -75.999 65c-1.33301 5.33301 -2 14.333 -2 27v19l34 136c22.667 89.333 34 135 34 137c0 0.666992 -31 1 -93 1h-93l-19 -103c-27.333 -137.333 -44.666 -222 -51.999 -254
c-17.333 -68.667 -38.333 -117.667 -63 -147c-26 -31.333 -55.667 -53.666 -89 -66.999c-40 -14.667 -77.667 -13 -113 5c-8 4 -15 9 -21 15c-6.66699 6.66699 -11 12.334 -13 17.001c-5.33301 10 -8 20 -8 30c0 12 2.66699 23 8 33
c2.66699 6.66699 6.66699 12.334 12 17.001c6.66699 6.66699 12.334 11 17.001 13c18.667 8.66699 36.334 9 53.001 1c16.667 -8.66699 22.667 -24 18 -46l-2 -8c-2.66699 -9.33301 -8 -18 -16 -26l-8 -8l5 -2c14 -2 22.333 -3 25 -3c12 0 25 5 39 15
c16.667 12.667 28.334 26.667 35.001 42c8.66699 18 18.667 53.667 30 107c7.33301 30 23 107.333 47 232c17.333 89.333 26 134.333 26 135v2h-109h-109l-1 -5c0 -0.666992 -8.33301 -44 -25 -130c-25.333 -131.333 -41.666 -211.333 -48.999 -240
c-20.667 -80.667 -47 -137.334 -79 -170.001l-3 -3c-8 -8.66699 -18.667 -16.334 -32 -23.001c-12 -6 -24 -8.66699 -36 -8c-15.333 0 -29 3 -41 9c-15.333 6.66699 -26.666 18 -33.999 34c-4 10 -6 20 -6 30c0 12.667 2.66699 24.334 8 35.001
c2.66699 6.66699 6.66699 12.334 12 17.001c6.66699 6.66699 12.334 11 17.001 13c18.667 8.66699 36.334 9 53.001 1c16.667 -8.66699 22.667 -24 18 -46l-2 -8c-2.66699 -9.33301 -8 -18 -16 -26c-0.666992 -0.666992 -4 -3.66699 -10 -9l-2 -2l8 -2
c5.33301 0 9.33301 1 12 3c10 6.66699 17 22.667 21 48c4.66699 35.333 13 78 25 128l23 96l49 256c0 1.33301 -15.667 2 -47 2h-46l-4 3c-2 2.66699 -3 5.33398 -3 8.00098c0 10.667 3.33301 23.667 10 39c1.33301 3.33301 7 5 17 5c-2.66699 0 9.33301 0.333008 36 1l48 1
l9 42c4 22.667 7.66699 41.667 11 57c8 36.667 19 66.667 33 90c16.667 26.667 40 47.667 70 63c22.667 10.667 49 17.334 79 20.001z" />
    <glyph glyph-name="u00CF" unicode="&#xcf;" horiz-adv-x="894" 
d="M397 704l39.9961 -0.00195312c40.667 -6 67.667 -21 81 -45c9.33301 -20.667 9 -41.667 -1 -63c-2.66699 -6.66699 -6.66699 -12.334 -12 -17.001c-6.66699 -6.66699 -12.334 -11 -17.001 -13c-18.667 -8.66699 -36.334 -9 -53.001 -1c-10.667 6.66699 -17 16 -19 28
c-3.33301 18 3 35.333 19 52l7 8l-6 1c-28 8 -54 5.33301 -78 -8c-4.66699 -2.66699 -8.33398 -5.33398 -11.001 -8.00098c-8 -7.33301 -17 -34.333 -27 -81c-16.667 -74.667 -25 -116.334 -25 -125.001c0 -0.666992 36.333 -1 109 -1l108 1l5 25c10 50 16 79 18 87
c6.66699 27.333 15.667 51.333 27 72c28.667 50 75.334 79 140.001 87c12 1.33301 24.333 2 37 2c34 -1.33301 62.333 -9.33301 85 -24c18 -13.333 27 -30.333 27 -51v-4c0.666992 0.666992 3.33398 10.334 8.00098 29.001c6 21.333 9 32.666 9 33.999
c1.33301 3.33301 11.666 5 30.999 5h14h37l3 -3c2 -2 3 -3.66699 3 -5c0 -0.666992 -24.333 -99 -73 -295c-49.333 -198.667 -74.333 -300 -75 -304c-2.66699 -18.667 -3 -31.667 -1 -39c3.33301 -7.33301 8 -11.333 14 -12c4 0 7.33301 0.666992 10 2
c13.333 8 27 38.667 41 92c3.33301 12.667 6 19.667 8 21c1.33301 1.33301 9.33301 2 24 2s23 -0.666992 25 -2c1.33301 -1.33301 2 -4 2 -8s-1.66699 -12 -5 -24c-24.667 -84.667 -60 -128 -106 -130c-17.333 -0.666992 -35 3.33301 -53 12
c-21.333 10.667 -36 28.667 -44 54c-1.33301 5.33301 -2 14.333 -2 27v19l34 136c22.667 89.333 34 135 34 137c0 0.666992 -33 1 -99 1h-99l-1 -5c0 -0.666992 -8.33301 -44 -25 -130c-16.667 -88 -26.334 -137 -29.001 -147c-16.667 -84 -34.667 -145 -54 -183
c-7.33301 -14 -16.666 -28.333 -27.999 -43c-33.333 -37.333 -70.333 -60.666 -111 -69.999c-24.667 -4.66699 -49.667 -2.66699 -75 6c-30 10.667 -48 28.334 -54 53.001c-4.66699 16 -2.66699 32 6 48c2.66699 6.66699 6.66699 12.334 12 17.001
c6.66699 6.66699 12.334 11 17.001 13c18.667 8.66699 36.334 9 53.001 1c16.667 -8.66699 22.667 -24 18 -46l-2 -8c-2.66699 -9.33301 -8 -18 -16 -26l-8 -8l5 -1c7.33301 -2.66699 17.333 -4 30 -4c16.667 2 33.667 12 51 30c9.33301 11.333 15.333 19.333 18 24
c10.667 22 25.334 79.333 44.001 172l59 305c0 1.33301 -36 2 -108 2h-109v-2c-0.666992 -0.666992 -9.66699 -47.334 -27 -140.001l-30 -154c-24 -111.333 -49.333 -185.666 -76 -222.999c-7.33301 -11.333 -15.666 -21.333 -24.999 -30
c-13.333 -13.333 -28.666 -22.666 -45.999 -27.999c-14 -4 -28.667 -4 -44 0c-24.667 6 -41.667 19 -51 39c-4.66699 10 -7 20.667 -7 32c0 12.667 2.66699 24.334 8 35.001c2.66699 6.66699 6.66699 12.334 12 17.001c6.66699 6.66699 12.334 11 17.001 13
c18.667 8.66699 36.334 9 53.001 1c16.667 -8.66699 22.667 -24 18 -46l-2 -8c-4.66699 -15.333 -13 -26.666 -25 -33.999l-3 -3c0 -1.33301 5 -2 15 -2c6 1.33301 11.333 6.66602 16 15.999c4 7.33301 7.33301 21.333 10 42c6 34.667 16 81.667 30 141l17 73l50 260
c0 0.666992 -15.333 1 -46 1c-32.667 0 -50.334 2.33301 -53.001 7c-1.33301 2 -0.333008 9.66699 3 23c3.33301 14 6 21.667 8 23l3 3h48c32 0 48 0.666992 48 2c1.33301 1.33301 4.33301 16.666 9 45.999l13 60c13.333 60 37.333 103 72 129
c13.333 9.33301 28 17.333 44 24c15.333 6 29.666 9.66699 42.999 11c2.66699 0.666992 6.33398 1 11.001 1zM749.996 655.998c-18.667 2 -33.999 2.33301 -45.999 1c-26.667 -3.33301 -44 -11.333 -52 -24c-8.66699 -12.667 -17.667 -41.334 -27 -86.001l-23 -115
c0 -0.666992 33.667 -1 101 -1h101l20 82c14 57.333 21 85.333 21 84c0 0.666992 -1 -0.666016 -3 -3.99902c-1.33301 -2 -5 -7 -11 -15c-7.33301 -6 -13 -10 -17 -12c-18.667 -8.66699 -36.334 -9 -53.001 -1c-10.667 6.66699 -17 16 -19 28
c-3.33301 17.333 2.66699 34.333 18 51l7 8l-5 1z" />
    <glyph glyph-name="u00D1" unicode="&#xd1;" horiz-adv-x="332" 
d="M218 440c5.33301 1.33301 11.334 2.00098 18.001 2.00098c28.667 0 51.667 -8.66699 69 -26c11.333 -10.667 19.666 -24.667 24.999 -42c1.33301 -4.66699 2 -13 2 -25v-17l-49 -198c-35.333 -138.667 -53 -207.667 -53 -207c-8.66699 -25.333 -24 -49.666 -46 -72.999
c-29.333 -29.333 -63 -48 -101 -56c-6 -1.33301 -15.667 -2 -29 -2c-12.667 0 -22 0.666992 -28 2c-24.667 6.66699 -41.667 19 -51 37c-4 8.66699 -6 18 -6 28c0 29.333 13 50 39 62l12 4c19.333 5.33301 35.333 1.33301 48 -12c12.667 -14 13.334 -32.667 2.00098 -56
c-2 -5.33301 -5 -10 -9 -14l-4 -5h7l14 3c24.667 9.33301 44.667 34.333 60 75l2 6l103 409c2 7.33301 3 11.666 3 12.999c2 17.333 1.33301 29.666 -2 36.999c-2.66699 6 -7.33398 9.33301 -14.001 10c-12 1.33301 -24.667 -3 -38 -13c-25.333 -16.667 -46.333 -46 -63 -88
c-3.33301 -8 -5.66602 -12.667 -6.99902 -14s-9.33301 -2 -24 -2h-22l-3 3c-2 2 -3 4 -3 6c0 8.66699 8 27 24 55l4 6c10 15.333 19.667 28 29 38c27.333 30.667 57.666 48.667 90.999 54z" />
    <glyph glyph-name="u00D2" unicode="&#xd2;" 
d="M328 695c10.667 2.66699 19.667 2.66602 27 -0.000976562s13 -7 17 -13l68 -153c0 -4 -11.667 -13.667 -35 -29c-6 -4 -11 -4 -15 0c-8 6.66699 -37 44 -87 112c-7.33301 10 -11.333 15.667 -12 17c-2 4 -3 9.33301 -3 16s1.33301 12.667 4 18
c6.66699 14.667 18.667 25.334 36 32.001z" />
    <glyph glyph-name="u00D3" unicode="&#xd3;" 
d="M500 696l12.001 1h1c7.33301 -0.666992 12.666 -2 15.999 -4c18 -9.33301 24.333 -25 19 -47c-3.33301 -9.33301 -8 -16.333 -14 -21c0.666992 0.666992 -49.333 -39 -150 -119c-7.33301 -6 -12.666 -9 -15.999 -9l-5 1h-1l-25 27c-2 4 1.66699 11 11 21l57 61
c49.333 52 73.666 77.667 72.999 77c6 5.33301 13.333 9.33301 22 12z" />
    <glyph glyph-name="u00D4" unicode="&#xd4;" 
d="M290 627c9.33301 10 15.333 15 18 15c3.33301 0 19.333 -11.333 48 -34c26.667 -19.333 40.334 -29.333 41.001 -30c0 -1.33301 18.667 8.66699 56 30c41.333 22.667 63 34 65 34c4 0 8 -4 12 -12c0.666992 -2 1.66699 -4.33301 3 -7c3.33301 -6.66699 6 -13 8 -19
c0 -3.33301 -1 -6 -3 -8c-0.666992 -2 -26.334 -18.333 -77.001 -49c-50 -31.333 -77 -47 -81 -47c-0.666992 0 -2.66699 1.33301 -6 4l-102 95c-2 4 1 10.333 9 19c2 1.33301 5 4.33301 9 9z" />
    <glyph glyph-name="u00D5" unicode="&#xd5;" 
d="M279 691c2 2 8.33008 2.99902 18.9971 2.99902c12.667 0 20.334 -2 23.001 -6c0.666992 -2 0.333984 -6.33301 -0.999023 -13c-2.66699 -19.333 -2.33398 -35.333 0.999023 -48c3.33301 -10.667 7 -18.667 11 -24c9.33301 -14.667 23.666 -24.667 42.999 -30
c11.333 -2.66699 25.666 -2.66699 42.999 0c26.667 7.33301 50.334 21 71.001 41c18.667 18.667 32 39.667 40 63c2.66699 10 6 15.333 10 16c2 0.666992 7 1 15 1c13.333 0 21 -2.33301 23 -7c0.666992 -2 0.333984 -6 -0.999023 -12c-6 -22 -16 -43.667 -30 -65
c-34 -53.333 -77.667 -85.666 -131 -96.999c-19.333 -4 -38.333 -4 -57 0c-46 10 -74.667 41 -86 93c-3.33301 16 -3.66602 37 -0.999023 63c2.66699 12.667 5.33398 20 8.00098 22z" />
    <glyph glyph-name="u00D6" unicode="&#xd6;" 
d="M240 587c1.33301 1.33301 54.667 2.00098 160 2.00098c106 0 160 -1 162 -3c0.666992 0 1.33398 -1.33301 2.00098 -4c1.33301 -2 0.333008 -9.33301 -3 -22c-2.66699 -12.667 -5.33398 -20.334 -8.00098 -23.001l-3 -3h-158c-105.333 0 -159 0.666992 -161 2
c-2 2 -3.33301 3.66699 -4 5c-0.666992 2.66699 0.333008 9.66699 3 21c4 16 7.33301 24.333 10 25z" />
    <glyph glyph-name="u00D8" unicode="&#xd8;" horiz-adv-x="460" 
d="M213 -2c2 1.33301 15.334 2 40.001 2h37l4 -3c3.33301 -4 3.66602 -11 0.999023 -21c-2.66699 -6.66699 -3.33398 -10 -2.00098 -10l6 -2c27.333 -10.667 44 -27 50 -49c0.666992 -3.33301 1 -9 1 -17c-1.33301 -20 -9 -37.667 -23 -53
c-22.667 -25.333 -66.334 -41 -131.001 -47l-102 -2c-4 2 -6.66699 4.66699 -8 8c0 7.33301 2.33301 18 7 32c2 4 9.33301 6 22 6c3.33301 0.666992 10 1 20 1c42 0.666992 73 5 93 13s30.667 20.333 32 37c0.666992 10 -3 18.333 -11 25
c-11.333 7.33301 -24.666 11 -39.999 11c-4 0 -7 1 -9 3c-3.33301 2.66699 -3.33301 11.667 0 27c0.666992 2 1.33398 4.33301 2.00098 7l7 27c0.666992 1.33301 2 3 4 5z" />
    <glyph glyph-name="u00D9" unicode="&#xd9;" horiz-adv-x="537" 
d="M411 704c18 1.33301 33.9961 1.33301 47.9961 0c44 -5.33301 77 -22 99 -50c7.33301 -9.33301 13 -21.666 17 -36.999c1.33301 -4.66699 2 -13.334 2 -26.001c0 -13.333 -0.666992 -22.666 -2 -27.999c-4 -15.333 -10 -31.666 -18 -48.999
c-14.667 -29.333 -39.334 -66 -74.001 -110c-15.333 -18 -26 -32.333 -32 -43c-9.33301 -16.667 -7.66602 -35 5.00098 -55c4.66699 -8.66699 12.334 -19.334 23.001 -32.001l18 -25c12.667 -19.333 21 -39.333 25 -60c2.66699 -17.333 2 -34.666 -2 -51.999
c-7.33301 -28 -20.666 -54.333 -39.999 -79c-11.333 -15.333 -24.666 -28 -39.999 -38c-14 -10.667 -29 -18.334 -45 -23.001c-16 -5.33301 -30.667 -7.66602 -44 -6.99902c-12 0 -20.667 0.666992 -26 2c-8 2.66699 -14.667 5.33398 -20 8.00098c-7.33301 4 -14 9 -20 15
s-10.667 12 -14 18c-5.33301 10.667 -8 23.334 -8 38.001c0 10 0.666992 17 2 21c6 24.667 21 38.667 45 42c18 3.33301 31 -3 39 -19c4 -7.33301 4.66699 -15.333 2 -24c-3.33301 -15.333 -10.666 -26.333 -21.999 -33l-5 -3l2 -3c3.33301 -6 9 -10.333 17 -13
c6.66699 -2.66699 14.334 -3.33398 23.001 -2.00098c16 5.33301 30 28.666 42 69.999c6.66699 22 10 39.333 10 52c0 9.33301 -0.333008 15.666 -1 18.999c-3.33301 11.333 -10 23.666 -20 36.999c-10.667 14.667 -17.667 27.667 -21 39c-4.66699 14 -7 29.333 -7 46
c0 14 1.66699 29.333 5 46c5.33301 21.333 23.333 48.333 54 81c5.33301 6 10.666 12.667 15.999 20c12.667 18 25.334 52.333 38.001 103l6 24v18c0 12 -0.666992 20.667 -2 26c-8.66699 23.333 -23 36.333 -43 39c-16.667 2.66699 -34.667 1.66699 -54 -3
c-19.333 -3.33301 -33 -10.333 -41 -21c-10 -12 -19.333 -39 -28 -81c-4 -15.333 -19.333 -94 -46 -236c-28.667 -146.667 -44.334 -226 -47.001 -238c-15.333 -77.333 -31.666 -134.666 -48.999 -171.999c-16.667 -38.667 -39 -68.334 -67 -89.001
c-8.66699 -6.66699 -21 -13 -37 -19c-30 -8.66699 -54.667 -2.33398 -74 18.999c-3.33301 4 -6.33301 8.33301 -9 13c-5.33301 10.667 -8 22.667 -8 36c0 14 2.66699 26.667 8 38c2.66699 6.66699 6.66699 12.334 12 17.001c6.66699 6.66699 12.334 11 17.001 13
c18.667 8.66699 36.334 9 53.001 1c10.667 -6.66699 17 -16 19 -28c3.33301 -19.333 -3.66699 -37.333 -21 -54c-2.66699 -2.66699 -5.33398 -5 -8.00098 -7c-4 -2.66699 -5.33301 -4 -4 -4c10.667 0 21 10.333 31 31c9.33301 23.333 24 84.333 44 183
c40.667 203.333 61 309.333 61 318c0 0.666992 -15.333 1 -46 1c-32.667 0 -50.334 2.33301 -53.001 7c-1.33301 2 -0.333008 9.66699 3 23c3.33301 14 5.66602 21.667 6.99902 23l3 3h49l48 1l9 43c10 52.667 19 89 27 109c22 56.667 61.667 93.334 119 110.001
c15.333 5.33301 32 8.66602 50 9.99902z" />
    <glyph glyph-name="u00DA" unicode="&#xda;" horiz-adv-x="716" 
d="M455 441c14.667 4 26.667 1.33398 36 -7.99902c6 -4.66699 9 -11.667 9 -21l1 -6l6 4c23.333 12.667 44 21 62 25c42 10.667 78.333 9 109 -5c24.667 -12.667 41 -30.667 49 -54c4 -12.667 4.66699 -26.667 2 -42c-12 -57.333 -58.667 -93 -140 -107
c-30 -5.33301 -64.667 -8.33301 -104 -9c-20.667 0 -31 -0.666992 -31 -2c-2 -4.66699 -4.33301 -16.334 -7 -35.001c-6.66699 -38 -6 -69 2 -93c3.33301 -11.333 10 -22 20 -32c16.667 -16.667 38.667 -23 66 -19c41.333 6 79.333 29.667 114 71
c7.33301 8.66699 12.333 13 15 13s9 -5 19 -15c10 -10.667 14 -18 12 -22c-6.66699 -12 -19.334 -25.667 -38.001 -41c-2.66699 -2 -5 -3.66699 -7 -5c-43.333 -32.667 -89.666 -49 -138.999 -49c-36.667 0 -68.334 13.333 -95.001 40l-8 8l-1 -7
c-5.33301 -21.333 -18 -34.666 -38 -39.999c-15.333 -3.33301 -27.666 -0.333008 -36.999 9c-4.66699 6.66699 -7 14 -7 22c0 4.66699 -0.333008 7 -1 7l-7 -5c-30 -22.667 -59.667 -34 -89 -34c-43.333 0 -79.333 11.333 -108 34c-30.667 25.333 -43.667 57 -39 95
c5.33301 32 19 64.667 41 98c50.667 75.333 145.667 138.666 285 189.999l14 5l3 6c6 11.333 16.333 19.333 31 24zM634 392.001c-2.66699 0.666992 -9.33301 1.66797 -20 3.00098c-16 0 -32.667 -3.33301 -50 -10c-35.333 -13.333 -62.333 -38.666 -81 -75.999
c-5.33301 -10.667 -10.333 -23 -15 -37l-2 -7h31c70 2 117.667 12 143 30c12.667 9.33301 21 21.666 25 36.999c2.66699 10 2.66699 19.667 0 29c-4.66699 15.333 -15 25.666 -31 30.999zM407.001 357.002c0 1.33301 -5.66797 -0.998047 -17.001 -6.99805
c-99.333 -52 -163.666 -115.667 -192.999 -191c-14.667 -36 -21 -65.667 -19 -89c0 -2.66699 0.333008 -4.66699 1 -6c3.33301 -10.667 11.333 -18.334 24 -23.001c14.667 -6 30.667 -7 48 -3c34 6 65.667 34 95 84c2 3.33301 12.667 43.666 32 120.999z" />
    <glyph glyph-name="u00DB" unicode="&#xdb;" horiz-adv-x="716" 
d="M324 455l20.001 1h1c13.333 -1.33301 21.333 -2.33301 24 -3c35.333 -9.33301 61.333 -31.666 78 -66.999l7 -13l5 5c46.667 40.667 97.667 62 153 64c17.333 0.666992 33.333 -1.33301 48 -6c35.333 -10.667 57.666 -31 66.999 -61
c1.33301 -4.66699 2 -12.334 2 -23.001c0 -12 -0.666992 -20.333 -2 -25c-5.33301 -20 -15.333 -37.333 -30 -52c-29.333 -29.333 -78 -47 -146 -53c-17.333 -2.66699 -45.333 -4 -84 -4h-9l-4 -18c-11.333 -51.333 -11.666 -91 -0.999023 -119c8 -18 19.333 -30.667 34 -38
c13.333 -6 29.666 -7.66699 48.999 -5c40 5.33301 77.667 28.666 113 69.999c7.33301 8.66699 12.333 13 15 13s9 -5 19 -15c10 -10.667 14 -18 12 -22c-6.66699 -12 -19.334 -25.667 -38.001 -41c-2.66699 -2 -5 -3.66699 -7 -5c-48.667 -37.333 -99.667 -53.333 -153 -48
c-8.66699 0.666992 -17.334 2.33398 -26.001 5.00098c-16 4 -29.667 10.667 -41 20c-19.333 14 -32.666 29.667 -39.999 47c-2 3.33301 -3.33301 5 -4 5c0 0.666992 -2 -1.33301 -6 -6c-18 -22 -38.333 -40.333 -61 -55c-15.333 -10 -30.666 -17.667 -45.999 -23
c-54 -17.333 -98.667 -7.33301 -134 30c-24.667 26.667 -39 61.667 -43 105c-5.33301 64 10.334 128.667 47.001 194c5.33301 10 11.333 19.667 18 29c41.333 59.333 89.666 96 144.999 110zM345.001 408c-23.333 4 -46.999 -6.66602 -70.999 -31.999
c-20 -20.667 -37.667 -57.334 -53 -110.001c-4 -14 -8.33301 -30.333 -13 -49c-19.333 -80 -26 -131.333 -20 -154c0 -2 0.333008 -3.66699 1 -5c11.333 -31.333 32.666 -42.333 63.999 -33c29.333 10 54.333 34.333 75 73c10.667 20.667 20.667 47.667 30 81
c12 43.333 19.333 73 22 89c8.66699 44 10 77.333 4 100c-7.33301 22.667 -20.333 36 -39 40zM634.002 392.001c-17.333 5.33301 -37.001 4.33301 -59.001 -3c-41.333 -13.333 -71.666 -41.666 -90.999 -84.999l-14 -39l54 1c36.667 2 65 6.33301 85 13
c30 10 48.667 27.667 56 53c2.66699 10 2.66699 19.667 0 29c-4.66699 15.333 -15 25.666 -31 30.999z" />
    <glyph glyph-name="u00DC" unicode="&#xdc;" 
d="M524 542c3.33301 3.33301 10.666 1.66797 21.999 -4.99902c8.66699 -4 13 -6.66699 13 -8c1.33301 -1.33301 2 -3.66602 2 -6.99902c0 -2 -14 -22 -42 -60l-42 -57l6 -8c24.667 -35.333 35.334 -78.333 32.001 -129c-5.33301 -77.333 -35 -145.666 -89 -204.999
c-31.333 -33.333 -66 -57.666 -104 -72.999c-50 -20.667 -95.667 -20.334 -137 0.999023l-10 5l-40 -53c-24.667 -34 -38 -52 -40 -54c-4 -3.33301 -11.333 -2 -22 4c-12.667 7.33301 -17.334 14.333 -14.001 21c0.666992 0.666992 14.667 19.667 42 57l40 55l-5 8
c-9.33301 13.333 -16 26.333 -20 39c-18 47.333 -17.333 102 2 164c11.333 37.333 28.666 71.666 51.999 102.999c30.667 41.333 67.334 72.666 110.001 93.999c19.333 9.33301 37.333 15.666 54 18.999c7.33301 1.33301 18 2 32 2c14.667 0 24 -0.333008 28 -1
c15.333 -3.33301 28.333 -7.66602 39 -12.999c7.33301 -4.66699 11 -6.33398 11 -5.00098c0.666992 0 13.667 17.333 39 52c26.667 36 40.334 54 41.001 54zM381 406.002c-10.667 3.33301 -23 3.66797 -37 1.00098c-16 -2.66699 -31.333 -9 -46 -19
c-35.333 -22.667 -62 -60.667 -80 -114c-12 -33.333 -22.667 -76 -32 -128c-2.66699 -15.333 -3 -32.333 -1 -51c0.666992 -2.66699 1 -4.33398 1 -5.00098c0.666992 -1.33301 4 2 10 10l102 138c74.667 100.667 111.667 151.667 111 153c-6 7.33301 -15.333 12.333 -28 15z
M434 318.004c0 13.333 -0.334961 20.665 -1.00195 21.998v5l-111 -150c-75.333 -101.333 -112.666 -151.666 -111.999 -150.999c-0.666992 -1.33301 -0.333984 -3 0.999023 -5c8.66699 -8.66699 20.334 -14 35.001 -16c32.667 -5.33301 65.334 7.33398 98.001 38.001
c6.66699 6.66699 13 13.667 19 21c22 28.667 40.667 74.667 56 138c0 2 0.333008 3.66699 1 5c9.33301 40 14 71 14 93z" />
    <glyph glyph-name="u00DF" unicode="&#xdf;" horiz-adv-x="767" 
d="M758 748c2.66699 1.33301 4.66992 1.66797 6.00293 1.00098c0.666992 0 5.66699 -2.66699 15 -8c10.667 -6.66699 16 -12.334 16 -17.001c-2 -4 -13.667 -19.667 -35 -47l-35 -45l7 -8c8 -10.667 16.667 -24.667 26 -42c14 -28 23.333 -59 28 -93
c3.33301 -26 3.66602 -51 0.999023 -75c-6 -82.667 -34 -160.667 -84 -234c-54 -82 -122 -140.667 -204 -176c-18 -8 -37 -14 -57 -18c-72 -16.667 -134 -7.66699 -186 27c-4.66699 3.33301 -7.66699 5 -9 5l-32 -41c-22.667 -28.667 -36.334 -43 -41.001 -43l-29 17
c-2.66699 4 -3 7.66699 -1 11l35 45l33 43l-7 9c-40.667 51.333 -59.334 116.333 -56.001 195c4 97.333 39 188.666 105 273.999c14.667 19.333 30.334 37.333 47.001 54c60.667 62 127.334 100.667 200.001 116c17.333 4 37 6 59 6c21.333 0 40.666 -2 57.999 -6
c22.667 -6 44 -15.333 64 -28c5.33301 -4 8.66602 -5.33301 9.99902 -4l32 41c20 26.667 31.333 40.334 34 41.001zM569.003 657.002c-37.333 4 -74.668 -3.33105 -112.001 -21.998c-58 -28.667 -104.333 -77.667 -139 -147c-20.667 -42.667 -40 -103.667 -58 -183
c-16 -68.667 -19.667 -123.334 -11 -164.001l9 -31l198 253l196 252l-4 5c-19.333 19.333 -45.666 31.666 -78.999 36.999zM683.001 562.004c-2.66699 6 -3.99805 9.33301 -3.99805 10l-197 -252l-197 -252l5 -6c12.667 -12.667 29 -22.334 49 -29.001
c51.333 -17.333 105.666 -9 162.999 25c17.333 10.667 33.666 23.334 48.999 38.001c45.333 45.333 80.333 110 105 194c15.333 54.667 26.333 103.667 33 147c6.66699 50 4.66699 91.667 -6 125z" />
    <glyph glyph-name="idieresis" unicode="&#xef;" horiz-adv-x="256" 
d="M339 392c2 0.666992 4 0.667969 6 0.000976562c4.66699 -6.66699 7 -15.667 7 -27c0 -15.333 -2.33301 -24 -7 -26l-252 -59l-6 3l-2 3v21v22l2 3c1.33301 1.33301 43.333 11.666 126 30.999c82 19.333 124 29 126 29z" />
    <glyph glyph-name="u00FF" unicode="&#xff;" 
d="M316 667c15.333 3.33301 28.668 2 40.001 -4s19 -15.333 23 -28c7.33301 -22.667 1 -45 -19 -67c-7.33301 -7.33301 -15.333 -13 -24 -17c-28 -12.667 -50.667 -10 -68 8c-5.33301 5.33301 -9.33301 12 -12 20c-2.66699 11.333 -2.66699 21.333 0 30
c4 18 14.667 33.333 32 46c11.333 6.66699 20.666 10.667 27.999 12zM495.002 668c26.667 5.33301 46.335 -2.66895 59.002 -24.002c1.33301 -2.66699 2.66602 -5.66699 3.99902 -9c1.33301 -4 2 -10 2 -18c-0.666992 -9.33301 -2 -16.333 -4 -21
c-8.66699 -21.333 -24 -37 -46 -47c-26 -10.667 -47 -7.66699 -63 9c-4 4 -7 8.33301 -9 13c-8 16.667 -7.33301 34.334 2 53.001c11.333 22.667 29.666 37.334 54.999 44.001z" />
    <glyph glyph-name="NULL" horiz-adv-x="0" 
 />
    <glyph glyph-name="nonmarkingreturn" horiz-adv-x="333" 
 />
  </font>
</defs>
</svg>
