<svg width="30" height="29" viewBox="0 0 30 29" fill="none" xmlns="http://www.w3.org/2000/svg">
<g clip-path="url(#clip0_458_4053)">
<path d="M21.9066 21.3035C21.7288 21.4871 21.4901 21.6117 21.2309 21.6357C20.7001 21.6846 20.2823 21.2953 20.2975 20.7644L20.6441 8.44775L8.32591 9.59093C7.79503 9.63986 7.37726 9.25053 7.39249 8.71963C7.40771 8.18874 7.84902 7.71911 8.37989 7.67018L21.6574 6.43905C21.9124 6.41538 22.1535 6.49392 22.3284 6.65678C22.5033 6.81963 22.598 7.05536 22.5908 7.31034L22.2173 20.5874C22.2105 20.858 22.092 21.1121 21.9066 21.3035Z" fill="white"/>
</g>
<path d="M6.31834 20.2679C5.914 20.6441 5.89118 21.2768 6.26738 21.6812C6.64358 22.0855 7.27634 22.1083 7.68068 21.7321L6.31834 20.2679ZM19.9414 7.59307L6.31834 20.2679L7.68068 21.7321L21.3037 9.05732L19.9414 7.59307Z" fill="white"/>
<defs>
<clipPath id="clip0_458_4053">
<rect width="12.1597" height="19.4556" fill="white" transform="translate(7 8.73438) rotate(-45.9163)"/>
</clipPath>
</defs>
</svg>
